<?xml version="1.0" encoding="UTF-8"?>
<svg height="16px" viewBox="0 0 16 16" width="16px" xmlns="http://www.w3.org/2000/svg" xmlns:xlink="http://www.w3.org/1999/xlink">
    <clipPath id="a">
        <path d="m 0 0 h 512 v 512 h -512 z"/>
    </clipPath>
    <path d="m 8 1 l 1.730469 5.234375 l 5.269531 0.113281 l -4.199219 3.347656 l 1.527344 5.304688 l -4.328125 -3.164062 l -4.328125 3.164062 l 1.527344 -5.304688 l -4.199219 -3.347656 l 5.269531 -0.113281 z m 0 0"/>
    <g clip-path="url(#a)" transform="matrix(1 0 0 1 0 -100)">
        <path d="m 42.570312 90 h 7.859376 c 0.316406 0 0.570312 0.253906 0.570312 0.570312 v 3.847657 c 0 0.316406 -0.253906 0.570312 -0.570312 0.570312 h -7.859376 c -0.316406 0 -0.570312 -0.253906 -0.570312 -0.570312 v -3.847657 c 0 -0.316406 0.253906 -0.570312 0.570312 -0.570312 z m 0 0"/>
    </g>
</svg>
