<?xml version="1.0" encoding="UTF-8"?>
<svg width="189.24" height="76" version="1.1" viewBox="0 0 189.24 76" xml:space="preserve" xmlns="http://www.w3.org/2000/svg" xmlns:cc="http://creativecommons.org/ns#" xmlns:dc="http://purl.org/dc/elements/1.1/" xmlns:rdf="http://www.w3.org/1999/02/22-rdf-syntax-ns#"><metadata><rdf:RDF><cc:Work rdf:about=""><dc:format>image/svg+xml</dc:format><dc:type rdf:resource="http://purl.org/dc/dcmitype/StillImage"/><dc:title/></cc:Work></rdf:RDF></metadata>
<style type="text/css">
	.st0{fill:#FFFFFF;}
	.st1{fill:none;}
	.st2{fill:#1D2D51;}
	.st3{fill:#1D3E84;}
	.st4{fill:#47509E;}
</style>

<g transform="translate(-30.845 -115.06)">
	<path d="m109.56 146.14v17.82h15.58v5.94h-19.59v-29.7h19.59v5.94z"/>
	<path d="m149.04 140.03v18.11h-5.13l5.13 7.54v4.23h-2.92l-7.72-11.77h-5.09v11.77h-3.86v-29.88zm-4.01 6.11h-11.72v5.88h11.72z"/>
	<path d="m172.6 169.9h-19.59v-29.93h19.59zm-3.86-23.99h-11.72v17.88h11.72z"/>
	<path d="m196.5 140.03v29.88h-2.77l-7.04-10.74-7 10.74h-2.77v-29.88h4.01v19.77l5.77-9.03 5.96 9.03v-19.77z"/>
	<path d="m220.09 140.03v29.88h-3.86l-11.72-20.51v20.51h-3.86v-29.88h3.86l11.72 20.51v-20.51z"/>
<rect x="30.845" y="115.06" width="76" height="76" ry="0" fill="none" stroke-width="1.333"/><path d="m36.66 153.06c0-5.93 0.01-11.86-0.01-17.79 0-0.59 0.17-0.91 0.69-1.22 9.45-5.43 18.88-10.88 28.32-16.33 0.88-0.51 1.77-1.01 2.63-1.54 0.41-0.26 0.73-0.23 1.14 0.01 3.55 2.07 7.11 4.13 10.67 6.19 5.38 3.11 10.77 6.22 16.15 9.32 1.44 0.83 2.86 1.68 4.32 2.48 0.44 0.24 0.46 0.58 0.45 0.99-0.02 4.44-0.04 8.88-0.04 13.32 0 7.32 0.01 14.63 0.06 21.95 0.01 0.94-0.27 1.42-1.1 1.89-4.94 2.79-9.83 5.66-14.75 8.49-4.72 2.72-9.44 5.43-14.16 8.14-0.75 0.43-1.5 1.17-2.25 1.17-0.72 0-1.45-0.76-2.18-1.18-8.2-4.72-16.4-9.44-24.59-14.16-1.61-0.93-3.23-1.84-4.81-2.81-0.26-0.16-0.51-0.56-0.51-0.85-0.02-4.88-0.01-9.77 0-14.65v-3.42h-0.03zm60.18 3.21v-1.06c-0.01-5.73-0.02-11.45-0.03-17.18 0-0.2 0.05-0.42-0.01-0.59-0.1-0.27-0.22-0.61-0.44-0.74-4.66-2.72-9.34-5.41-14.02-8.11-4.22-2.44-8.45-4.87-12.65-7.34-0.65-0.38-1.13-0.34-1.75 0.02-2.43 1.44-4.87 2.85-7.31 4.26-6.43 3.71-12.87 7.42-19.29 11.15-0.24 0.14-0.46 0.52-0.46 0.79-0.03 6.74-0.04 13.49-0.05 20.23 0 0.21 0.04 0.41 0.07 0.7 0.18-0.13 0.29-0.18 0.38-0.26 1.58-1.42 3.13-2.86 4.72-4.27 0.13-0.12 0.26-0.23 0.42-0.37 0.57-0.5 1.01-0.88 1.22-1.06 2.31-1.97 3.81-3.16 5.67-4.99 0.28-0.27 0.73-0.72 1.28-1.31 0.51 0.55 5.6 4.77 5.6 4.77s15.4-11.57 15.95-12.11c0.58 0.55 1.52 1.44 2.69 2.51 5.43 4.97 10.11 8.71 14.23 11.99 0.88 0.7 2.19 1.73 3.78 2.97z"/></g>









</svg>
