<?xml version="1.0" encoding="UTF-8"?>
<svg height="16px" viewBox="0 0 16 16" width="16px" xmlns="http://www.w3.org/2000/svg" xmlns:xlink="http://www.w3.org/1999/xlink">
    <clipPath id="a">
        <path d="m 0 0 h 512 v 512 h -512 z"/>
    </clipPath>
    <path d="m 8 3.332031 c -3.867188 0 -7 2.089844 -7 4.667969 s 3.132812 4.667969 7 4.667969 s 7 -2.089844 7 -4.667969 s -3.132812 -4.667969 -7 -4.667969 z m 0 0.78125 c 3.542969 0 6.414062 1.738281 6.417969 3.886719 c 0 2.148438 -2.875 3.890625 -6.417969 3.890625 s -6.417969 -1.742187 -6.417969 -3.890625 c 0.003907 -2.148438 2.875 -3.886719 6.417969 -3.886719 z m 0 0"/>
    <path d="m 8 4.792969 c -1.773438 0 -3.207031 1.433593 -3.207031 3.207031 s 1.433593 3.207031 3.207031 3.207031 s 3.207031 -1.433593 3.207031 -3.207031 s -1.433593 -3.207031 -3.207031 -3.207031 z m 0 1.601562 c 0.886719 0 1.605469 0.71875 1.605469 1.605469 s -0.71875 1.605469 -1.605469 1.605469 s -1.605469 -0.71875 -1.605469 -1.605469 s 0.71875 -1.605469 1.605469 -1.605469 z m 0 0"/>
    <g clip-path="url(#a)" transform="matrix(1 0 0 1 -40 0)">
        <path d="m 42.570312 90 h 7.859376 c 0.316406 0 0.570312 0.253906 0.570312 0.570312 v 3.847657 c 0 0.316406 -0.253906 0.570312 -0.570312 0.570312 h -7.859376 c -0.316406 0 -0.570312 -0.253906 -0.570312 -0.570312 v -3.847657 c 0 -0.316406 0.253906 -0.570312 0.570312 -0.570312 z m 0 0"/>
    </g>
</svg>
