<?xml version="1.0" encoding="UTF-8"?>
<svg height="16px" viewBox="0 0 16 16" width="16px" xmlns="http://www.w3.org/2000/svg" xmlns:xlink="http://www.w3.org/1999/xlink">
    <clipPath id="a">
        <path d="m 0 0 h 512 v 512 h -512 z"/>
    </clipPath>
    <path d="m 5 12 h 6 v 1 h -6 z m 0 0"/>
    <path d="m 5 14 h 6 v 1 h -6 z m 0 0"/>
    <path d="m 7 15 h 2 v 1 h -2 z m 0 0"/>
    <path d="m 7.992188 1.003906 c -1.605469 -0.078125 -3.152344 0.742188 -4.191407 1.957032 c -0.976562 1.101562 -1.394531 2.628906 -1.285156 4.097656 c 0.066406 1.253906 0.644531 2.476562 1.621094 3.257812 c 0.300781 0.238282 0.609375 0.550782 0.957031 0.683594 c 1.957031 -0.003906 3.933594 0.007812 5.882812 -0.007812 c 1.253907 -0.773438 2.34375 -2.039063 2.472657 -3.582032 c 0.21875 -1.703125 -0.257813 -3.570312 -1.542969 -4.746094 c -1.003906 -1.078124 -2.445312 -1.71875 -3.914062 -1.660156 z m 0 0" fill-rule="evenodd"/>
    <g clip-path="url(#a)" transform="matrix(1 0 0 1 -20 -80)">
        <path d="m 42.570312 90 h 7.859376 c 0.316406 0 0.570312 0.253906 0.570312 0.570312 v 3.847657 c 0 0.316406 -0.253906 0.570312 -0.570312 0.570312 h -7.859376 c -0.316406 0 -0.570312 -0.253906 -0.570312 -0.570312 v -3.847657 c 0 -0.316406 0.253906 -0.570312 0.570312 -0.570312 z m 0 0"/>
    </g>
</svg>
