<?xml version="1.0" encoding="UTF-8"?>
<svg height="16px" viewBox="0 0 16 16" width="16px" xmlns="http://www.w3.org/2000/svg" xmlns:xlink="http://www.w3.org/1999/xlink">
    <clipPath id="a">
        <path d="m 0 0 h 512 v 512 h -512 z"/>
    </clipPath>
    <path d="m 7.5 4.964844 l 3.535156 3.535156 l -3.535156 3.535156 l -3.535156 -3.535156 z m 0 0"/>
    <path d="m 0.738281 1.828125 l 3.558594 3.511719 l -4.164063 0.65625 z m 1.425781 1.402344 c 2.910157 -2.949219 7.65625 -2.976563 10.605469 -0.066407 l -0.703125 0.710938 c -2.554687 -2.523438 -6.667968 -2.496094 -9.191406 0.058594 z m 0 0"/>
    <path d="m 14.261719 15.171875 l -3.558594 -3.511719 l 4.164063 -0.65625 z m -1.425781 -1.402344 c -2.910157 2.949219 -7.660157 2.976563 -10.605469 0.066407 l 0.703125 -0.710938 c 2.550781 2.519531 6.667968 2.496094 9.191406 -0.058594 z m 0 0"/>
    <g clip-path="url(#a)" transform="matrix(1 0 0 1 -40 -20)">
        <path d="m 42.570312 90 h 7.859376 c 0.316406 0 0.570312 0.253906 0.570312 0.570312 v 3.847657 c 0 0.316406 -0.253906 0.570312 -0.570312 0.570312 h -7.859376 c -0.316406 0 -0.570312 -0.253906 -0.570312 -0.570312 v -3.847657 c 0 -0.316406 0.253906 -0.570312 0.570312 -0.570312 z m 0 0"/>
    </g>
</svg>
