<svg height="512" viewBox="0 0 512 512" width="512" xmlns="http://www.w3.org/2000/svg" xmlns:xlink="http://www.w3.org/1999/xlink">
  <filter id="a" color-interpolation-filters="sRGB" height="1.7368" width="1.259665" x="-.129833" y="-.3684">
    <feGaussianBlur stdDeviation="17.366543"/>
  </filter>
  <g transform="translate(-729.73419 -5.942066)">
    <path d="m729.73419 5.942066h512v512h-512z" fill="none"/>
    <ellipse cx="308.94678" cy="4014.7866" fill-opacity=".235294" filter="url(#a)" rx="160.51324" ry="56.568542" transform="matrix(.89363472 0 0 .35091959 716.08882 -967.8208)"/>
    <g transform="matrix(.78125 0 0 .78125 778.302695 -2734.3548)">
      <g fill-rule="evenodd">
        <path d="m473.2387 3579.5713c-12.35647 80.6229-20.00128 133.4822-25.25254 172.2362l59.5311-115.9296z" fill="#4e9a06"/>
        <path d="m407.42433 3751.937 63.38385 6.6591-110.45664 35.4263z" fill="#a40000"/>
        <path d="m477.68815 3765.1218-108.10785 34.7052 144.58403 31.1253z" fill="#ef2929"/>
        <path d="m437.1251 3822.7358 78.35 17.1752-64.63805 172.1428z" fill="#fce94f"/>
        <path d="m350.99529 3803.7782-54.70739 69.968 124.27459-54.8662z" fill="#c00"/>
        <path d="m297.62715 3882.072 119.60222-53.1844-95.97736 244.9879z" fill="#ff6739"/>
        <path d="m331.25492 4069.9043 111.00001-54.4289-13.11298-193.6839z" fill="#fcaf3e"/>
        <path d="m166.2326 3928.4743 122.9963-46.9024 23.5461 187.8298z" fill="#ef2929"/>
        <path d="m98.705059 4026.7014 61.123141-93.5123 144.54045 139.4946z" fill="#800"/>
        <path d="m7.5447786 3812.2394 85.3729854 208.5781 60.115246-92.0074z" fill="#f57900" fill-opacity=".941176"/>
        <path d="m120.81691 3675.9239-45.794522 179.7384-62.129888-49.7135z" fill="#f07e36"/>
        <path d="m232.05717 3761.3926-103.85428-82.6296-15.83283 62.6565z" fill="#a40000"/>
        <path d="m230.15833 3769.1781-51.83953 104.9811 4.32472-112.9211z" fill="#fcaf3e"/>
        <path d="m445.27233 3609.085 9.77257 39.1574-89.75077-78.1779z" fill="#83ed57"/>
        <path d="m346.33158 3564.1438-38.04107 53.9382 147.17276 41.1691z" fill="#8ae234"/>
        <path d="m304.6317 3624.6916 53.62926 48.6981 93.97939-6.3756z" fill="#089a06"/>
        <path d="m245.23708 3570.5174 92.33484-8.6419-38.17709 53.996z" fill="#32b307"/>
        <path d="m235.80913 3573.4406-61.00215 32.7538 100.63644.1396z" fill="#73d216"/>
      </g>
      <path d="m5.509942 3561.8755h512v512h-512z" fill="none"/>
    </g>
  </g>
</svg>
