<svg height="16" viewBox="0 0 16 16" width="16" xmlns="http://www.w3.org/2000/svg" xmlns:xlink="http://www.w3.org/1999/xlink">
	<marker id="a" orient="auto" overflow="visible" refX="0" refY="0">
		<path d="m8.71859 4.03374-10.92588-4.01773 10.92588-4.01772c-1.7455 2.37206-1.73544 5.61745 0 8.03544z" fill="#bebebe" fill-rule="evenodd" stroke="#bebebe" stroke-linejoin="round" stroke-width=".625" transform="scale(-.6)"/>
	</marker>
	<g transform="matrix(.45117 0 0 .45116 -69.948 -140.472)">
		<rect fill="none" height="31.03" ry=".429" width="31.03" x="157.254" y="313.575"/>
		<path d="m166.12 335.739h11.082v11.082h-11.082z" fill="#bebebe"/>
		<path d="m171.66148 313.5742v15.51548" fill="none" stroke="#bebebe" stroke-width="2.216"/>
		<path d="m166.12028 324.65669 5.5412 6.64949 5.5412-6.64949z" fill="#bebebe" fill-rule="evenodd"/>
		<path d="m155.038 311.358h35.464v35.464h-35.464z" fill="none"/>
		<g transform="matrix(.99181 0 0 1.03437 277.995 -54.841)">
			<rect fill="none" height="44.8" opacity=".98" rx=".178" transform="matrix(.69837 0 0 .66964 73.229 122.991)" width="44.8" x="231.571" y="349.721"/>
			<g fill="#bebebe">
				<rect height="2.5" opacity=".98" rx=".071" transform="matrix(.89391 0 0 .85714 24.444 52.213)" width="20" x="251.471" y="374.621"/>
				<rect height="2.5" opacity=".98" rx=".071" transform="matrix(.89391 0 0 .85714 24.444 52.213)" width="20" x="251.471" y="382.121"/>
				<rect height="2.5" opacity=".98" rx=".071" transform="matrix(0 .85714 -.89391 0 24.444 52.213)" width="20" x="369.621" y="-258.971"/>
				<rect height="2.5" opacity=".98" rx=".071" transform="matrix(0 .85714 -.89391 0 24.444 52.213)" width="20" x="369.621" y="-266.471"/>
			</g>
			<g transform="matrix(.68749 .65921 -.73744 .70711 343.588 -54.025)">
				<path d="m240.50438 355.61768c-4.14215 0-7.50003 3.35786-7.50003 7.49999s3.35788 7.49999 7.50003 7.49999h4.57215v-4.5h-4.57215c-1.65686 0-3.00001-1.34314-3.00001-2.99999s1.34315-3 3.00001-3h4.57215v-4.49999z" fill="#d40000"/>
				<path d="m246.09455 355.61738v4.49999h3.00001v-4.49999zm0 10.49998v4.5h3.00001v-4.5z" fill="#bebebe"/>
			</g>
			<path d="m233.593 354.032h35.756v34.286h-35.756z" fill="none"/>
		</g>
		<g transform="matrix(1.00001 0 0 1.00002 -34.696 -.007)">
			<rect fill="none" height="31.03" ry=".429" width="31.03" x="236.277" y="313.575"/>
			<g fill="#bebebe">
				<path d="m245.142 324.657h11.082v11.082h-11.082z"/>
				<g fill-rule="evenodd">
					<path d="m245.1424 320.22421 5.54113-6.64935 5.54112 6.64935z"/>
					<path d="m245.1424 340.17226 5.54113 6.64935 5.54112-6.64935z"/>
					<path d="m260.65755 324.65711 6.64935 5.54113-6.64935 5.54112z"/>
					<path d="m240.7095 324.65711-6.64935 5.54113 6.64935 5.54112z"/>
				</g>
			</g>
			<path d="m234.06 311.358h35.463v35.463h-35.463z" fill="none"/>
		</g>
		<g transform="matrix(2.21648 0 0 2.2165 332.356 -1985.736)">
			<g fill="none" stroke="#bebebe">
				<path d="m0 1038.8622h15"/>
				<path d="m0 1044.8622h15"/>
				<path d="m0 1050.8622h15"/>
				<path d="m1.5 1037.3622v15"/>
				<path d="m7.5 1037.3622v15"/>
				<path d="m13.5 1037.3622v15"/>
			</g>
			<path d="m5 1042.3622v5h5v-5z" fill="#bebebe" fill-rule="evenodd"/>
			<path d="m0 1036.362h16v16h-16z" fill="none"/>
		</g>
		<g fill="none" transform="matrix(2.21648 0 0 2.2165 376.686 -1985.736)">
			<g stroke="#bebebe">
				<path d="m0 1038.8622h15"/>
				<path d="m0 1044.8622h15"/>
				<path d="m0 1050.8622h15"/>
				<path d="m1.5 1037.3623v15"/>
				<path d="m7.5 1037.3622v15"/>
				<path d="m13.5 1037.3622v15"/>
			</g>
			<path d="m0 1036.362h16v16h-16z"/>
		</g>
		<g transform="matrix(2.21648 0 0 2.2165 421.015 -1985.736)">
			<path d="m1 1046.3622.00002 5h4.99998l-.00002-5z" fill="#bebebe" fill-rule="evenodd"/>
			<path d="m1.5 1037.3622v13.5h13.5" fill="none" stroke="#bebebe"/>
			<path d="m0 1036.362h16v16h-16z" fill="none"/>
		</g>
		<g transform="matrix(2.21648 0 0 2.2165 465.345 -1985.736)">
			<path d="m6 1041.3622.00002 5h4.99998l-.00002-5z" fill="#bebebe" fill-rule="evenodd"/>
			<path d="m1.5 1037.3622v13.5h13.5" fill="none" stroke="#bebebe"/>
			<path d="m0 1036.362h16v16h-16z" fill="none"/>
		</g>
		<g transform="matrix(1.00001 0 0 1.00002 50.116 -.007)">
			<rect fill="none" height="31.03" ry=".429" transform="matrix(.99835 0 0 .99816 38.8 .627)" width="31.03" x="157.254" y="313.575"/>
			<rect fill="none" height="31.03" ry=".429" width="31.03" x="195.795" y="313.575"/>
			<path d="m204.661 324.657h11.082v11.082h-11.082z" fill="#bebebe"/>
			<g transform="matrix(.70275 .71144 -.71144 .70275 297.397 -51.392)">
				<path d="m210.21004 309.14155-.00867 11.08225 7.52813-5.54112zm-.00867 4.4329a16.62338 16.62338 0 0 0 -16.62338 16.62338h2.21645a14.40693 14.40693 0 0 1 14.40693-14.40693z" fill="#bebebe"/>
				<path d="m210.18868 351.25452.009-11.08226-7.52814 5.54113 7.51948 5.54113zm.009-4.4329a16.62338 16.62338 0 0 0 16.62337-16.62338h-2.21645a14.40692 14.40692 0 0 1 -14.40692 14.40693z" fill="#bebebe"/>
			</g>
			<path d="m193.578 311.358h35.463v35.463h-35.463z" fill="none"/>
		</g>
		<g transform="matrix(1.03897 0 0 1.03898 1.767 -11.217)">
			<rect fill="none" height="32" ry=".442" width="32" x="275.521" y="312.605"/>
			<path d="m275.521 333.938h10.667v10.667h-10.667z" fill="#bebebe"/>
			<g fill="none">
				<rect height="29.867" ry=".435" stroke="#bebebe" stroke-dasharray="4.267 4.267" stroke-dashoffset="1.92" stroke-width="2.133" width="29.867" x="276.588" y="313.672"/>
				<path d="m288.84901 331.27719 11.02393-11.02434" marker-end="url(#a)" stroke="#bebebe" stroke-width="1.493"/>
				<path d="m275.521 310.472h34.133v34.133h-34.133z"/>
			</g>
		</g>
		<g transform="matrix(2.21648 0 0 2.2165 598.334 -1985.736)">
			<path d="m1 1037.3622v14h14v-14z" fill="#bebebe" fill-rule="evenodd"/>
			<path d="m0 1036.362h16v16h-16z" fill="none"/>
		</g>
		<g transform="matrix(2.21648 0 0 2.2165 554.004 -1985.736)">
			<path d="m1 1037.3622v14l14-7z" fill="#bebebe" fill-rule="evenodd"/>
			<path d="m0 1036.362h16v16h-16z" fill="none"/>
		</g>
		<path d="m686.993 311.358h35.464v35.464h-35.464z" fill="none"/>
		<g fill="#bebebe">
			<path d="m695.859 313.574h6.649v6.649h-6.649z"/>
			<path d="m706.941 324.656h6.649v6.649h-6.649z"/>
			<path d="m706.941 335.739h6.649v6.649h-6.649z"/>
		</g>
		<g fill="none" stroke="#bebebe" stroke-width="2.216">
			<path d="m706.94127 327.98119h-6.64943"/>
			<path d="m699.1836 320.22348v17.73197"/>
			<path d="m706.94127 339.06367h-8.86592"/>
		</g>
		<g opacity=".99">
			<path d="m642.663 311.358h35.464v35.464h-35.464z" fill="none" opacity="1"/>
			<g fill="#bebebe" transform="translate(0 2.216)">
				<path d="m648.75859 324.65669-3.87884 2.21649 15.51535 8.86599 15.51535-8.86599-3.87883-2.21649-11.63652 6.64949z" opacity="1"/>
				<path d="m694.085-66.527h17.87v17.87h-17.87z" opacity="1" transform="matrix(.86824 .49614 -.86824 .49614 0 0)"/>
				<path d="m648.75859 331.30618-3.87884 2.21649 15.51535 8.86599 15.51535-8.86599-3.87883-2.21649-11.63652 6.64949z" opacity="1"/>
			</g>
		</g>
		<path d="m749.05424 318.74605a15.51533 10.34367 0 0 0 -15.51535 10.34365 15.51533 10.34367 0 0 0 15.51535 10.34365 15.51533 10.34367 0 0 0 15.51536-10.34365 15.51533 10.34367 0 0 0 -15.51536-10.34365zm0 1.72731a14.22239 8.61973 0 0 1 14.22241 8.61634 14.22239 8.61973 0 0 1 -14.22241 8.62139 14.22239 8.61973 0 0 1 -14.2224-8.62139 14.22239 8.61973 0 0 1 14.2224-8.61634z" fill="#bebebe" opacity=".99"/>
		<path d="m749.05427 321.97844a7.1112 7.11126 0 0 0 -7.11123 7.11123 7.1112 7.11126 0 0 0 7.11123 7.11129 7.1112 7.11126 0 0 0 7.11119-7.11129 7.1112 7.11126 0 0 0 -7.11119-7.11123zm0 3.55564a3.5556 3.55563 0 0 1 3.5556 3.55559 3.5556 3.55563 0 0 1 -3.5556 3.55564 3.5556 3.55563 0 0 1 -3.55562-3.55564 3.5556 3.55563 0 0 1 3.55562-3.55559z" fill="#bebebe" opacity=".99"/>
		<path d="m731.322 311.358h35.464v35.464h-35.464z" fill="none" opacity=".99"/>
		<path d="m775.652 311.358h35.464v35.464h-35.464z" fill="none" opacity=".99"/>
		<path d="m784.51792 329.09011v13.29898h17.73183v-13.29898zm8.86592 2.21649c1.39901-.00001 2.53313 1.15775 2.53313 2.58591-.00072.92312-.48343 1.77585-1.26656 2.23741v4.04268h-2.53315v-4.04772c-.7816-.46066-1.26407-1.31105-1.26654-2.23237 0-1.42816 1.13412-2.58591 2.53312-2.58591z" fill="#bebebe" opacity=".99"/>
		<path d="m787.84264 329.09011v-8.86598c0-3.47123 11.08239-3.47123 11.08239 0v8.86598" fill="none" stroke="#bebebe" stroke-width="2.216"/>
	</g>
</svg>
