<?xml version="1.0" encoding="UTF-8"?>
<svg height="16px" viewBox="0 0 16 16" width="16px" xmlns="http://www.w3.org/2000/svg" xmlns:xlink="http://www.w3.org/1999/xlink">
    <clipPath id="a">
        <path d="m 0 0 h 512 v 512 h -512 z"/>
    </clipPath>
    <path d="m 4 8 v 6 h 8 v -6 z m 4 1 c 0.632812 0 1.144531 0.523438 1.144531 1.167969 c -0.003906 0.414062 -0.21875 0.800781 -0.574219 1.007812 v 1.824219 h -1.140624 v -1.824219 c -0.355469 -0.210937 -0.570313 -0.59375 -0.574219 -1.007812 c 0 -0.644531 0.511719 -1.167969 1.144531 -1.167969 z m 0 0"/>
    <path d="m 8 2.324219 c -1.5 0 -3 0.429687 -3 1.289062 v 4.386719 h 1 v -3.457031 c 0 -1.355469 4 -1.355469 4 0 v 3.457031 h 1 v -4.386719 c 0 -0.859375 -1.5 -1.289062 -3 -1.289062 z m 0 0" fill-rule="evenodd"/>
    <g clip-path="url(#a)" transform="matrix(1 0 0 1 -60 0)">
        <path d="m 42.570312 90 h 7.859376 c 0.316406 0 0.570312 0.253906 0.570312 0.570312 v 3.847657 c 0 0.316406 -0.253906 0.570312 -0.570312 0.570312 h -7.859376 c -0.316406 0 -0.570312 -0.253906 -0.570312 -0.570312 v -3.847657 c 0 -0.316406 0.253906 -0.570312 0.570312 -0.570312 z m 0 0"/>
    </g>
</svg>
