<?xml version="1.0" encoding="UTF-8"?>
<svg height="16px" viewBox="0 0 16 16" width="16px" xmlns="http://www.w3.org/2000/svg" xmlns:xlink="http://www.w3.org/1999/xlink">
    <clipPath id="a">
        <path d="m 0 0 h 512 v 512 h -512 z"/>
    </clipPath>
    <path d="m 1.898438 1 c -0.5 0 -0.898438 0.398438 -0.898438 0.898438 v 12.203124 c 0 0.5 0.398438 0.898438 0.898438 0.898438 h 12.203124 c 0.5 0 0.898438 -0.398438 0.898438 -0.898438 v -12.203124 c 0 -0.5 -0.398438 -0.898438 -0.898438 -0.898438 z m 0.601562 2 h 2 v 6 h -2 z m 5.5 4 c 0.550781 0 1 0.449219 1 1 s -0.449219 1 -1 1 s -1 -0.449219 -1 -1 s 0.449219 -1 1 -1 z m 3.5 0 h 2 v 6 h -2 z m 0 0"/>
    <g clip-path="url(#a)" transform="matrix(1 0 0 1 -40 -160)">
        <path d="m 42.570312 90 h 7.859376 c 0.316406 0 0.570312 0.253906 0.570312 0.570312 v 3.847657 c 0 0.316406 -0.253906 0.570312 -0.570312 0.570312 h -7.859376 c -0.316406 0 -0.570312 -0.253906 -0.570312 -0.570312 v -3.847657 c 0 -0.316406 0.253906 -0.570312 0.570312 -0.570312 z m 0 0"/>
    </g>
</svg>
