<?xml version="1.0" encoding="UTF-8"?>
<svg height="16px" viewBox="0 0 16 16" width="16px" xmlns="http://www.w3.org/2000/svg" xmlns:xlink="http://www.w3.org/1999/xlink">
    <clipPath id="a">
        <path d="m 0 0 h 512 v 512 h -512 z"/>
    </clipPath>
    <path d="m 2.5 1 c -0.828125 0 -1.5 0.671875 -1.5 1.5 c 0 0.636719 0.402344 1.203125 1 1.414062 v 2.671876 c -0.597656 0.210937 -1 0.777343 -1 1.414062 s 0.402344 1.203125 1 1.414062 v 2.671876 c -0.597656 0.210937 -1 0.777343 -1 1.414062 c 0 0.828125 0.671875 1.5 1.5 1.5 c 0.636719 0 1.203125 -0.402344 1.414062 -1 h 2.671876 c 0.210937 0.597656 0.777343 1 1.414062 1 s 1.203125 -0.402344 1.414062 -1 h 2.671876 c 0.210937 0.597656 0.777343 1 1.414062 1 c 0.828125 0 1.5 -0.671875 1.5 -1.5 c 0 -0.636719 -0.402344 -1.203125 -1 -1.414062 v -2.671876 c 0.597656 -0.210937 1 -0.777343 1 -1.414062 s -0.402344 -1.203125 -1 -1.414062 v -2.671876 c 0.597656 -0.210937 1 -0.777343 1 -1.414062 c 0 -0.828125 -0.671875 -1.5 -1.5 -1.5 c -0.070312 0 -0.136719 0.003906 -0.203125 0.015625 c -0.558594 0.074219 -1.023437 0.457031 -1.210937 0.984375 h -2.671876 c -0.210937 -0.597656 -0.777343 -1 -1.414062 -1 s -1.203125 0.402344 -1.414062 1 h -2.671876 c -0.210937 -0.597656 -0.777343 -1 -1.414062 -1 z m 0 1 c 0.277344 0 0.5 0.222656 0.5 0.5 s -0.222656 0.5 -0.5 0.5 s -0.5 -0.222656 -0.5 -0.5 c 0 -0.023438 0 -0.042969 0.003906 -0.066406 c 0.03125 -0.246094 0.246094 -0.433594 0.496094 -0.433594 z m 5.5 0 c 0.277344 0 0.5 0.222656 0.5 0.5 s -0.222656 0.5 -0.5 0.5 s -0.5 -0.222656 -0.5 -0.5 s 0.222656 -0.5 0.5 -0.5 z m 5.5 0 c 0.277344 0 0.5 0.222656 0.5 0.5 s -0.222656 0.5 -0.5 0.5 c -0.023438 0 -0.042969 0 -0.0625 -0.003906 c -0.25 -0.03125 -0.4375 -0.246094 -0.4375 -0.496094 c 0 -0.023438 0 -0.042969 0.003906 -0.066406 c 0.03125 -0.246094 0.246094 -0.433594 0.496094 -0.433594 z m -9.585938 1 h 2.671876 c 0.019531 0.050781 0.039062 0.097656 0.058593 0.148438 l -3.496093 3.5 s 0 0 -0.003907 0 c -0.046875 -0.023438 -0.09375 -0.042969 -0.144531 -0.0625 v -2.671876 c 0.425781 -0.152343 0.761719 -0.488281 0.914062 -0.914062 z m 5.5 0 h 2.671876 c 0.019531 0.050781 0.039062 0.097656 0.058593 0.148438 l -3.496093 3.5 s 0 0 -0.003907 0 c -0.046875 -0.023438 -0.09375 -0.042969 -0.144531 -0.0625 v -2.671876 c 0.425781 -0.152343 0.761719 -0.488281 0.914062 -0.914062 z m -2.058593 0.855469 c 0.046875 0.019531 0.09375 0.042969 0.144531 0.058593 v 2.671876 c -0.425781 0.152343 -0.761719 0.488281 -0.914062 0.914062 h -2.671876 c -0.015624 -0.050781 -0.039062 -0.101562 -0.058593 -0.148438 z m 5.5 0 c 0.046875 0.019531 0.09375 0.042969 0.144531 0.058593 v 2.671876 c -0.425781 0.152343 -0.761719 0.488281 -0.914062 0.914062 h -2.671876 c -0.015624 -0.050781 -0.039062 -0.101562 -0.058593 -0.148438 z m -10.355469 3.644531 c 0.277344 0 0.5 0.222656 0.5 0.5 s -0.222656 0.5 -0.5 0.5 s -0.5 -0.222656 -0.5 -0.5 s 0.222656 -0.5 0.5 -0.5 z m 5.5 0 c 0.277344 0 0.5 0.222656 0.5 0.5 s -0.222656 0.5 -0.5 0.5 s -0.5 -0.222656 -0.5 -0.5 s 0.222656 -0.5 0.5 -0.5 z m 5.5 0 c 0.277344 0 0.5 0.222656 0.5 0.5 s -0.222656 0.5 -0.5 0.5 s -0.5 -0.222656 -0.5 -0.5 s 0.222656 -0.5 0.5 -0.5 z m -9.585938 1 h 2.671876 c 0.019531 0.050781 0.039062 0.097656 0.058593 0.148438 l -3.496093 3.5 s 0 0 -0.003907 0 c -0.046875 -0.023438 -0.09375 -0.042969 -0.144531 -0.0625 v -2.671876 c 0.425781 -0.152343 0.761719 -0.488281 0.914062 -0.914062 z m 5.5 0 h 2.671876 c 0.019531 0.050781 0.039062 0.097656 0.058593 0.148438 l -3.496093 3.5 s 0 0 -0.003907 0 c -0.046875 -0.023438 -0.09375 -0.042969 -0.144531 -0.0625 v -2.671876 c 0.425781 -0.152343 0.761719 -0.488281 0.914062 -0.914062 z m -2.058593 0.855469 c 0.046875 0.019531 0.09375 0.042969 0.144531 0.058593 v 2.671876 c -0.363281 0.128906 -0.664062 0.394531 -0.839844 0.738281 c -0.027344 0.058593 -0.054687 0.117187 -0.074218 0.175781 h -2.671876 c -0.015624 -0.050781 -0.039062 -0.101562 -0.058593 -0.148438 z m 5.5 0 c 0.046875 0.019531 0.09375 0.042969 0.144531 0.058593 v 2.671876 c -0.425781 0.152343 -0.761719 0.488281 -0.914062 0.914062 h -2.671876 c -0.015624 -0.050781 -0.039062 -0.101562 -0.058593 -0.148438 z m -10.355469 3.644531 c 0.277344 0 0.5 0.222656 0.5 0.5 s -0.222656 0.5 -0.5 0.5 s -0.5 -0.222656 -0.5 -0.5 s 0.222656 -0.5 0.5 -0.5 z m 5.5 0 c 0.277344 0 0.5 0.222656 0.5 0.5 s -0.222656 0.5 -0.5 0.5 c -0.023438 0 -0.042969 0 -0.0625 -0.003906 c -0.25 -0.03125 -0.4375 -0.246094 -0.4375 -0.496094 c 0 -0.023438 0 -0.042969 0.003906 -0.066406 c 0.03125 -0.246094 0.246094 -0.433594 0.496094 -0.433594 z m 5.5 0 c 0.277344 0 0.5 0.222656 0.5 0.5 s -0.222656 0.5 -0.5 0.5 s -0.5 -0.222656 -0.5 -0.5 s 0.222656 -0.5 0.5 -0.5 z m 0 0"/>
    <g clip-path="url(#a)" transform="matrix(1 0 0 1 -60 -180)">
        <path d="m 42.570312 90 h 7.859376 c 0.316406 0 0.570312 0.253906 0.570312 0.570312 v 3.847657 c 0 0.316406 -0.253906 0.570312 -0.570312 0.570312 h -7.859376 c -0.316406 0 -0.570312 -0.253906 -0.570312 -0.570312 v -3.847657 c 0 -0.316406 0.253906 -0.570312 0.570312 -0.570312 z m 0 0"/>
    </g>
</svg>
