<?xml version="1.0" encoding="UTF-8"?>
<svg height="16px" viewBox="0 0 16 16" width="16px" xmlns="http://www.w3.org/2000/svg" xmlns:xlink="http://www.w3.org/1999/xlink">
    <clipPath id="a">
        <path d="m 0 0 h 512 v 512 h -512 z"/>
    </clipPath>
    <path d="m 2.28125 1 c -0.707031 0 -1.28125 0.570312 -1.28125 1.285156 v 8.007813 l 2.234375 -6.707031 h 2.28125 l 2.976563 8.714843 h -1.933594 l -0.65625 -2.019531 h -3.015625 l -0.636719 2.019531 h -1.25 v 1.417969 c 0 0.707031 0.574219 1.28125 1.28125 1.28125 h 11.433594 c 0.710937 0 1.285156 -0.574219 1.285156 -1.28125 v -2.273438 c -0.171875 0.234376 -0.375 0.429688 -0.605469 0.585938 c -0.390625 0.253906 -0.832031 0.382812 -1.324219 0.382812 c -0.34375 0 -0.636718 -0.0625 -0.875 -0.183593 c -0.238281 -0.117188 -0.4375 -0.265625 -0.589843 -0.441407 c -0.144531 -0.179687 -0.261719 -0.359374 -0.34375 -0.535156 h -0.074219 v 1.046875 h -1.683594 v -8.714843 h 1.710938 v 3.277343 h 0.050781 c 0.074219 -0.171875 0.1875 -0.351562 0.332031 -0.535156 c 0.144532 -0.179687 0.339844 -0.335937 0.582032 -0.460937 c 0.242187 -0.121094 0.542968 -0.1875 0.90625 -0.1875 c 0.46875 0 0.902343 0.125 1.292968 0.375 c 0.234375 0.148437 0.441406 0.347656 0.621094 0.585937 v -4.355469 c 0 -0.714844 -0.574219 -1.285156 -1.28125 -1.285156 z m 2.074219 3.984375 c -0.140625 0.601563 -0.273438 1.160156 -0.402344 1.679687 c -0.128906 0.519532 -0.257813 0.996094 -0.390625 1.433594 l -0.242188 0.78125 h 2.132813 l -0.257813 -0.78125 c -0.136718 -0.445312 -0.273437 -0.925781 -0.410156 -1.445312 c -0.136718 -0.519532 -0.28125 -1.074219 -0.429687 -1.667969 z m 8.191406 2.101563 c -0.4375 0 -0.78125 0.175781 -1.019531 0.53125 c -0.234375 0.355468 -0.355469 0.828124 -0.355469 1.421874 s 0.121094 1.070313 0.359375 1.429688 c 0.242188 0.355469 0.582031 0.535156 1.015625 0.535156 c 0.445313 0 0.785156 -0.183594 1.015625 -0.550781 c 0.234375 -0.363281 0.351562 -0.835937 0.351562 -1.414063 c 0 -0.574218 -0.113281 -1.042968 -0.347656 -1.40625 c -0.230468 -0.363281 -0.570312 -0.546874 -1.019531 -0.546874 z m 0 0"/>
    <g clip-path="url(#a)" transform="matrix(1 0 0 1 -20 -140)">
        <path d="m 42.570312 90 h 7.859376 c 0.316406 0 0.570312 0.253906 0.570312 0.570312 v 3.847657 c 0 0.316406 -0.253906 0.570312 -0.570312 0.570312 h -7.859376 c -0.316406 0 -0.570312 -0.253906 -0.570312 -0.570312 v -3.847657 c 0 -0.316406 0.253906 -0.570312 0.570312 -0.570312 z m 0 0"/>
    </g>
</svg>
