<?xml version="1.0" encoding="UTF-8"?>
<svg height="16px" viewBox="0 0 16 16" width="16px" xmlns="http://www.w3.org/2000/svg" xmlns:xlink="http://www.w3.org/1999/xlink">
    <clipPath id="a">
        <path d="m 0 0 h 512 v 512 h -512 z"/>
    </clipPath>
    <path d="m 2 15 h 12 c 0.550781 0 1 -0.449219 1 -1 v -2 c 0 -0.550781 -0.449219 -1 -1 -1 h -12 c -0.550781 0 -1 0.449219 -1 1 v 2 c 0 0.550781 0.449219 1 1 1 z m 0 0"/>
    <path d="m 2 10 h 5 c 0.550781 0 1 -0.449219 1 -1 v -7 c 0 -0.550781 -0.449219 -1 -1 -1 h -5 c -0.550781 0 -1 0.449219 -1 1 v 7 c 0 0.550781 0.449219 1 1 1 z m 0 0"/>
    <path d="m 10 10 h 4 c 0.550781 0 1 -0.449219 1 -1 v -2 c 0 -0.550781 -0.449219 -1 -1 -1 h -4 c -0.550781 0 -1 0.449219 -1 1 v 2 c 0 0.550781 0.449219 1 1 1 z m 0 0"/>
    <path d="m 10 5 h 4 c 0.550781 0 1 -0.449219 1 -1 v -2 c 0 -0.550781 -0.449219 -1 -1 -1 h -4 c -0.550781 0 -1 0.449219 -1 1 v 2 c 0 0.550781 0.449219 1 1 1 z m 0 0"/>
    <g clip-path="url(#a)" transform="matrix(1 0 0 1 -40 -180)">
        <path d="m 42.570312 90 h 7.859376 c 0.316406 0 0.570312 0.253906 0.570312 0.570312 v 3.847657 c 0 0.316406 -0.253906 0.570312 -0.570312 0.570312 h -7.859376 c -0.316406 0 -0.570312 -0.253906 -0.570312 -0.570312 v -3.847657 c 0 -0.316406 0.253906 -0.570312 0.570312 -0.570312 z m 0 0"/>
    </g>
</svg>
