<?xml version="1.0" encoding="UTF-8"?>
<svg height="16px" viewBox="0 0 16 16" width="16px" xmlns="http://www.w3.org/2000/svg" xmlns:xlink="http://www.w3.org/1999/xlink">
    <clipPath id="a">
        <path d="m 0 0 h 512 v 512 h -512 z"/>
    </clipPath>
    <path d="m 3 2 c -1.109375 0 -2 0.890625 -2 2 v 4 c 0 0.089844 0.007812 0.175781 0.019531 0.261719 v 3.75 c 0 1.105469 0.890625 2 1.996094 2 h 9.988281 c 1.105469 0 1.996094 -0.894531 1.996094 -2 v -5.992188 c 0 -1.109375 -0.894531 -1.917969 -1.996094 -2.019531 h -4.003906 l -2 -2 z m 0 0"/>
    <g clip-path="url(#a)" transform="matrix(1 0 0 1 -20 -100)">
        <path d="m 42.570312 90 h 7.859376 c 0.316406 0 0.570312 0.253906 0.570312 0.570312 v 3.847657 c 0 0.316406 -0.253906 0.570312 -0.570312 0.570312 h -7.859376 c -0.316406 0 -0.570312 -0.253906 -0.570312 -0.570312 v -3.847657 c 0 -0.316406 0.253906 -0.570312 0.570312 -0.570312 z m 0 0"/>
    </g>
</svg>
