<?xml version="1.0" encoding="UTF-8"?>
<svg height="16px" viewBox="0 0 16 16" width="16px" xmlns="http://www.w3.org/2000/svg" xmlns:xlink="http://www.w3.org/1999/xlink">
    <clipPath id="a">
        <path d="m 0 0 h 512 v 512 h -512 z"/>
    </clipPath>
    <path d="m 2.28125 1 c -0.707031 0 -1.28125 0.570312 -1.28125 1.285156 v 11.433594 c 0 0.707031 0.574219 1.28125 1.28125 1.28125 h 11.4375 c 0.707031 0 1.28125 -0.574219 1.28125 -1.28125 v -11.433594 c 0 -0.714844 -0.574219 -1.285156 -1.28125 -1.285156 z m 6.085938 0.796875 l 1.125 1.976563 l 2.265624 0.195312 l -1.527343 1.675781 l 0.515625 2.214844 l -2.074219 -0.933594 l -1.945313 1.175781 l 0.25 -2.257812 l -1.71875 -1.488281 l 2.226563 -0.460938 z m -2.582032 6.621094 c 0.066406 0 0.128906 0.03125 0.160156 0.097656 l 1.738282 3.761719 c 0.039062 0.085937 0.003906 0.1875 -0.082032 0.226562 l -3.640624 1.683594 c -0.085938 0.039062 -0.1875 0 -0.226563 -0.085938 l -1.738281 -3.761718 c -0.042969 -0.085938 -0.003906 -0.1875 0.082031 -0.226563 l 3.640625 -1.679687 c 0.019531 -0.011719 0.042969 -0.015625 0.066406 -0.015625 z m 5.765625 0.246093 c 0.960938 -0.039062 1.847657 0.507813 2.25 1.378907 c 0.550781 1.191406 0.03125 2.601562 -1.160156 3.152343 c -1.191406 0.550782 -2.601563 0.03125 -3.152344 -1.160156 s -0.03125 -2.605468 1.160157 -3.15625 c 0.285156 -0.128906 0.589843 -0.203125 0.902343 -0.214844 z m 0 0"/>
    <g clip-path="url(#a)" transform="matrix(1 0 0 1 0 -160)">
        <path d="m 42.570312 90 h 7.859376 c 0.316406 0 0.570312 0.253906 0.570312 0.570312 v 3.847657 c 0 0.316406 -0.253906 0.570312 -0.570312 0.570312 h -7.859376 c -0.316406 0 -0.570312 -0.253906 -0.570312 -0.570312 v -3.847657 c 0 -0.316406 0.253906 -0.570312 0.570312 -0.570312 z m 0 0"/>
    </g>
</svg>
