<?xml version="1.0" encoding="UTF-8" standalone="no"?>
<svg
   height="16.003906px"
   viewBox="0 0 16 16.003906"
   width="16px"
   version="1.1"
   id="svg8"
   sodipodi:docname="snap-to-grid-symbolic.svg"
   inkscape:version="1.3.2 (091e20ef0f, 2023-11-25, custom)"
   xmlns:inkscape="http://www.inkscape.org/namespaces/inkscape"
   xmlns:sodipodi="http://sodipodi.sourceforge.net/DTD/sodipodi-0.dtd"
   xmlns="http://www.w3.org/2000/svg"
   xmlns:svg="http://www.w3.org/2000/svg">
  <defs
     id="defs8" />
  <sodipodi:namedview
     id="namedview8"
     pagecolor="#ffffff"
     bordercolor="#666666"
     borderopacity="1.0"
     inkscape:showpageshadow="2"
     inkscape:pageopacity="0.0"
     inkscape:pagecheckerboard="0"
     inkscape:deskcolor="#d1d1d1"
     showgrid="false"
     inkscape:zoom="71.670002"
     inkscape:cx="8.0019531"
     inkscape:cy="8.0019531"
     inkscape:window-width="2560"
     inkscape:window-height="1371"
     inkscape:window-x="0"
     inkscape:window-y="32"
     inkscape:window-maximized="1"
     inkscape:current-layer="svg8" />
  <clipPath
     id="a">
    <path
       d="m 0 0 h 512 v 512 h -512 z"
       id="path1" />
  </clipPath>
  <path
     d="m 7.027344 9.003906 h 7.945312 c 0.015625 0 0.027344 0.011719 0.027344 0.027344 v 0.945312 c 0 0.015626 -0.011719 0.027344 -0.027344 0.027344 h -7.945312 c -0.015625 0 -0.027344 -0.011718 -0.027344 -0.027344 v -0.945312 c 0 -0.015625 0.011719 -0.027344 0.027344 -0.027344 z m 0 0"
     id="path2" />
  <path
     d="m 7.027344 12.003906 h 7.945312 c 0.015625 0 0.027344 0.011719 0.027344 0.027344 v 0.945312 c 0 0.015626 -0.011719 0.027344 -0.027344 0.027344 h -7.945312 c -0.015625 0 -0.027344 -0.011718 -0.027344 -0.027344 v -0.945312 c 0 -0.015625 0.011719 -0.027344 0.027344 -0.027344 z m 0 0"
     id="path3" />
  <path
     d="m 10 7.03125 v 7.945312 c 0 0.015626 -0.011719 0.027344 -0.027344 0.027344 h -0.945312 c -0.015625 0 -0.027344 -0.011718 -0.027344 -0.027344 v -7.945312 c 0 -0.015625 0.011719 -0.027344 0.027344 -0.027344 h 0.945312 c 0.015625 0 0.027344 0.011719 0.027344 0.027344 z m 0 0"
     id="path4" />
  <path
     d="m 13 7.03125 v 7.945312 c 0 0.015626 -0.011719 0.027344 -0.027344 0.027344 h -0.945312 c -0.015625 0 -0.027344 -0.011718 -0.027344 -0.027344 v -7.945312 c 0 -0.015625 0.011719 -0.027344 0.027344 -0.027344 h 0.945312 c 0.015625 0 0.027344 0.011719 0.027344 0.027344 z m 0 0"
     id="path5" />
  <path
     d="m 5.859375 0.910156 c -1.273437 -1.273437 -3.417969 -1.199218 -4.78125 0.167969 c -1.367187 1.367187 -1.445313 3.507813 -0.167969 4.785156 l 1.40625 1.40625 l 1.484375 -1.488281 l -1.40625 -1.40625 c -0.511719 -0.507812 -0.480469 -1.363281 0.066407 -1.910156 c 0.546874 -0.546875 1.402343 -0.578125 1.914062 -0.066406 l 1.40625 1.40625 l 1.484375 -1.488282 z m 0 0"
     fill="#e01b24"
     id="path6"
     class="error" />
  <path
     d="m 7.578125 2.632812 l -1.484375 1.484376 l 0.921875 0.921874 l 1.484375 -1.484374 z m -3.464844 3.464844 l -1.484375 1.484375 l 0.921875 0.921875 l 1.484375 -1.484375 z m 0 0"
     id="path7" />
  <g
     clip-path="url(#a)"
     transform="matrix(1 0 0 1 -160 -19.996094)"
     id="g8">
    <path
       d="m 42.570312 90 h 7.859376 c 0.316406 0 0.570312 0.253906 0.570312 0.570312 v 3.847657 c 0 0.316406 -0.253906 0.570312 -0.570312 0.570312 h -7.859376 c -0.316406 0 -0.570312 -0.253906 -0.570312 -0.570312 v -3.847657 c 0 -0.316406 0.253906 -0.570312 0.570312 -0.570312 z m 0 0"
       id="path8" />
  </g>
</svg>
