<?xml version="1.0" encoding="UTF-8"?>
<svg height="16px" viewBox="0 0 16 16" width="16px" xmlns="http://www.w3.org/2000/svg" xmlns:xlink="http://www.w3.org/1999/xlink">
    <clipPath id="a">
        <path d="m 0 0 h 512 v 512 h -512 z"/>
    </clipPath>
    <path d="m 4.785156 1.933594 c -1.382812 -0.015625 -2.789062 0.953125 -3.652344 2.992187 c -0.949218 4.765625 3.382813 4.953125 6.878907 9.140625 c 3.496093 -4.1875 7.800781 -4.375 6.855469 -9.140625 c -1.625 -3.839843 -5.175782 -3.875 -6.867188 -0.730469 c -0.792969 -1.472656 -1.996094 -2.25 -3.214844 -2.261718 z m 0 0" fill-rule="evenodd"/>
    <g clip-path="url(#a)" transform="matrix(1 0 0 1 -60 -100)">
        <path d="m 42.570312 90 h 7.859376 c 0.316406 0 0.570312 0.253906 0.570312 0.570312 v 3.847657 c 0 0.316406 -0.253906 0.570312 -0.570312 0.570312 h -7.859376 c -0.316406 0 -0.570312 -0.253906 -0.570312 -0.570312 v -3.847657 c 0 -0.316406 0.253906 -0.570312 0.570312 -0.570312 z m 0 0"/>
    </g>
</svg>
