<?xml version="1.0" encoding="UTF-8"?>
<svg height="16px" viewBox="0 0 16 16" width="16px" xmlns="http://www.w3.org/2000/svg" xmlns:xlink="http://www.w3.org/1999/xlink">
    <clipPath id="a">
        <path d="m 0 0 h 512 v 512 h -512 z"/>
    </clipPath>
    <path d="m 8 1 l -7 13.996094 h 4.132812 l 0.113282 -0.222656 l 0.167968 0.222656 h 0.898438 c -0.003906 -0.078125 0.015625 -0.160156 0.050781 -0.230469 c 0.125 -0.246094 0.421875 -0.347656 0.671875 -0.222656 c 0.171875 0.085937 0.277344 0.261719 0.277344 0.453125 h 0.632812 l -0.464843 -0.230469 l 0.449219 -0.894531 l 0.894531 0.445312 l 0.445312 -0.894531 l -0.894531 -0.445313 l 0.449219 -0.894531 l 0.894531 0.445313 l 0.445312 -0.890625 l -0.890624 -0.449219 l 0.445312 -0.894531 l 0.894531 0.449219 l 0.449219 -0.894532 l -0.894531 -0.449218 l 0.445312 -0.894532 l 0.894531 0.449219 l 0.234376 -0.472656 l -0.351563 -0.707031 l -0.328125 -0.164063 l 0.121094 -0.246094 z m 1.71875 4.832031 l 0.671875 0.894531 l -1.117187 -0.011718 z m 0.640625 1.503907 c 0.085937 -0.003907 0.175781 0.011718 0.253906 0.050781 c 0.117188 0.058593 0.207031 0.164062 0.25 0.289062 s 0.03125 0.265625 -0.027343 0.382813 c -0.125 0.246094 -0.421876 0.34375 -0.667969 0.222656 c -0.25 -0.125 -0.347657 -0.421875 -0.226563 -0.667969 c 0.078125 -0.160156 0.238282 -0.265625 0.417969 -0.277343 z m -1.535156 0.285156 l 0.671875 0.894531 l -1.117188 -0.011719 z m 0.640625 1.503906 c 0.085937 -0.007812 0.175781 0.011719 0.253906 0.050781 c 0.117188 0.058594 0.207031 0.164063 0.25 0.289063 s 0.03125 0.265625 -0.027344 0.382812 c -0.125 0.246094 -0.421875 0.34375 -0.667968 0.222656 c -0.25 -0.125 -0.347657 -0.421874 -0.226563 -0.671874 c 0.078125 -0.160157 0.238281 -0.261719 0.417969 -0.273438 z m -1.535156 0.285156 l 0.671874 0.894532 l -1.117187 -0.011719 z m 4.023437 0.882813 l -0.445313 0.894531 l 0.894532 0.449219 l 0.445312 -0.894531 z m -3.382813 0.617187 c 0.085938 -0.003906 0.175782 0.015625 0.253907 0.054688 c 0.246093 0.125 0.34375 0.421875 0.222656 0.667968 c -0.125 0.25 -0.421875 0.347657 -0.667969 0.226563 c -0.121094 -0.058594 -0.210937 -0.164063 -0.253906 -0.289063 s -0.03125 -0.265624 0.027344 -0.382812 c 0.078125 -0.160156 0.238281 -0.265625 0.417968 -0.277344 z m -1.535156 0.285156 l 0.671875 0.894532 l -1.117187 -0.007813 z m 6.382813 0.640626 l -0.121094 0.246093 l 0.328125 0.167969 z m -2.359375 0.246093 l -0.445313 0.894531 l 0.894531 0.445313 l 0.445313 -0.890625 z m -3.382813 0.617188 c 0.085938 -0.003907 0.175781 0.015625 0.253907 0.054687 c 0.246093 0.121094 0.34375 0.421875 0.222656 0.667969 c -0.058594 0.121094 -0.164063 0.210937 -0.289063 0.253906 s -0.265625 0.03125 -0.382812 -0.027343 c -0.117188 -0.058594 -0.207031 -0.164063 -0.25 -0.289063 c -0.042969 -0.128906 -0.03125 -0.265625 0.027343 -0.382813 c 0.078126 -0.160156 0.238282 -0.265624 0.417969 -0.277343 z m 5.171875 0.277343 l -0.445312 0.894532 l 0.894531 0.449218 l 0.445313 -0.894531 z m -6.707031 0.011719 l 0.671875 0.894531 l -1.117188 -0.011718 z m 4.023437 0.882813 l -0.445312 0.894531 l 0.464844 0.234375 h 0.535156 l 0.339844 -0.679688 z m 4.375 0.203125 l -0.347656 0.695312 l 0.460938 0.230469 h 0.347656 z m -2.585937 0.691406 l -0.117187 0.234375 h 0.582031 z m 0 0"/>
    <g clip-path="url(#a)" transform="matrix(1 0 0 1 -20 -180)">
        <path d="m 42.570312 90 h 7.859376 c 0.316406 0 0.570312 0.253906 0.570312 0.570312 v 3.847657 c 0 0.316406 -0.253906 0.570312 -0.570312 0.570312 h -7.859376 c -0.316406 0 -0.570312 -0.253906 -0.570312 -0.570312 v -3.847657 c 0 -0.316406 0.253906 -0.570312 0.570312 -0.570312 z m 0 0"/>
    </g>
</svg>
