<?xml version="1.0" encoding="UTF-8"?>
<svg height="16px" viewBox="0 0 16 16" width="16px" xmlns="http://www.w3.org/2000/svg" xmlns:xlink="http://www.w3.org/1999/xlink">
    <clipPath id="a">
        <path d="m 0 0 h 512 v 512 h -512 z"/>
    </clipPath>
    <path d="m 1.867188 5.882812 c -0.449219 0 -0.8125 0.363282 -0.8125 0.8125 v 7.375 c 0 0.453126 0.363281 0.8125 0.8125 0.8125 h 12.375 c 0.449218 0 0.8125 -0.359374 0.8125 -0.8125 v -7.375 c 0 -0.449218 -0.363282 -0.8125 -0.8125 -0.8125 z m 3.53125 1.953126 l 5.3125 2.546874 l -5.3125 2.546876 z m 0 0"/>
    <path d="m 1.523438 2.628906 l 12.597656 -1.507812 c 0.359375 -0.042969 0.6875 0.214844 0.730468 0.574218 l 0.199219 1.671876 c 0.042969 0.363281 -0.214843 0.6875 -0.574219 0.730468 l -12.597656 1.507813 c -0.359375 0.042969 -0.6875 -0.214844 -0.730468 -0.574219 l -0.199219 -1.671875 c -0.042969 -0.359375 0.214843 -0.6875 0.574219 -0.730469 z m 0 0"/>
    <g clip-path="url(#a)" transform="matrix(1 0 0 1 0 -140)">
        <path d="m 42.570312 90 h 7.859376 c 0.316406 0 0.570312 0.253906 0.570312 0.570312 v 3.847657 c 0 0.316406 -0.253906 0.570312 -0.570312 0.570312 h -7.859376 c -0.316406 0 -0.570312 -0.253906 -0.570312 -0.570312 v -3.847657 c 0 -0.316406 0.253906 -0.570312 0.570312 -0.570312 z m 0 0"/>
    </g>
</svg>
