<?xml version="1.0" encoding="UTF-8"?>
<svg height="16px" viewBox="0 0 16 16" width="16px" xmlns="http://www.w3.org/2000/svg" xmlns:xlink="http://www.w3.org/1999/xlink">
    <clipPath id="a">
        <path d="m 0 0 h 512 v 512 h -512 z"/>
    </clipPath>
    <path d="m 2.285156 1 c -0.710937 0 -1.285156 0.574219 -1.285156 1.285156 v 11.433594 c 0 0.707031 0.574219 1.28125 1.285156 1.28125 h 11.433594 c 0.707031 0 1.28125 -0.574219 1.28125 -1.28125 v -11.433594 c 0 -0.710937 -0.574219 -1.285156 -1.28125 -1.285156 z m 4.253906 1.550781 v 1.332031 c -0.507812 0 -0.847656 0.097657 -1.023437 0.296876 c -0.167969 0.195312 -0.253906 0.503906 -0.253906 0.925781 v 1.277343 c 0 0.214844 -0.039063 0.425782 -0.105469 0.628907 c -0.070312 0.199219 -0.207031 0.378906 -0.40625 0.542969 c -0.199219 0.160156 -0.488281 0.289062 -0.867188 0.382812 v 0.128906 c 0.378907 0.097656 0.667969 0.226563 0.867188 0.390625 c 0.199219 0.160157 0.332031 0.34375 0.40625 0.546875 c 0.066406 0.199219 0.105469 0.40625 0.105469 0.621094 v 1.269531 c 0 0.421875 0.085937 0.734375 0.253906 0.933594 c 0.175781 0.199219 0.515625 0.296875 1.023437 0.296875 v 1.324219 c -0.433593 0 -0.828124 -0.027344 -1.183593 -0.089844 c -0.351563 -0.054687 -0.660157 -0.164063 -0.921875 -0.328125 c -0.257813 -0.164062 -0.457032 -0.402344 -0.597656 -0.71875 c -0.136719 -0.316406 -0.203126 -0.734375 -0.203126 -1.25 v -1.019531 c 0 -0.417969 -0.089843 -0.726563 -0.265624 -0.925781 c -0.171876 -0.199219 -0.472657 -0.304688 -0.902344 -0.320313 h -0.140625 v -1.59375 h 0.140625 c 0.433594 -0.015625 0.738281 -0.125 0.910156 -0.324219 c 0.171875 -0.199218 0.257812 -0.503906 0.257812 -0.917968 v -1.027344 c 0 -0.515625 0.066407 -0.929688 0.203126 -1.246094 c 0.140624 -0.316406 0.339843 -0.558594 0.597656 -0.722656 c 0.261718 -0.164063 0.570312 -0.273438 0.921875 -0.328125 c 0.355469 -0.058594 0.75 -0.085938 1.183593 -0.085938 z m 2.929688 0 c 0.429688 0 0.824219 0.027344 1.179688 0.089844 c 0.355468 0.054687 0.660156 0.164063 0.917968 0.328125 c 0.257813 0.164062 0.457032 0.402344 0.59375 0.71875 c 0.140625 0.316406 0.210938 0.734375 0.210938 1.25 v 1.023438 c 0 0.433593 0.09375 0.75 0.285156 0.949218 c 0.191406 0.195313 0.527344 0.296875 1.007812 0.300782 h 0.011719 v 1.582031 c -0.488281 0.007812 -0.828125 0.105469 -1.019531 0.304687 c -0.191406 0.195313 -0.285156 0.511719 -0.285156 0.949219 v 1.019531 c 0 0.515625 -0.070313 0.929688 -0.210938 1.246094 c -0.136718 0.316406 -0.335937 0.558594 -0.59375 0.722656 c -0.257812 0.164063 -0.5625 0.273438 -0.917968 0.328125 c -0.355469 0.058594 -0.75 0.085938 -1.179688 0.085938 v -1.320313 c 0.503906 0 0.84375 -0.101562 1.015625 -0.300781 c 0.175781 -0.199219 0.261719 -0.507813 0.261719 -0.929687 v -1.273438 c 0 -0.214844 0.035156 -0.421875 0.105468 -0.621094 c 0.070313 -0.203125 0.203126 -0.382812 0.398438 -0.542968 c 0.199219 -0.164063 0.488281 -0.296876 0.867188 -0.390626 v -0.132812 c -0.378907 -0.09375 -0.667969 -0.21875 -0.867188 -0.378906 c -0.195312 -0.164063 -0.328125 -0.347656 -0.398438 -0.546875 c -0.070312 -0.203125 -0.105468 -0.414063 -0.105468 -0.628907 v -1.273437 c 0 -0.417969 -0.085938 -0.726563 -0.261719 -0.925781 c -0.171875 -0.199219 -0.511719 -0.300782 -1.015625 -0.300782 z m 0 0"/>
    <g clip-path="url(#a)" transform="matrix(1 0 0 1 -40 -140)">
        <path d="m 42.570312 90 h 7.859376 c 0.316406 0 0.570312 0.253906 0.570312 0.570312 v 3.847657 c 0 0.316406 -0.253906 0.570312 -0.570312 0.570312 h -7.859376 c -0.316406 0 -0.570312 -0.253906 -0.570312 -0.570312 v -3.847657 c 0 -0.316406 0.253906 -0.570312 0.570312 -0.570312 z m 0 0"/>
    </g>
</svg>
