<?xml version="1.0" encoding="UTF-8"?>
<svg height="16px" viewBox="0 0 16 16" width="16px" xmlns="http://www.w3.org/2000/svg" xmlns:xlink="http://www.w3.org/1999/xlink">
    <clipPath id="a">
        <path d="m 0 0 h 512 v 512 h -512 z"/>
    </clipPath>
    <path d="m 8.367188 1.03125 c -0.488282 0.101562 -1.144532 -0.074219 -1.464844 0.300781 c -0.351563 0.410157 -1.117188 0.695313 -1.050782 1.226563 c 0.074219 0.609375 -0.214843 1.390625 0.226563 1.828125 c 0.3125 0.308593 0.902344 0.496093 0.9375 0.929687 c 0.023437 0.300782 0.050781 0.597656 0.074219 0.894532 c 0.589844 0.015624 1.617187 0.597656 1.765625 0.039062 c 0.09375 -0.339844 0.058593 -0.734375 0.273437 -1.015625 c 0.347656 -0.457031 1.082032 -0.800781 1.042969 -1.371094 c -0.039063 -0.558593 0.355469 -1.355469 -0.113281 -1.675781 c -0.5625 -0.386719 -1.125 -0.769531 -1.691406 -1.15625 z m -1.058594 1.554688 c 0.132812 -0.019532 0.273437 0.027343 0.363281 0.125 c 0.121094 0.128906 0.167969 0.332031 0.089844 0.496093 c -0.050781 0.097657 -0.160157 0.140625 -0.257813 0.191407 c -0.140625 0.070312 -0.308594 0.050781 -0.441406 -0.023438 c -0.136719 -0.078125 -0.246094 -0.214844 -0.257812 -0.371094 c -0.007813 -0.117187 0.050781 -0.242187 0.152343 -0.296875 c 0.054688 -0.03125 0.101563 -0.078125 0.160157 -0.089843 c 0.066406 -0.011719 0.128906 -0.019532 0.191406 -0.03125 z m 1.527344 0.066406 c 0.136718 -0.023438 0.277343 0.03125 0.371093 0.132812 c 0.113281 0.125 0.160157 0.3125 0.089844 0.464844 c -0.035156 0.082031 -0.117187 0.128906 -0.1875 0.179688 c -0.128906 0.089843 -0.304687 0.089843 -0.445313 0.035156 c -0.148437 -0.058594 -0.277343 -0.171875 -0.324218 -0.320313 c -0.03125 -0.109375 0.003906 -0.226562 0.078125 -0.308593 c 0.027343 -0.03125 0.054687 -0.058594 0.089843 -0.078126 c 0.046876 -0.023437 0.085938 -0.066406 0.136719 -0.074218 c 0.0625 -0.011719 0.128907 -0.023438 0.191407 -0.03125 z m -0.914063 0.90625 c 0.113281 0.382812 0.230469 0.765625 0.34375 1.144531 c -0.160156 -0.074219 -0.277344 -0.222656 -0.335937 -0.386719 c -0.078126 -0.210937 -0.074219 -0.445312 -0.03125 -0.664062 c 0.007812 -0.027344 0.015624 -0.0625 0.023437 -0.089844 z m 0 0"/>
    <path d="m 7.878906 6.664062 l -3.324218 0.53125 l -1.066407 0.398438 l -0.371093 1.351562 l -0.058594 1.652344 l 0.082031 2.769532 l 0.898437 1.597656 l -0.027343 -1.890625 l -0.058594 -2.398438 l 0.605469 -1.296875 l 0.246094 -1.253906 l 2.476562 -0.203125 l 0.3125 0.320313 l -0.242188 0.347656 l -2.152343 0.296875 l 0.3125 0.300781 l 1.972656 0.117188 l 0.09375 0.191406 l -0.058594 0.527344 l -2.105469 0.1875 l 0.433594 0.371093 l 1.636719 0.011719 l 0.15625 0.441406 l -0.167969 0.324219 l -1.515625 0.238281 l 0.492188 0.285156 l 1.046875 0.128907 l 0.433594 1.636719 l 0.011718 -5.800782 h -0.027344 z m 0 0"/>
    <path d="m 8.121094 6.664062 l -0.035156 1.1875 h -0.027344 l 0.011718 5.796876 l 0.433594 -1.632813 l 1.046875 -0.132813 l 0.492188 -0.285156 l -1.515625 -0.238281 l -0.167969 -0.320313 l 0.15625 -0.441406 l 1.636719 -0.011718 l 0.433594 -0.371094 l -2.105469 -0.191406 l -0.058594 -0.523438 l 0.09375 -0.191406 l 1.972656 -0.121094 l 0.3125 -0.296875 l -2.152343 -0.296875 l -0.238282 -0.347656 l 0.3125 -0.324219 l 2.476563 0.203125 l 0.242187 1.257812 l 0.609375 1.296876 l -0.0625 2.394531 l -0.027343 1.894531 l 0.898437 -1.601562 l 0.082031 -2.765626 l -0.058594 -1.65625 l -0.371093 -1.351562 l -1.066407 -0.398438 z m 0 0"/>
    <g clip-path="url(#a)" transform="matrix(1 0 0 1 -60 -160)">
        <path d="m 42.570312 90 h 7.859376 c 0.316406 0 0.570312 0.253906 0.570312 0.570312 v 3.847657 c 0 0.316406 -0.253906 0.570312 -0.570312 0.570312 h -7.859376 c -0.316406 0 -0.570312 -0.253906 -0.570312 -0.570312 v -3.847657 c 0 -0.316406 0.253906 -0.570312 0.570312 -0.570312 z m 0 0"/>
    </g>
</svg>
