<?xml version="1.0" encoding="UTF-8"?>
<svg height="16px" viewBox="0 0 16 16" width="16px" xmlns="http://www.w3.org/2000/svg" xmlns:xlink="http://www.w3.org/1999/xlink">
    <clipPath id="a">
        <path d="m 0 0 h 512 v 512 h -512 z"/>
    </clipPath>
    <path d="m 1.898438 1 c -0.5 0 -0.898438 0.398438 -0.898438 0.898438 v 12.203124 c 0 0.5 0.398438 0.898438 0.898438 0.898438 h 12.203124 c 0.5 0 0.898438 -0.398438 0.898438 -0.898438 v -12.203124 c 0 -0.5 -0.398438 -0.898438 -0.898438 -0.898438 z m 5.191406 1.496094 h 1.816406 l 0.46875 1.304687 c 0.214844 0.070313 0.425781 0.152344 0.625 0.253907 l 1.25 -0.585938 l 1.28125 1.28125 l -0.589844 1.25 c 0.101563 0.203125 0.1875 0.414062 0.261719 0.628906 l 1.296875 0.464844 v 1.8125 l -1.296875 0.464844 c -0.074219 0.214844 -0.15625 0.425781 -0.261719 0.628906 l 0.589844 1.25 l -1.28125 1.285156 l -1.25 -0.59375 c -0.199219 0.105469 -0.410156 0.191406 -0.625 0.261719 l -0.46875 1.300781 h -1.816406 l -0.464844 -1.300781 c -0.214844 -0.070313 -0.425781 -0.15625 -0.625 -0.261719 l -1.25 0.59375 l -1.28125 -1.285156 l 0.589844 -1.253906 c -0.105469 -0.199219 -0.191406 -0.410156 -0.261719 -0.625 l -1.296875 -0.464844 v -1.8125 l 1.296875 -0.464844 c 0.070313 -0.214844 0.15625 -0.425781 0.261719 -0.628906 l -0.589844 -1.25 l 1.28125 -1.28125 l 1.25 0.585938 c 0.199219 -0.101563 0.410156 -0.1875 0.625 -0.257813 z m 0.910156 2.789062 c -1.5 0 -2.714844 1.214844 -2.714844 2.714844 s 1.214844 2.714844 2.714844 2.714844 s 2.714844 -1.214844 2.714844 -2.714844 s -1.214844 -2.714844 -2.714844 -2.714844 z m 0 0"/>
    <g clip-path="url(#a)" transform="matrix(1 0 0 1 0 -180)">
        <path d="m 42.570312 90 h 7.859376 c 0.316406 0 0.570312 0.253906 0.570312 0.570312 v 3.847657 c 0 0.316406 -0.253906 0.570312 -0.570312 0.570312 h -7.859376 c -0.316406 0 -0.570312 -0.253906 -0.570312 -0.570312 v -3.847657 c 0 -0.316406 0.253906 -0.570312 0.570312 -0.570312 z m 0 0"/>
    </g>
</svg>
