<?xml version="1.0" encoding="UTF-8"?>
<svg height="16px" viewBox="0 0 16 16" width="16px" xmlns="http://www.w3.org/2000/svg" xmlns:xlink="http://www.w3.org/1999/xlink">
    <clipPath id="a">
        <path d="m 0 0 h 512 v 512 h -512 z"/>
    </clipPath>
    <path d="m 14.46875 11.507812 c -1.597656 2.761719 -4.859375 4.089844 -7.933594 3.234376 c -3.074218 -0.851563 -5.179687 -3.675782 -5.125 -6.867188 c 0.058594 -3.1875 2.265625 -5.9375 5.363282 -6.679688 c 3.101562 -0.746093 6.316406 0.699219 7.816406 3.511719 l -6.179688 3.292969 z m 0 0"/>
    <g clip-path="url(#a)" transform="matrix(1 0 0 1 -20 -160)">
        <path d="m 42.570312 90 h 7.859376 c 0.316406 0 0.570312 0.253906 0.570312 0.570312 v 3.847657 c 0 0.316406 -0.253906 0.570312 -0.570312 0.570312 h -7.859376 c -0.316406 0 -0.570312 -0.253906 -0.570312 -0.570312 v -3.847657 c 0 -0.316406 0.253906 -0.570312 0.570312 -0.570312 z m 0 0"/>
    </g>
</svg>
