<?xml version="1.0" encoding="UTF-8"?>
<svg height="16px" viewBox="0 0 16 16" width="16px" xmlns="http://www.w3.org/2000/svg" xmlns:xlink="http://www.w3.org/1999/xlink">
    <clipPath id="a">
        <path d="m 0 0 h 512 v 512 h -512 z"/>
    </clipPath>
    <path d="m 11.574219 0.964844 c -0.660157 -0.378906 -1.5 -0.152344 -1.875 0.507812 c -0.378907 0.65625 -0.152344 1.496094 0.507812 1.875 c 0.65625 0.378906 1.496094 0.152344 1.875 -0.507812 c 0.378907 -0.660156 0.152344 -1.5 -0.507812 -1.875 z m 2.703125 5.046875 c -0.148438 -0.074219 -0.316406 -0.097657 -0.480469 -0.066407 c -0.003906 0 -0.011719 0 -0.015625 0 l -1.4375 0.277344 c -0.003906 0 -0.003906 0 -0.007812 0 h -0.011719 h -0.003907 c -0.007812 0 -0.011718 0 -0.019531 0 l -0.757812 0.144532 l -0.386719 -1.433594 h -0.003906 c -0.003906 -0.011719 -0.007813 -0.023438 -0.011719 -0.03125 c 0.050781 -0.308594 -0.09375 -0.613282 -0.363281 -0.769532 l -1.21875 -0.699218 l -0.261719 -0.148438 l -1.222656 -0.703125 l -1.28125 -0.734375 c -0.015625 -0.011718 -0.03125 -0.019531 -0.050781 -0.027344 c -0.015626 -0.011718 -0.027344 -0.019531 -0.046876 -0.027343 c -0.359374 -0.207031 -0.816406 -0.082031 -1.023437 0.277343 c 0 0.003907 -0.003906 0.007813 -0.007813 0.015626 l -0.738281 1.285156 c -0.015625 0.027344 -0.027343 0.054687 -0.039062 0.082031 c -0.019531 0.027344 -0.039063 0.050781 -0.054688 0.078125 c 0 0.003906 -0.003906 0.011719 -0.007812 0.015625 l -0.738281 1.285156 c -0.207032 0.359375 -0.082032 0.820313 0.277343 1.023438 c 0.359375 0.207031 0.816407 0.082031 1.023438 -0.277344 l 0.746093 -1.300781 c 0.015626 -0.027344 0.03125 -0.054688 0.042969 -0.085938 c 0.019531 -0.023437 0.035157 -0.050781 0.050781 -0.078125 l 0.375 -0.648437 l 0.746094 0.425781 l 0.496094 0.289063 l -0.507812 0.96875 c -0.003907 0.007812 -0.007813 0.019531 -0.011719 0.027343 c -0.015625 0.027344 -0.03125 0.054688 -0.042969 0.085938 c -0.015625 0.023437 -0.03125 0.050781 -0.046875 0.078125 l -0.6875 1.316406 c -0.003906 0.003906 -0.007813 0.007812 -0.007813 0.011719 c -0.015624 0.03125 -0.03125 0.0625 -0.042968 0.09375 l -0.046875 0.089843 c -0.015625 0.027344 -0.027344 0.058594 -0.039063 0.089844 c -0.019531 0.023438 -0.035156 0.050782 -0.046875 0.078125 c -0.003906 0.007813 -0.007812 0.015625 -0.011719 0.023438 l -0.046874 0.082031 c -0.011719 0.023438 -0.027344 0.046875 -0.039063 0.074219 c -0.003906 0.007812 -0.007813 0.011719 -0.011719 0.019531 l -0.671875 1.28125 c -0.003906 0.007812 -0.011719 0.015625 -0.015625 0.023438 c -0.015625 0.03125 -0.027344 0.058593 -0.039062 0.089843 c -0.015625 0.023438 -0.03125 0.050781 -0.046875 0.078125 l -0.6875 1.3125 c -0.003907 0.007813 -0.007813 0.011719 -0.011719 0.015625 c -0.007812 0.019531 -0.015625 0.039063 -0.023438 0.054688 l -0.117187 0.222656 c -0.007813 0.007813 -0.011719 0.019531 -0.015625 0.027344 c -0.015625 0.027343 -0.03125 0.058593 -0.039062 0.089843 c -0.019532 0.023438 -0.035157 0.050782 -0.050782 0.078126 l -0.675781 1.296874 h -0.003906 l -1.0625 0.980469 c -0.023438 0.019531 -0.046875 0.042969 -0.066407 0.066407 c -0.027343 0.019531 -0.050781 0.039062 -0.074218 0.0625 c -0.003906 0.003906 -0.007813 0.007812 -0.011719 0.011718 l -1.070313 0.988282 c 0 0.003906 -0.003906 0.007812 -0.007812 0.007812 l -0.007812 0.011719 c -0.304688 0.28125 -0.324219 0.757812 -0.042969 1.0625 c 0.28125 0.300781 0.753906 0.320312 1.058593 0.039062 h 0.003907 l 1.097656 -1.015625 c 0.023437 -0.023437 0.042969 -0.042968 0.0625 -0.066406 c 0.027344 -0.019531 0.050781 -0.039062 0.074219 -0.058594 l 1.101562 -1.019531 c 0.054688 -0.050781 0.101563 -0.109375 0.140625 -0.171875 c 0.046875 -0.050781 0.085938 -0.105469 0.117188 -0.167969 l 0.699219 -1.324219 l -0.003907 -0.003906 c 0.015625 -0.027344 0.027344 -0.054687 0.039063 -0.082031 c 0.019531 -0.027344 0.035156 -0.054687 0.050781 -0.082031 l 0.695313 -1.328125 c 0.007812 -0.011719 0.015624 -0.027344 0.023437 -0.042969 l 0.136719 -0.261719 c 0.011718 -0.027343 0.027344 -0.054687 0.039062 -0.085937 c 0.015625 -0.023438 0.03125 -0.050782 0.046875 -0.078125 l 0.007813 -0.015625 l 0.914062 0.523437 l 0.949219 0.542969 l 0.382813 0.21875 l -0.476563 0.285156 c -0.003906 0 -0.003906 0 -0.007813 0 l -0.011718 0.007813 c -0.027344 0.015625 -0.054688 0.035156 -0.078125 0.054687 c -0.027344 0.011719 -0.058594 0.027344 -0.085938 0.042969 c -0.007812 0.003906 -0.015625 0.007813 -0.023437 0.015625 l -1.265625 0.75 c -0.167969 0.101562 -0.292969 0.269531 -0.339844 0.460938 c -0.050781 0.195312 -0.019531 0.398437 0.082031 0.570312 c 0.101563 0.171875 0.269532 0.292969 0.460938 0.34375 c 0.191406 0.046875 0.398437 0.015625 0.566406 -0.085938 l 1.289062 -0.765624 c 0.027344 -0.019532 0.054688 -0.035157 0.078126 -0.054688 c 0.027343 -0.011719 0.054687 -0.027344 0.082031 -0.042969 l 1.289062 -0.765625 c 0.070313 -0.042968 0.132813 -0.097656 0.183594 -0.160156 c 0.152344 -0.0625 0.277344 -0.171875 0.363281 -0.316406 c 0.203125 -0.359375 0.082032 -0.816406 -0.277344 -1.023438 l -0.972656 -0.554687 l -0.492187 -0.285157 l -0.921875 -0.527343 l 0.632812 -1.199219 c 0.011719 -0.027344 0.023438 -0.054688 0.035156 -0.085938 c 0.019532 -0.023437 0.035157 -0.050781 0.050782 -0.078124 l 0.574218 -1.09375 c 0.003907 0.007812 0.007813 0.019531 0.007813 0.027343 l 0.199219 0.726563 c 0 0.007812 0.003906 0.019531 0.003906 0.027344 h 0.003906 c 0.003906 0.011718 0.003906 0.023437 0.007813 0.03125 l 0.164062 0.601562 v 0.015625 l 0.007813 0.015625 c 0.109375 0.398438 0.519531 0.636719 0.921875 0.527344 c 0.007812 -0.003906 0.019531 -0.003906 0.027343 -0.007813 l 1.378907 -0.265625 h 0.015625 h 0.003906 l 1.453125 -0.28125 c 0.195313 -0.035156 0.371094 -0.152344 0.480469 -0.316406 c 0.113281 -0.164062 0.152344 -0.367188 0.117187 -0.5625 c -0.046875 -0.226562 -0.191406 -0.421875 -0.402343 -0.527344 z m 0 0"/>
    <g clip-path="url(#a)" transform="matrix(1 0 0 1 -80 -160)">
        <path d="m 42.570312 90 h 7.859376 c 0.316406 0 0.570312 0.253906 0.570312 0.570312 v 3.847657 c 0 0.316406 -0.253906 0.570312 -0.570312 0.570312 h -7.859376 c -0.316406 0 -0.570312 -0.253906 -0.570312 -0.570312 v -3.847657 c 0 -0.316406 0.253906 -0.570312 0.570312 -0.570312 z m 0 0"/>
    </g>
</svg>
