<?xml version="1.0" encoding="UTF-8"?>
<svg height="16px" viewBox="0 0 16 16" width="16px" xmlns="http://www.w3.org/2000/svg" xmlns:xlink="http://www.w3.org/1999/xlink">
    <clipPath id="a">
        <path d="m 0 0 h 512 v 512 h -512 z"/>
    </clipPath>
    <path d="m 2.28125 1 c -0.707031 0 -1.28125 0.574219 -1.28125 1.285156 v 11.433594 c 0 0.707031 0.574219 1.28125 1.28125 1.28125 h 11.4375 c 0.707031 0 1.28125 -0.574219 1.28125 -1.28125 v -11.433594 c 0 -0.710937 -0.574219 -1.285156 -1.28125 -1.285156 z m 2.921875 1.75 h 8 v 7.371094 h -0.007813 c -0.019531 0.71875 -0.476562 1.429687 -1.183593 1.84375 c -1.042969 0.605468 -2.296875 0.386718 -2.796875 -0.484375 c -0.5 -0.875 -0.0625 -2.074219 0.976562 -2.683594 c 0.472656 -0.273437 1.011719 -0.386719 1.511719 -0.324219 v -3.222656 h -5 v 6.042969 h -0.015625 c 0.003906 0.730469 -0.457031 1.46875 -1.1875 1.890625 c -1.039062 0.605468 -2.292969 0.386718 -2.792969 -0.484375 c -0.5 -0.875 -0.0625 -2.078125 0.980469 -2.683594 c 0.472656 -0.273437 1.011719 -0.390625 1.515625 -0.324219 z m 0 0"/>
    <g clip-path="url(#a)" transform="matrix(1 0 0 1 -60 -140)">
        <path d="m 42.570312 90 h 7.859376 c 0.316406 0 0.570312 0.253906 0.570312 0.570312 v 3.847657 c 0 0.316406 -0.253906 0.570312 -0.570312 0.570312 h -7.859376 c -0.316406 0 -0.570312 -0.253906 -0.570312 -0.570312 v -3.847657 c 0 -0.316406 0.253906 -0.570312 0.570312 -0.570312 z m 0 0"/>
    </g>
</svg>
