<?xml version="1.0" encoding="UTF-8"?>
<svg height="16px" viewBox="0 0 16 16" width="16px" xmlns="http://www.w3.org/2000/svg" xmlns:xlink="http://www.w3.org/1999/xlink">
    <clipPath id="a">
        <path d="m 0 0 h 512 v 512 h -512 z"/>
    </clipPath>
    <path d="m 0 11 h 5 v 5 h -5 z m 0 0"/>
    <path d="m 0.703125 1 h -0.023437 l -0.046876 0.003906 l -0.070312 0.011719 l -0.066406 0.015625 l -0.066406 0.023438 l -0.0625 0.03125 l -0.058594 0.035156 l -0.054688 0.039062 l -0.09375 0.09375 l -0.039062 0.054688 l -0.0351565 0.058594 l -0.03125 0.0625 l -0.0234375 0.066406 l -0.015625 0.066406 l -0.01171875 0.070312 l -0.00390625 0.058594 v 0.308594 h 1.804688 v -1 z m 3.101563 0 v 1 h 2 v -1 z m 4 0 v 1 h 2 v -1 z m 4 0 v 1 h 2 v -1 z m 2.195312 1.890625 v 2 h 1 v -2 z m -14 1.042969 v 2 h 1 v -2 z m 14 2.957031 v 2 h 1 v -2 z m -14 1.042969 v 2 h 1 v -2 z m 14 2.957031 v 2 h 1 v -2 z m 0 4 v 0.109375 h -0.980469 v 1 h 1.289063 l 0.058594 -0.003906 l 0.070312 -0.007813 l 0.066406 -0.019531 l 0.066406 -0.023438 l 0.0625 -0.03125 l 0.058594 -0.035156 l 0.054688 -0.039062 l 0.09375 -0.09375 l 0.039062 -0.054688 l 0.039063 -0.058594 l 0.027343 -0.0625 l 0.023438 -0.066406 l 0.019531 -0.066406 l 0.007813 -0.070312 l 0.003906 -0.058594 v -0.417969 z m -8.980469 0.109375 v 1 h 2 v -1 z m 4 0 v 1 h 2 v -1 z m 0 0"/>
    <g fill-rule="evenodd">
        <path d="m 11.167969 4.335938 l -5.167969 5.167968 l 0.496094 0.496094 l 5.167968 -5.167969 z m 0 0"/>
        <path d="m 7.628906 5.976562 l 4.4375 -2.050781 l -2.050781 4.4375 c -0.1875 -1.222656 -1.15625 -2.183593 -2.386719 -2.386719 z m 0 0"/>
        <path d="m 12.113281 3.800781 c -0.03125 -0.011719 -0.070312 -0.011719 -0.101562 0.003907 l -4.4375 2.050781 c -0.054688 0.027343 -0.085938 0.082031 -0.078125 0.140625 c 0.007812 0.054687 0.054687 0.101562 0.109375 0.109375 c 1.179687 0.195312 2.101562 1.109375 2.277343 2.277343 c 0.011719 0.058594 0.054688 0.101563 0.113282 0.109376 c 0.058594 0.007812 0.113281 -0.023438 0.136718 -0.074219 l 2.050782 -4.4375 c 0.015625 -0.035157 0.015625 -0.070313 0.003906 -0.105469 c -0.011719 -0.03125 -0.039062 -0.058594 -0.074219 -0.074219 z m -0.316406 0.390625 l -1.761719 3.8125 c -0.28125 -0.996094 -1.050781 -1.757812 -2.054687 -2.046875 z m 0 0"/>
    </g>
    <g clip-path="url(#a)" transform="matrix(1 0 0 1 -60 -20)">
        <path d="m 42.570312 90 h 7.859376 c 0.316406 0 0.570312 0.253906 0.570312 0.570312 v 3.847657 c 0 0.316406 -0.253906 0.570312 -0.570312 0.570312 h -7.859376 c -0.316406 0 -0.570312 -0.253906 -0.570312 -0.570312 v -3.847657 c 0 -0.316406 0.253906 -0.570312 0.570312 -0.570312 z m 0 0"/>
    </g>
</svg>
