<?xml version="1.0" encoding="UTF-8"?>
<svg height="16px" viewBox="0 0 16 16" width="16px" xmlns="http://www.w3.org/2000/svg" xmlns:xlink="http://www.w3.org/1999/xlink">
    <clipPath id="a">
        <path d="m 0 0 h 512 v 512 h -512 z"/>
    </clipPath>
    <g clip-path="url(#a)" transform="matrix(1 0 0 1 -40 -80)">
        <path d="m 42.570312 90 h 7.859376 c 0.316406 0 0.570312 0.253906 0.570312 0.570312 v 3.847657 c 0 0.316406 -0.253906 0.570312 -0.570312 0.570312 h -7.859376 c -0.316406 0 -0.570312 -0.253906 -0.570312 -0.570312 v -3.847657 c 0 -0.316406 0.253906 -0.570312 0.570312 -0.570312 z m 0 0"/>
    </g>
    <g fill-rule="evenodd">
        <path d="m 16 10 l -4 2 v 1 l 4 2 z m 0 0"/>
        <path d="m 0 10 l 2 1 l -2 1 z m 0 0"/>
        <path d="m 10.078125 1 c -1.753906 0 -3.296875 1.191406 -3.773437 2.910156 c -0.589844 -1.09375 -1.71875 -1.773437 -2.945313 -1.773437 c -1.855469 0 -3.359375 1.53125 -3.359375 3.417969 c 0 1.886718 1.503906 3.417968 3.359375 3.417968 v 0.027344 h 6.71875 v -0.027344 c 2.167969 0 3.921875 -1.785156 3.921875 -3.988281 c 0 -2.199219 -1.753906 -3.984375 -3.921875 -3.984375 z m 0 0"/>
    </g>
</svg>
