<?xml version="1.0" encoding="UTF-8"?>
<svg height="16px" viewBox="0 0 16 16" width="16px" xmlns="http://www.w3.org/2000/svg" xmlns:xlink="http://www.w3.org/1999/xlink">
    <clipPath id="a">
        <path d="m 0 0 h 512 v 512 h -512 z"/>
    </clipPath>
    <path d="m 0 5 h 1 v 6 h -1 z m 0 0"/>
    <path d="m 7 2 l -4 3 h -1 v 6 h 1 l 4 3 z m 0 0"/>
    <g fill-rule="evenodd">
        <path d="m 8 3.492188 v 1.523437 c 0.726562 0.824219 1.128906 1.886719 1.128906 2.984375 s -0.402344 2.160156 -1.128906 2.984375 v 1.523437 c 1.417969 -1.0625 2.253906 -2.734374 2.253906 -4.507812 s -0.835937 -3.445312 -2.253906 -4.507812 z m 0 0"/>
        <path d="m 12 1.523438 v 1.433593 c 1.433594 1.285157 2.253906 3.117188 2.253906 5.042969 s -0.820312 3.757812 -2.253906 5.042969 v 1.433593 c 2.117188 -1.476562 3.382812 -3.894531 3.382812 -6.476562 s -1.265624 -5 -3.382812 -6.476562 z m 0 0"/>
        <path d="m 10 2.507812 v 1.46875 c 1.082031 1.0625 1.691406 2.511719 1.691406 4.027344 c 0 1.511719 -0.609375 2.960938 -1.691406 4.019532 v 1.46875 c 1.769531 -1.269532 2.816406 -3.3125 2.820312 -5.488282 c -0.003906 -2.179687 -1.050781 -4.226562 -2.820312 -5.496094 z m 0 0"/>
    </g>
    <g clip-path="url(#a)" transform="matrix(1 0 0 1 -60 -80)">
        <path d="m 42.570312 90 h 7.859376 c 0.316406 0 0.570312 0.253906 0.570312 0.570312 v 3.847657 c 0 0.316406 -0.253906 0.570312 -0.570312 0.570312 h -7.859376 c -0.316406 0 -0.570312 -0.253906 -0.570312 -0.570312 v -3.847657 c 0 -0.316406 0.253906 -0.570312 0.570312 -0.570312 z m 0 0"/>
    </g>
</svg>
