<?xml version="1.0" encoding="UTF-8"?>
<svg height="16px" viewBox="0 0 16 16" width="16px" xmlns="http://www.w3.org/2000/svg" xmlns:xlink="http://www.w3.org/1999/xlink">
    <clipPath id="a">
        <path d="m 0 0 h 512 v 512 h -512 z"/>
    </clipPath>
    <g clip-path="url(#a)" transform="matrix(1 0 0 1 0 -80)">
        <path d="m 42.570312 90 h 7.859376 c 0.316406 0 0.570312 0.253906 0.570312 0.570312 v 3.847657 c 0 0.316406 -0.253906 0.570312 -0.570312 0.570312 h -7.859376 c -0.316406 0 -0.570312 -0.253906 -0.570312 -0.570312 v -3.847657 c 0 -0.316406 0.253906 -0.570312 0.570312 -0.570312 z m 0 0"/>
    </g>
    <path d="m 1 1 v 14 h 14 v -14 z m 2.421875 2.730469 h 3.328125 v 5.742187 c 0 0.496094 0.105469 0.882813 0.308594 1.160156 c 0.207031 0.277344 0.5 0.414063 0.882812 0.414063 c 0.441406 0 0.882813 -0.097656 1.324219 -0.300781 v -6.222656 l -0.75 -0.210938 v -0.582031 h 3.261719 v 7.523437 l 0.800781 0.210938 v 0.585937 h -3.175781 l -0.121094 -0.726562 l -0.589844 0.308593 c -0.8125 0.425782 -1.542968 0.636719 -2.191406 0.636719 c -1.507812 0 -2.257812 -0.816406 -2.257812 -2.453125 v -5.292968 l -0.820313 -0.210938 z m 0 0" fill-rule="evenodd"/>
</svg>
