<?xml version="1.0" encoding="UTF-8"?>
<svg height="16px" viewBox="0 0 16 16" width="16px" xmlns="http://www.w3.org/2000/svg" xmlns:xlink="http://www.w3.org/1999/xlink">
    <clipPath id="a">
        <path d="m 0 0 h 512 v 512 h -512 z"/>
    </clipPath>
    <g clip-path="url(#a)" transform="matrix(1 0 0 1 -80 -80)">
        <path d="m 42.570312 90 h 7.859376 c 0.316406 0 0.570312 0.253906 0.570312 0.570312 v 3.847657 c 0 0.316406 -0.253906 0.570312 -0.570312 0.570312 h -7.859376 c -0.316406 0 -0.570312 -0.253906 -0.570312 -0.570312 v -3.847657 c 0 -0.316406 0.253906 -0.570312 0.570312 -0.570312 z m 0 0"/>
    </g>
    <path d="m 1 1 v 14 h 14 v -14 z m 7.078125 2.019531 c 1.101563 0 1.964844 0.253907 2.59375 0.753907 c 0.628906 0.496093 0.945313 1.183593 0.945313 2.058593 c 0 0.453125 -0.101563 0.855469 -0.304688 1.214844 s -0.578125 0.730469 -1.128906 1.125 l -0.527344 0.386719 c -0.316406 0.226562 -0.554688 0.457031 -0.714844 0.6875 c -0.152344 0.230468 -0.234375 0.488281 -0.25 0.765625 h -1.859375 c 0.03125 -0.472657 0.160157 -0.894531 0.398438 -1.265625 c 0.242187 -0.375 0.59375 -0.71875 1.058593 -1.042969 c 0.496094 -0.34375 0.847657 -0.648437 1.050782 -0.90625 c 0.203125 -0.265625 0.304687 -0.558594 0.304687 -0.878906 c 0 -0.410157 -0.132812 -0.730469 -0.402343 -0.96875 c -0.265626 -0.238281 -0.644532 -0.355469 -1.132813 -0.355469 c -0.472656 0 -0.863281 0.136719 -1.1875 0.410156 c -0.3125 0.277344 -0.5 0.636719 -0.554687 1.089844 l -1.984376 -0.085938 c 0.125 -0.941406 0.511719 -1.675781 1.164063 -2.199218 c 0.648437 -0.523438 1.492187 -0.785156 2.53125 -0.785156 z m -1.300781 8.078125 h 2.015625 v 1.882813 h -2.015625 z m 0 0" fill-rule="evenodd"/>
</svg>
