<?xml version="1.0" encoding="UTF-8" standalone="no"?>
<svg
   width="512"
   height="512"
   viewBox="0 0 512 512"
   id="svg4213"
   version="1.1"
   inkscape:version="1.4 (e7c3feb100, 2024-10-09)"
   inkscape:export-filename="/home/dani/git/crown/tools/level_editor/resources/icons/16x16/emblems/level-object-camera.png"
   inkscape:export-xdpi="96"
   inkscape:export-ydpi="96"
   sodipodi:docname="icons.svg"
   xmlns:inkscape="http://www.inkscape.org/namespaces/inkscape"
   xmlns:sodipodi="http://sodipodi.sourceforge.net/DTD/sodipodi-0.dtd"
   xmlns="http://www.w3.org/2000/svg"
   xmlns:svg="http://www.w3.org/2000/svg"
   xmlns:rdf="http://www.w3.org/1999/02/22-rdf-syntax-ns#"
   xmlns:cc="http://creativecommons.org/ns#"
   xmlns:dc="http://purl.org/dc/elements/1.1/">
  <defs
     id="defs4215">
    <inkscape:path-effect
       effect="skeletal"
       id="path-effect2612"
       is_visible="true"
       lpeversion="1"
       pattern="M 0,5 C 0,2.24 2.24,0 5,0 7.76,0 10,2.24 10,5 10,7.76 7.76,10 5,10 2.24,10 0,7.76 0,5 Z"
       copytype="single_stretched"
       prop_scale="1"
       scale_y_rel="false"
       spacing="0"
       normal_offset="0"
       tang_offset="0"
       prop_units="false"
       vertical_pattern="false"
       hide_knot="false"
       fuse_tolerance="0" />
    <inkscape:path-effect
       effect="skeletal"
       id="path-effect2608"
       is_visible="true"
       lpeversion="1"
       pattern="M 0,5 C 0,2.24 2.24,0 5,0 7.76,0 10,2.24 10,5 10,7.76 7.76,10 5,10 2.24,10 0,7.76 0,5 Z"
       copytype="single_stretched"
       prop_scale="1"
       scale_y_rel="false"
       spacing="0"
       normal_offset="0"
       tang_offset="0"
       prop_units="false"
       vertical_pattern="false"
       hide_knot="false"
       fuse_tolerance="0" />
    <inkscape:path-effect
       effect="skeletal"
       id="path-effect2584"
       is_visible="true"
       lpeversion="1"
       pattern="M 0,5 C 0,2.24 2.24,0 5,0 7.76,0 10,2.24 10,5 10,7.76 7.76,10 5,10 2.24,10 0,7.76 0,5 Z"
       copytype="single_stretched"
       prop_scale="1"
       scale_y_rel="false"
       spacing="0"
       normal_offset="0"
       tang_offset="0"
       prop_units="false"
       vertical_pattern="false"
       hide_knot="false"
       fuse_tolerance="0" />
    <marker
       inkscape:stockid="Arrow2Mend"
       orient="auto"
       refY="0"
       refX="0"
       id="Arrow2Mend"
       style="overflow:visible"
       inkscape:isstock="true">
      <path
         inkscape:connector-curvature="0"
         id="path13972"
         style="fill:#000000;fill-opacity:1;fill-rule:evenodd;stroke:#000000;stroke-width:0.625;stroke-linejoin:round;stroke-opacity:1"
         d="M 8.7185878,4.0337352 -2.2072895,0.01601326 8.7185884,-4.0017078 c -1.7454984,2.3720609 -1.7354408,5.6174519 -6e-7,8.035443 z"
         transform="scale(-0.6)" />
    </marker>
  </defs>
  <sodipodi:namedview
     id="base"
     pagecolor="#7f7f7f"
     bordercolor="#666666"
     borderopacity="1.0"
     inkscape:pageopacity="0"
     inkscape:pageshadow="2"
     inkscape:zoom="5.6568543"
     inkscape:cx="54.712387"
     inkscape:cy="64.611882"
     inkscape:document-units="px"
     inkscape:current-layer="g5"
     showgrid="true"
     units="px"
     inkscape:window-width="2560"
     inkscape:window-height="1365"
     inkscape:window-x="0"
     inkscape:window-y="38"
     inkscape:window-maximized="1"
     inkscape:snap-bbox="true"
     inkscape:bbox-nodes="true"
     inkscape:document-rotation="0"
     inkscape:pagecheckerboard="true"
     showguides="true"
     inkscape:snap-global="false"
     inkscape:showpageshadow="2"
     inkscape:deskcolor="#838383">
    <inkscape:grid
       type="xygrid"
       id="grid4761"
       dotted="true"
       visible="true"
       originx="0"
       originy="2.7755576e-17"
       spacingy="1"
       spacingx="1"
       units="px"
       snapvisiblegridlinesonly="true"
       enabled="true"
       empspacing="8" />
  </sodipodi:namedview>
  <metadata
     id="metadata4218">
    <rdf:RDF>
      <cc:Work
         rdf:about="">
        <dc:format>image/svg+xml</dc:format>
        <dc:type
           rdf:resource="http://purl.org/dc/dcmitype/StillImage" />
      </cc:Work>
    </rdf:RDF>
  </metadata>
  <g
     inkscape:label="actions"
     inkscape:groupmode="layer"
     id="layer1"
     transform="translate(0,-1036.3622)"
     style="display:inline">
    <g
       transform="translate(20,40.000017)"
       id="game-stop"
       inkscape:label="game-stop"
       style="display:inline">
      <rect
         style="display:inline;fill:none;fill-opacity:0.868478;stroke:none;stroke-width:1.00157;stroke-opacity:0.577483"
         id="rect22"
         width="16"
         height="16"
         x="0"
         y="1036.3622"
         inkscape:label="bbox" />
      <path
         inkscape:connector-curvature="0"
         id="path5439"
         d="m 1.0000022,1037.3622 v 14 H 15.000002 v -14 z"
         style="fill:#000000;fill-opacity:1;fill-rule:evenodd;stroke:none;stroke-width:1px;stroke-linecap:butt;stroke-linejoin:miter;stroke-opacity:1" />
    </g>
    <g
       transform="translate(0,40.000017)"
       id="game-run"
       inkscape:label="game-run"
       style="display:inline">
      <rect
         style="display:inline;fill:none;fill-opacity:0.868478"
         id="rect21"
         width="16"
         height="16"
         x="1e-06"
         y="1036.3622"
         inkscape:label="bbox" />
      <path
         sodipodi:nodetypes="cccc"
         inkscape:connector-curvature="0"
         id="path5418"
         d="m 1,1037.3622 v 14 l 14,-7 z"
         style="fill:#000000;fill-opacity:1;fill-rule:evenodd;stroke:none;stroke-width:1px;stroke-linecap:butt;stroke-linejoin:miter;stroke-opacity:1" />
    </g>
    <g
       id="level-tree"
       inkscape:export-xdpi="90"
       inkscape:export-ydpi="90"
       inkscape:label="level-tree"
       style="display:inline"
       transform="matrix(0.45116602,0,0,0.45116243,-289.94783,895.88932)">
      <rect
         style="display:inline;fill:none;fill-opacity:0.868478;stroke:none;stroke-width:2.21997;stroke-opacity:0.577483"
         id="rect20"
         width="35.463665"
         height="35.463947"
         x="686.99286"
         y="311.35767"
         inkscape:label="bbox" />
      <path
         style="fill:#000000;fill-opacity:1;stroke:none;stroke-width:0.0999999;stroke-linejoin:miter;stroke-miterlimit:4.1;stroke-dasharray:none;stroke-dashoffset:0.9;stroke-opacity:1"
         d="m 695.85877,313.57421 v 6.64949 h 2.21647 v 6.64949 2.21649 8.86599 2.2165 h 8.86592 v 2.21649 h 6.64944 v -6.64949 h -6.64944 v 2.2165 h -6.64944 v -8.86599 h 6.64944 v 2.2165 h 6.64944 v -6.64949 h -6.64944 v 2.2165 h -6.64944 v -6.64949 h 2.21648 v -6.64949 z"
         id="rect4348" />
    </g>
    <g
       id="level-layers"
       inkscape:export-xdpi="90"
       inkscape:export-ydpi="90"
       inkscape:label="level-layers"
       style="display:inline;stroke-width:1"
       transform="matrix(0.45116602,0,0,0.45116243,-289.94783,895.88932)">
      <rect
         style="display:inline;fill:none;fill-opacity:0.868478;stroke:none;stroke-width:1.00157;stroke-opacity:0.577483"
         id="rect6-6-5"
         width="16"
         height="16"
         x="46"
         y="1033.3622"
         transform="matrix(2.216479,0,0,2.2164966,540.70524,-1979.0862)"
         inkscape:label="bbox" />
      <path
         inkscape:connector-curvature="0"
         id="rect4390"
         d="m 648.75859,326.87316 -3.87884,2.21649 15.51535,8.86599 15.51535,-8.86599 -3.87883,-2.21649 -11.63652,6.64949 z"
         style="fill:#000000;fill-opacity:1;stroke:none;stroke-width:0.258203;stroke-linejoin:miter;stroke-miterlimit:4.1;stroke-dasharray:none;stroke-dashoffset:0.9;stroke-opacity:1" />
      <path
         id="rect4353-7"
         style="display:inline;fill:#000000;fill-opacity:1;stroke:none;stroke-width:0.239662;stroke-linejoin:miter;stroke-miterlimit:4.1;stroke-dasharray:none;stroke-dashoffset:0.9;stroke-opacity:1"
         d="m 660.39504,313.57421 15.51542,8.86602 -15.51529,8.86595 -15.51542,-8.86602 z" />
      <path
         inkscape:connector-curvature="0"
         style="fill:#000000;fill-opacity:1;stroke:none;stroke-width:0.258203;stroke-linejoin:miter;stroke-miterlimit:4.1;stroke-dasharray:none;stroke-dashoffset:0.9;stroke-opacity:1"
         d="m 648.75859,333.52265 -3.87884,2.21649 15.51535,8.86599 15.51535,-8.86599 -3.87883,-2.21649 -11.63652,6.64949 z"
         id="path4419" />
    </g>
    <g
       inkscape:export-filename="/home/dani/git/crown/tools/ui/icons/theme/layer-visible.png"
       inkscape:export-xdpi="90"
       inkscape:export-ydpi="90"
       id="layer-visible"
       transform="matrix(0.45116602,0,0,0.45116243,-289.94783,896.55524)"
       inkscape:label="layer-visible"
       style="display:inline">
      <rect
         style="display:inline;fill:none;fill-opacity:0.868478;stroke:none;stroke-width:2.21997;stroke-opacity:0.577483"
         id="rect19"
         width="35.463665"
         height="35.463947"
         x="731.32245"
         y="309.88165"
         inkscape:label="bbox" />
      <path
         style="fill:#000000;fill-opacity:1;stroke:none;stroke-width:0.1;stroke-linejoin:miter;stroke-miterlimit:4.1;stroke-dasharray:none;stroke-dashoffset:0.9;stroke-opacity:1"
         d="m 749.05424,317.27005 a 15.51533,10.34367 0 0 0 -15.51535,10.34365 15.51533,10.34367 0 0 0 15.51535,10.34365 15.51533,10.34367 0 0 0 15.51536,-10.34365 15.51533,10.34367 0 0 0 -15.51536,-10.34365 z m 0,1.72731 a 14.22239,8.6197258 0 0 1 14.22241,8.61634 14.22239,8.6197258 0 0 1 -14.22241,8.62139 14.22239,8.6197258 0 0 1 -14.2224,-8.62139 14.22239,8.6197258 0 0 1 14.2224,-8.61634 z"
         id="path4620"
         inkscape:connector-curvature="0" />
      <path
         style="fill:#000000;fill-opacity:1;stroke:none;stroke-width:0.1;stroke-linejoin:miter;stroke-miterlimit:4.1;stroke-dasharray:none;stroke-dashoffset:0.9;stroke-opacity:1"
         d="m 749.05427,320.50244 a 7.1112019,7.1112598 0 0 0 -7.11123,7.11123 7.1112019,7.1112598 0 0 0 7.11123,7.11129 7.1112019,7.1112598 0 0 0 7.11119,-7.11129 7.1112019,7.1112598 0 0 0 -7.11119,-7.11123 z m 0,3.55564 a 3.5556017,3.5556304 0 0 1 3.5556,3.55559 3.5556017,3.5556304 0 0 1 -3.5556,3.55564 3.5556017,3.5556304 0 0 1 -3.55562,-3.55564 3.5556017,3.5556304 0 0 1 3.55562,-3.55559 z"
         id="path4625"
         inkscape:connector-curvature="0" />
    </g>
    <g
       inkscape:export-filename="/home/dani/git/crown/tools/ui/icons/theme/layer-locked.png"
       inkscape:export-xdpi="90"
       inkscape:export-ydpi="90"
       id="layer-locked"
       transform="matrix(0.45116602,0,0,0.45116243,-288.94783,895.88933)"
       inkscape:label="layer-locked"
       style="display:inline">
      <rect
         style="display:inline;fill:none;fill-opacity:0.868478;stroke:none;stroke-width:2.21997;stroke-opacity:0.577483"
         id="rect18"
         width="35.463665"
         height="35.463947"
         x="773.43555"
         y="311.35764"
         inkscape:label="bbox" />
      <path
         sodipodi:nodetypes="cccccsccccccs"
         inkscape:connector-curvature="0"
         id="rect4755"
         d="m 782.30146,329.08967 v 13.29898 h 17.73183 v -13.29898 z m 8.86592,2.21649 c 1.39901,-10e-6 2.53313,1.15775 2.53313,2.58591 -7.2e-4,0.92312 -0.48343,1.77585 -1.26656,2.23741 v 4.04268 h -2.53315 v -4.04772 c -0.7816,-0.46066 -1.26407,-1.31105 -1.26654,-2.23237 0,-1.42816 1.13412,-2.58591 2.53312,-2.58591 z"
         style="fill:#000000;fill-opacity:1;stroke:none;stroke-width:0.1;stroke-linejoin:miter;stroke-miterlimit:4.1;stroke-dasharray:none;stroke-dashoffset:0.9;stroke-opacity:1" />
      <path
         inkscape:connector-curvature="0"
         id="path7958"
         d="m 791.16737,316.50932 c -3.32472,0 -6.64943,0.95374 -6.64943,2.85721 v 9.72314 h 2.21648 v -7.66682 c 0,-3.00193 8.86591,-3.00193 8.86591,0 v 7.66682 h 2.21648 v -9.72314 c 0,-1.90347 -3.32472,-2.85721 -6.64944,-2.85721 z"
         style="fill:#000000;fill-opacity:1;fill-rule:evenodd;stroke:none;stroke-width:2.21649px;stroke-linecap:butt;stroke-linejoin:miter;stroke-opacity:1" />
    </g>
    <g
       id="tool-place"
       inkscape:label="tool-place"
       style="display:inline"
       transform="matrix(0.45116602,0,0,0.45116243,-69.947825,915.88932)">
      <rect
         style="display:inline;fill:none;fill-opacity:0.868478;stroke:none;stroke-width:2.21997;stroke-opacity:0.577483"
         id="rect17"
         width="35.463665"
         height="35.463947"
         x="155.03789"
         y="311.35767"
         inkscape:label="bbox" />
      <path
         id="rect4400"
         style="opacity:1;fill:#000000;fill-opacity:1;stroke:none;stroke-width:0.107018;stroke-miterlimit:4;stroke-dasharray:none;stroke-opacity:1"
         d="m 166.12029,335.73917 h 11.08239 v 11.08248 h -11.08239 z" />
      <path
         style="fill:#000000;fill-opacity:1;fill-rule:evenodd;stroke:none;stroke-width:1px;stroke-linecap:butt;stroke-linejoin:miter;stroke-opacity:1"
         d="M 7,1 V 6 H 5 L 7.5,9 10,6 H 8 V 1 Z"
         transform="matrix(2.216479,0,0,2.2164966,155.03789,311.35771)"
         id="path18809" />
    </g>
    <g
       transform="matrix(0.44747134,0,0,0.46666712,55.473882,891.1473)"
       style="display:inline"
       id="snap-to-grid"
       inkscape:label="snap-to-grid">
      <rect
         style="display:inline;fill:none;fill-opacity:0.868478;stroke:none;stroke-width:2.19177;stroke-opacity:0.577483"
         id="rect16"
         width="35.756481"
         height="34.285683"
         x="233.59288"
         y="354.03159"
         inkscape:label="bbox" />
      <path
         id="rect4312"
         style="display:inline;opacity:1;fill:#000000;fill-opacity:1;stroke:none;stroke-width:0.2;stroke-linejoin:miter;stroke-miterlimit:4;stroke-dasharray:none;stroke-dashoffset:2.268;stroke-opacity:1"
         transform="matrix(0.89390837,0,0,0.85714327,24.444204,52.213324)"
         d="m 251.54224,374.62115 h 19.85784 c 0.0394,0 0.0711,0.0317 0.0711,0.0711 V 377.05 c 0,0.0394 -0.0317,0.0711 -0.0711,0.0711 h -19.85784 c -0.0394,0 -0.0711,-0.0317 -0.0711,-0.0711 v -2.35775 c 0,-0.0394 0.0317,-0.0711 0.0711,-0.0711 z" />
      <path
         id="rect4316"
         style="display:inline;opacity:1;fill:#000000;fill-opacity:1;stroke:none;stroke-width:0.2;stroke-linejoin:miter;stroke-miterlimit:4;stroke-dasharray:none;stroke-dashoffset:2.268;stroke-opacity:1"
         transform="matrix(0.89390837,0,0,0.85714327,24.444204,52.213324)"
         d="m 251.54224,382.12115 h 19.85784 c 0.0394,0 0.0711,0.0317 0.0711,0.0711 V 384.55 c 0,0.0394 -0.0317,0.0711 -0.0711,0.0711 h -19.85784 c -0.0394,0 -0.0711,-0.0317 -0.0711,-0.0711 v -2.35775 c 0,-0.0394 0.0317,-0.0711 0.0711,-0.0711 z" />
      <path
         id="rect4318"
         style="display:inline;opacity:1;fill:#000000;fill-opacity:1;stroke:none;stroke-width:0.2;stroke-linejoin:miter;stroke-miterlimit:4;stroke-dasharray:none;stroke-dashoffset:2.268;stroke-opacity:1"
         transform="matrix(0,0.85714327,-0.89390837,0,24.444204,52.213324)"
         d="m 369.69228,-258.97116 h 19.85773 c 0.0394,0 0.0711,0.0317 0.0711,0.0711 v 2.35777 c 0,0.0394 -0.0317,0.0711 -0.0711,0.0711 h -19.85773 c -0.0394,0 -0.0711,-0.0317 -0.0711,-0.0711 v -2.35777 c 0,-0.0394 0.0317,-0.0711 0.0711,-0.0711 z" />
      <path
         id="rect4320"
         style="display:inline;opacity:1;fill:#000000;fill-opacity:1;stroke:none;stroke-width:0.2;stroke-linejoin:miter;stroke-miterlimit:4;stroke-dasharray:none;stroke-dashoffset:2.268;stroke-opacity:1"
         transform="matrix(0,0.85714327,-0.89390837,0,24.444204,52.213324)"
         d="m 369.69228,-266.47119 h 19.85773 c 0.0394,0 0.0711,0.0317 0.0711,0.0711 v 2.35777 c 0,0.0394 -0.0317,0.0711 -0.0711,0.0711 h -19.85773 c -0.0394,0 -0.0711,-0.0317 -0.0711,-0.0711 v -2.35777 c 0,-0.0394 0.0317,-0.0711 0.0711,-0.0711 z" />
      <path
         sodipodi:nodetypes="sssccsssccs"
         inkscape:connector-curvature="0"
         style="display:inline;fill:#0000ff;fill-opacity:1;stroke:none;stroke-width:0.986029;stroke-linejoin:miter;stroke-miterlimit:4;stroke-dasharray:none;stroke-dashoffset:0.9;stroke-opacity:1"
         d="m 246.68518,355.97679 c -2.84768,-2.73054 -7.6324,-2.56971 -10.68697,0.35921 -3.05458,2.92893 -3.2223,7.51684 -0.37463,10.24738 l 3.1433,3.014 3.31848,-3.18198 -3.14329,-3.014 c -1.13907,-1.09222 -1.07199,-2.92738 0.14984,-4.09895 1.22183,-1.17157 3.13572,-1.2359 4.27479,-0.14369 l 3.14329,3.014 3.31848,-3.18197 z"
         id="path17555"
         class="error" />
      <path
         inkscape:connector-curvature="0"
         id="path17559"
         d="m 250.52813,359.66167 -3.31848,3.18198 2.06247,1.97763 3.31847,-3.18197 z m -7.74311,7.42461 -3.31848,3.18198 2.06247,1.97763 3.31848,-3.18198 z"
         style="display:inline;fill:#000000;fill-opacity:1;stroke:none;stroke-width:1.18323;stroke-linejoin:miter;stroke-miterlimit:4;stroke-dasharray:none;stroke-dashoffset:0.9;stroke-opacity:1" />
    </g>
    <g
       id="tool-move"
       inkscape:label="tool-move"
       style="display:inline"
       transform="translate(0,20.000017)">
      <rect
         style="display:inline;fill:none;fill-opacity:0.868478;stroke:none;stroke-width:1.00157;stroke-opacity:0.577483"
         id="rect6"
         width="16"
         height="16"
         x="20"
         y="1036.3622"
         inkscape:label="bbox" />
      <path
         id="rect5009"
         style="fill:#000000;fill-opacity:1;stroke:none;stroke-width:0.0482835;stroke-miterlimit:4;stroke-dasharray:none;stroke-opacity:1"
         d="m 24.999999,1042.3622 h 5 v 5 h -5 z" />
      <path
         inkscape:connector-curvature="0"
         id="path13177"
         d="m 24.999999,1040.3622 2.500003,-3 2.499997,3 h -5"
         style="fill:#000000;fill-opacity:1;fill-rule:evenodd;stroke:none;stroke-width:1px;stroke-linecap:butt;stroke-linejoin:miter;stroke-opacity:1" />
      <path
         style="fill:#000000;fill-opacity:1;fill-rule:evenodd;stroke:none;stroke-width:1px;stroke-linecap:butt;stroke-linejoin:miter;stroke-opacity:1"
         d="m 24.999999,1049.3622 2.500003,3 2.499997,-3 h -5"
         id="path13179"
         inkscape:connector-curvature="0" />
      <path
         style="fill:#000000;fill-opacity:1;fill-rule:evenodd;stroke:none;stroke-width:1px;stroke-linecap:butt;stroke-linejoin:miter;stroke-opacity:1"
         d="m 31.999999,1042.3622 3,2.5 -3,2.5 v -5"
         id="path13181"
         inkscape:connector-curvature="0" />
      <path
         inkscape:connector-curvature="0"
         id="path13183"
         d="m 23,1042.3622 -3,2.5 3,2.5 v -5"
         style="fill:#000000;fill-opacity:1;fill-rule:evenodd;stroke:none;stroke-width:1px;stroke-linecap:butt;stroke-linejoin:miter;stroke-opacity:1" />
    </g>
    <g
       transform="translate(100,4.0001174)"
       id="reference-world"
       inkscape:label="reference-world"
       style="display:inline">
      <rect
         style="display:inline;fill:none;fill-opacity:0.868478;stroke:none;stroke-width:1.00157;stroke-opacity:0.577483"
         id="rect15"
         width="16"
         height="16"
         x="0"
         y="1052.3621"
         inkscape:label="bbox" />
      <path
         id="rect7827"
         style="display:inline;opacity:1;fill:#000000;fill-opacity:1;stroke:none;stroke-width:1;stroke-linejoin:miter;stroke-miterlimit:4;stroke-dasharray:none;stroke-dashoffset:0.9;stroke-opacity:1"
         d="m 12.999996,1053.3622 h 1 v 15 h -1 z" />
      <path
         id="rect7829"
         style="display:inline;opacity:1;fill:#000000;fill-opacity:1;stroke:none;stroke-width:1;stroke-linejoin:miter;stroke-miterlimit:4;stroke-dasharray:none;stroke-dashoffset:0.9;stroke-opacity:1"
         d="M -2.2081347e-6,1054.3622 H 14.999998 v 1 H -2.2081347e-6 Z" />
      <path
         id="rect7831"
         style="display:inline;opacity:1;fill:#000000;fill-opacity:1;stroke:none;stroke-width:1;stroke-linejoin:miter;stroke-miterlimit:4;stroke-dasharray:none;stroke-dashoffset:0.9;stroke-opacity:1"
         d="M -2.2081347e-6,1060.3622 H 14.999998 v 1 H -2.2081347e-6 Z" />
      <path
         id="rect7833"
         style="display:inline;opacity:1;fill:#000000;fill-opacity:1;stroke:none;stroke-width:1;stroke-linejoin:miter;stroke-miterlimit:4;stroke-dasharray:none;stroke-dashoffset:0.9;stroke-opacity:1"
         d="M -2.2081347e-6,1066.3622 H 14.999998 v 1 H -2.2081347e-6 Z" />
      <path
         id="rect7835"
         style="display:inline;opacity:1;fill:#000000;fill-opacity:1;stroke:none;stroke-width:1;stroke-linejoin:miter;stroke-miterlimit:4;stroke-dasharray:none;stroke-dashoffset:0.9;stroke-opacity:1"
         d="m 6.9999962,1053.3622 h 1 v 15 h -1 z" />
      <path
         id="rect7837"
         style="display:inline;opacity:1;fill:#000000;fill-opacity:1;stroke:none;stroke-width:1;stroke-linejoin:miter;stroke-miterlimit:4;stroke-dasharray:none;stroke-dashoffset:0.9;stroke-opacity:1"
         d="M 0.99999619,1053.3622 H 1.9999962 v 15 H 0.99999619 Z" />
    </g>
    <g
       transform="translate(80.000002,4.0001174)"
       id="reference-local"
       inkscape:label="reference-local"
       style="display:inline">
      <rect
         style="display:inline;fill:none;fill-opacity:0.868478;stroke:none;stroke-width:1.00157;stroke-opacity:0.577483"
         id="rect14"
         width="16"
         height="16"
         x="-2e-06"
         y="1052.3621"
         inkscape:label="bbox" />
      <path
         id="rect7847"
         style="display:inline;fill:#000000;fill-opacity:1;stroke:none;stroke-width:1;stroke-linejoin:miter;stroke-miterlimit:4;stroke-dasharray:none;stroke-dashoffset:0.9;stroke-opacity:1"
         d="m 12.999996,1053.3622 h 1 v 15 h -1 z" />
      <path
         id="rect7849"
         style="display:inline;fill:#000000;fill-opacity:1;stroke:none;stroke-width:1;stroke-linejoin:miter;stroke-miterlimit:4;stroke-dasharray:none;stroke-dashoffset:0.9;stroke-opacity:1"
         d="M -2.2081347e-6,1054.3622 H 14.999998 v 1 H -2.2081347e-6 Z" />
      <path
         id="rect7851"
         style="display:inline;fill:#000000;fill-opacity:1;stroke:none;stroke-width:1;stroke-linejoin:miter;stroke-miterlimit:4;stroke-dasharray:none;stroke-dashoffset:0.9;stroke-opacity:1"
         d="M -2.2081347e-6,1060.3622 H 14.999998 v 1 H -2.2081347e-6 Z" />
      <path
         id="rect7853"
         style="display:inline;fill:#000000;fill-opacity:1;stroke:none;stroke-width:1;stroke-linejoin:miter;stroke-miterlimit:4;stroke-dasharray:none;stroke-dashoffset:0.9;stroke-opacity:1"
         d="M -2.2081347e-6,1066.3622 H 14.999998 v 1 H -2.2081347e-6 Z" />
      <path
         id="rect7855"
         style="display:inline;fill:#000000;fill-opacity:1;stroke:none;stroke-width:1;stroke-linejoin:miter;stroke-miterlimit:4;stroke-dasharray:none;stroke-dashoffset:0.9;stroke-opacity:1"
         d="m 6.9999962,1053.3622 h 1 v 15 h -1 z" />
      <path
         id="rect7857"
         style="display:inline;fill:#000000;fill-opacity:1;stroke:none;stroke-width:1;stroke-linejoin:miter;stroke-miterlimit:4;stroke-dasharray:none;stroke-dashoffset:0.9;stroke-opacity:1"
         d="M 0.99999619,1053.3622 H 1.9999962 v 15 H 0.99999619 Z" />
      <path
         inkscape:connector-curvature="0"
         id="path7861"
         d="m 5,1058.3622 v 5 h 5 v -5 z"
         style="fill:#000000;fill-opacity:1;fill-rule:evenodd;stroke:none;stroke-width:1px;stroke-linecap:butt;stroke-linejoin:miter;stroke-opacity:1" />
    </g>
    <g
       transform="translate(120,20.000017)"
       id="axis-local"
       inkscape:label="axis-local"
       style="display:inline">
      <rect
         style="display:inline;fill:none;fill-opacity:0.868478;stroke:none;stroke-width:1.00157;stroke-opacity:0.577483"
         id="rect13"
         width="16"
         height="16"
         x="0"
         y="1036.3622"
         inkscape:label="bbox" />
      <path
         id="rect7788-4"
         d="m 1,1037.3622 v 13 1 h 1 13 v -1 H 2 v -13 z"
         style="display:inline;fill:#000000;fill-opacity:1;stroke:none;stroke-width:1;stroke-linejoin:miter;stroke-miterlimit:4;stroke-dasharray:none;stroke-dashoffset:0.9;stroke-opacity:1"
         inkscape:connector-curvature="0" />
      <path
         style="display:inline;fill:#000000;fill-opacity:1;fill-rule:evenodd;stroke:none;stroke-width:1px;stroke-linecap:butt;stroke-linejoin:miter;stroke-opacity:1"
         d="m 1,1046.3622 2.4e-5,5 H 6 l -2.4e-5,-5 z"
         id="path7877"
         inkscape:connector-curvature="0" />
    </g>
    <g
       transform="matrix(0.45117188,0,0,0.45117186,-47.337083,915.88607)"
       style="display:inline"
       id="tool-rotate"
       inkscape:label="tool-rotate">
      <rect
         style="display:inline;fill:none;fill-opacity:0.868478;stroke:none;stroke-width:2.21993;stroke-opacity:0.577483"
         id="rect12"
         width="35.463203"
         height="35.463203"
         x="193.57829"
         y="311.35837"
         inkscape:label="bbox" />
      <path
         id="rect4400-1"
         style="display:inline;opacity:1;fill:#000000;fill-opacity:1;stroke:none;stroke-width:0.107018;stroke-miterlimit:4;stroke-dasharray:none;stroke-opacity:1"
         d="m 210.20168,322.36189 7.83633,7.83634 -7.83634,7.83634 -7.83633,-7.83634 z" />
      <g
         id="g13"
         transform="matrix(-1,0,0,1,420.39937,-1.1224195e-4)">
        <path
           inkscape:connector-curvature="0"
           id="path4581"
           d="m 225.18736,315.40849 -7.8904,7.7819 9.23256,1.46176 z m -3.15981,3.10907 a 16.623376,16.62338 49.241218 0 0 -23.50856,-0.14439 l 1.55761,1.57686 a 14.406917,14.406919 50.976441 0 1 20.37409,0.12514 z"
           style="fill:#000000;fill-opacity:1;stroke:none;stroke-width:0.44329;stroke-linejoin:miter;stroke-miterlimit:4;stroke-dasharray:none;stroke-dashoffset:0.9;stroke-opacity:1" />
        <path
           inkscape:transform-center-y="4.7500012"
           inkscape:transform-center-x="-2.050934"
           inkscape:connector-curvature="0"
           style="fill:#000000;fill-opacity:1;stroke:none;stroke-width:0.2;stroke-linejoin:miter;stroke-miterlimit:4;stroke-dasharray:none;stroke-dashoffset:0.9;stroke-opacity:1"
           d="m 195.21174,344.98772 7.89065,-7.78167 -9.23257,-1.46176 1.34216,9.24367 z m 3.16005,-3.10882 a 16.623376,16.62338 45.351905 0 0 23.50856,0.14438 l -1.55761,-1.57687 a 14.406917,14.406919 45.351905 0 1 -20.37408,-0.12513 z"
           id="path4643" />
      </g>
    </g>
    <g
       transform="matrix(0.46874999,0,0,0.46875,-69.15047,910.82855)"
       style="display:inline"
       id="tool-scale"
       inkscape:label="tool-scale">
      <rect
         style="display:inline;fill:none;fill-opacity:0.868478;stroke:none;stroke-width:2.13668;stroke-opacity:0.577483"
         id="rect11"
         width="34.133335"
         height="34.133331"
         x="275.521"
         y="310.4718"
         inkscape:label="bbox" />
      <path
         id="rect5036"
         style="opacity:1;fill:#000000;fill-opacity:1;stroke:none;stroke-width:0.110362;stroke-miterlimit:4;stroke-dasharray:none;stroke-opacity:1"
         inkscape:transform-center-x="-2.7723849"
         d="m 275.52102,333.9385 h 10.66666 v 10.66666 h -10.66666 z" />
      <path
         style="color:#000000;fill:#000000;stroke-dasharray:4.26667, 4.26667;stroke-dashoffset:1.92;-inkscape-stroke:none"
         d="m 277.02344,312.60547 v 0 l -0.0547,0.002 -0.0977,0.004 -0.14843,0.0234 -0.14454,0.0371 -0.13867,0.0508 -0.13281,0.0625 -0.125,0.0762 -0.11523,0.0859 -0.10743,0.0957 -0.0957,0.10742 -0.0859,0.11523 -0.0762,0.125 -0.0644,0.13282 -0.0488,0.13867 -0.0371,0.14453 -0.0234,0.14844 -0.006,0.125 v 0.65832 l 3.84766,-1.2e-4 v -2.13281 z m 6.61328,0 v 2.13281 h 4.26562 v -2.13281 z m 8.5332,0 v 2.13281 h 4.26563 v -2.13281 z m 8.5332,0 v 2.13281 h 4.26563 v -2.13281 z m 4.6836,4.03515 v 4.26563 h 2.13476 v -4.26563 z m -29.86524,2.22266 v 4.26563 h 2.13282 v -4.26563 z m 29.86524,6.31055 v 4.26758 h 2.13476 v -4.26758 z m -29.86524,2.22265 v 4.26758 h 2.13282 v -4.26758 z m 29.86524,6.31055 v 4.26758 h 2.13476 v -4.26758 z m 0,8.5332 v 0.23243 h -2.08789 v 2.13281 h 2.74609 l 0.125,-0.006 0.15039,-0.0234 0.14453,-0.0371 0.13868,-0.0508 0.13281,-0.0625 0.12304,-0.0762 0.11719,-0.0859 0.10547,-0.0976 0.0977,-0.10547 0.0859,-0.11719 0.0762,-0.12305 0.0625,-0.13281 0.0508,-0.13867 0.0371,-0.14453 0.0234,-0.15039 0.006,-0.12305 v -0.89063 z m -19.1543,0.23243 v 2.13281 h 4.26563 v -2.13281 z m 8.5332,0 v 2.13281 h 4.26758 v -2.13281 z"
         id="rect5038"
         sodipodi:nodetypes="cccccccccccccccccccccccccccccccccccccccccccccccccccccccccccccccccccccccccccccccccccccccccccccccc" />
      <path
         style="color:#000000;display:inline;fill:#000000;fill-rule:evenodd;-inkscape-stroke:none"
         d="m 299.3457,319.72461 -11.02539,11.02539 1.05664,1.05469 11.02344,-11.02344 z"
         id="path5" />
      <path
         style="color:#000000;display:inline;fill:#000000;fill-rule:evenodd;stroke-linejoin:round;-inkscape-stroke:none"
         d="m 291.79355,323.22116 9.46768,-4.37695 -4.3766,9.46785 c -0.39701,-2.60874 -2.45959,-4.6585 -5.09108,-5.0909 z"
         id="path3" />
      <path
         style="color:#000000;display:inline;fill:#000000;fill-rule:evenodd;stroke-linejoin:round;-inkscape-stroke:none"
         d="m 301.36523,318.58398 a 0.28002749,0.28002749 0 0 0 -0.2207,0.006 l -9.46875,4.37696 a 0.28002749,0.28002749 0 0 0 0.0723,0.53125 c 2.51488,0.41324 4.48078,2.36776 4.85937,4.85547 a 0.28002749,0.28002749 0 0 0 0.53125,0.0762 l 4.37695,-9.46875 a 0.28002749,0.28002749 0 0 0 -0.15039,-0.37696 z m -0.67578,0.83204 -3.75976,8.13281 c -0.5965,-2.12571 -2.23871,-3.75606 -4.38086,-4.36914 z"
         id="path4" />
    </g>
    <g
       inkscape:label="axis-world"
       id="axis-world"
       transform="translate(140.00001,20.000017)"
       style="display:inline">
      <rect
         style="display:inline;fill:none;fill-opacity:0.868478;fill-rule:nonzero"
         id="rect6-6"
         width="16"
         height="16"
         x="-9.9999997e-06"
         y="1036.3622"
         inkscape:label="bbox" />
      <path
         style="fill:#000000;fill-opacity:1;fill-rule:evenodd;stroke:none;stroke-width:1px;stroke-linecap:butt;stroke-linejoin:miter;stroke-opacity:1"
         d="m 5.9999887,1041.3622 2.4e-5,5 h 4.9999763 l -2.4e-5,-5 z"
         id="path6081-7"
         inkscape:connector-curvature="0" />
      <path
         id="rect7892"
         d="m 0.99999,1037.3622 v 13 1 h 1 13 v -1 h -13 v -13 z"
         style="display:inline;fill:#000000;fill-opacity:1;stroke:none;stroke-width:1;stroke-linejoin:miter;stroke-miterlimit:4;stroke-dasharray:none;stroke-dashoffset:0.9;stroke-opacity:1"
         inkscape:connector-curvature="0" />
    </g>
    <g
       id="g10"
       inkscape:label="browser-list-view"
       transform="translate(-20)"
       inkscape:export-filename="icons/browser-list-view-symbolic.svg"
       inkscape:export-xdpi="96"
       inkscape:export-ydpi="96">
      <rect
         style="display:inline;fill:#000000;fill-opacity:1;stroke:none;stroke-width:1.99999"
         id="rect33-3"
         width="4"
         height="4"
         x="21"
         y="1157.3622" />
      <rect
         style="display:inline;fill:#000000;fill-opacity:1;stroke:none;stroke-width:0.894427"
         id="rect34-6"
         width="8"
         height="2"
         x="27"
         y="1158.3622" />
      <rect
         style="display:inline;fill:#000000;fill-opacity:1;stroke:none;stroke-width:1.99999"
         id="rect40-7"
         width="4"
         height="4"
         x="21"
         y="1162.3622" />
      <rect
         style="display:inline;fill:#000000;fill-opacity:1;stroke:none;stroke-width:0.894428"
         id="rect41-5"
         width="8"
         height="2"
         x="27"
         y="1163.3622" />
      <rect
         style="display:inline;fill:#000000;fill-opacity:1;stroke:none;stroke-width:1.99999"
         id="rect42-3"
         width="4"
         height="4"
         x="21"
         y="1167.3622" />
      <rect
         style="display:inline;fill:none;fill-opacity:0.868478;stroke:none;stroke-width:1.00157;stroke-opacity:0.577483"
         id="rect28"
         width="16"
         height="16"
         x="20"
         y="1156.3622"
         inkscape:label="bbox" />
      <rect
         style="display:inline;fill:#000000;fill-opacity:1;stroke:none;stroke-width:0.894428"
         id="rect43-5"
         width="8"
         height="2"
         x="27"
         y="1168.3622" />
    </g>
    <g
       id="browser-favorites"
       style="display:inline"
       transform="translate(0,40)"
       inkscape:label="browser-favorites">
      <rect
         style="display:inline;fill:none;fill-opacity:0.868478;stroke:none;stroke-width:1.00157;stroke-opacity:0.577483"
         id="rect24"
         width="16"
         height="16"
         x="0"
         y="1096.3622"
         inkscape:label="bbox" />
      <path
         sodipodi:type="star"
         style="fill:#000000;stroke-width:0.94709;stroke-opacity:0.8"
         id="path35"
         inkscape:flatsided="false"
         sodipodi:sides="5"
         sodipodi:cx="20.863785"
         sodipodi:cy="64.310493"
         sodipodi:r1="7.1367178"
         sodipodi:r2="2.8546872"
         sodipodi:arg1="-1.5707963"
         sodipodi:arg2="-0.9424778"
         inkscape:rounded="-3.469447e-18"
         inkscape:randomized="0"
         d="m 20.863785,57.173776 1.677943,4.827227 5.109479,0.104124 -4.072453,3.087513 1.479888,4.89158 -4.194857,-2.919039 -4.194858,2.919038 1.479889,-4.891579 -4.072453,-3.087514 5.109479,-0.104123 z"
         transform="matrix(1.0313194,0,0,1.0843934,-13.517226,1035.3633)"
         inkscape:transform-center-y="-0.73902027" />
    </g>
    <g
       id="browser-icon-view"
       inkscape:label="browser-icon-view"
       style="display:inline"
       transform="translate(-40.000004,120.00002)"
       inkscape:export-filename="icons/browser-icon-view-symbolic.svg"
       inkscape:export-xdpi="96"
       inkscape:export-ydpi="96">
      <rect
         style="fill:#000000;stroke-width:1.20188;stroke-opacity:0.8"
         id="rect3"
         width="6"
         height="6"
         x="89"
         y="1017.3622"
         ry="0" />
      <rect
         style="fill:#000000;stroke-width:1.20188;stroke-opacity:0.8"
         id="rect7"
         width="6"
         height="6"
         x="81.000008"
         y="1025.3622"
         ry="0" />
      <rect
         style="fill:#000000;stroke-width:1.20188;stroke-opacity:0.8"
         id="rect8"
         width="6"
         height="6"
         x="89"
         y="1025.3622"
         ry="0" />
      <rect
         style="fill:#000000;stroke-width:1.20188;stroke-opacity:0.8"
         id="rect9"
         width="6"
         height="6"
         x="81.000008"
         y="1017.3622"
         ry="0" />
      <rect
         style="display:inline;fill:none;fill-opacity:0.868478;stroke:none;stroke-width:1.00157;stroke-opacity:0.577483"
         id="rect44"
         width="16"
         height="16"
         x="80.000008"
         y="1016.3622"
         inkscape:label="bbox" />
    </g>
    <g
       id="browser-folder"
       inkscape:label="browser-folder"
       style="display:inline"
       transform="translate(-60.000004,121.00002)">
      <rect
         style="display:inline;fill:none;fill-opacity:0.868478;stroke:none;stroke-width:1.00157;stroke-opacity:0.577483"
         id="rect23"
         width="16"
         height="16"
         x="80.000008"
         y="1015.3622"
         inkscape:label="bbox" />
      <path
         id="rect1"
         style="fill:#000000;stroke-width:1.00157;stroke-opacity:0.577483"
         d="m 82.998051,1017.3622 c -1.106504,0 -1.998047,0.892 -1.998047,2 v 4 c 0,0.089 0.0064,0.1759 0.01758,0.2617 v 3.7483 c 0,1.108 0.891544,2 1.998047,2 h 9.986375 c 1.106504,0 1.998,-0.892 1.998,-2 v -5.99 c 0,-1.108 -0.896042,-1.9198 -1.998,-2.02 h -4.002002 l -2,-2 z"
         sodipodi:nodetypes="csscssssssccc" />
    </g>
    <g
       id="level-object-light"
       transform="matrix(0.45116602,0,0,0.45116243,-67.981027,956.06612)"
       inkscape:label="level-object-light"
       inkscape:export-filename="/home/dani/git/crown/tools/level_editor/resources/icons/16x16/emblems/level-object-light.png"
       inkscape:export-xdpi="96"
       inkscape:export-ydpi="96"
       style="display:inline">
      <rect
         style="display:inline;fill:none;fill-opacity:0.868478;stroke:none;stroke-width:2.21997;stroke-opacity:0.577483"
         id="rect25"
         width="35.463665"
         height="35.463947"
         x="195.0081"
         y="355.29572"
         inkscape:label="bbox" />
      <path
         id="rect2066"
         style="fill:#000000;fill-opacity:1;stroke:none;stroke-width:2.21995;stroke-miterlimit:4;stroke-dasharray:none"
         d="m 206.0905,381.8937 h 13.29888 v 2.2165 H 206.0905 Z" />
      <path
         id="rect2165"
         style="fill:#000000;fill-opacity:1;stroke:none;stroke-width:2.21995;stroke-miterlimit:4;stroke-dasharray:none"
         d="m 206.09051,386.32668 h 13.29886 v 2.2165 h -13.29886 z" />
      <path
         id="rect2165-9"
         style="display:inline;fill:#000000;fill-opacity:1;stroke:none;stroke-width:2.21995;stroke-miterlimit:4;stroke-dasharray:none"
         d="m 210.52346,388.54321 h 4.43296 v 2.21649 h -4.43296 z" />
      <path
         id="path2301"
         style="fill:#000000;fill-opacity:1;fill-rule:evenodd;stroke:none;stroke-width:2.21648px;stroke-linecap:butt;stroke-linejoin:miter;stroke-opacity:1"
         d="m 212.72574,357.52389 c -3.56108,-0.1752 -6.9897,1.64008 -9.29314,4.33262 -2.16475,2.44463 -3.09061,5.83177 -2.84465,9.08093 0.14501,2.78113 1.42294,5.49426 3.59341,7.22203 0.66183,0.52959 1.34946,1.2197 2.11698,1.51566 4.341,-0.009 8.71631,0.0174 13.03589,-0.0132 2.78154,-1.71786 5.19556,-4.52191 5.48236,-7.93743 0.48582,-3.78244 -0.56776,-7.9175 -3.42135,-10.52672 -2.22639,-2.38652 -5.41968,-3.80407 -8.6695,-3.67402 z" />
    </g>
    <g
       id="level-object-sound"
       inkscape:export-filename="/home/dani/git/crown/tools/level_editor/resources/icons/16x16/emblems/level-object-sound.png"
       inkscape:export-xdpi="96"
       inkscape:export-ydpi="96"
       inkscape:label="level-object-sound"
       style="display:inline"
       transform="matrix(0.45116602,0,0,0.45116243,-69.947825,955.88932)">
      <rect
         style="display:inline;fill:none;fill-opacity:0.868478;stroke:none;stroke-width:2.21997;stroke-opacity:0.577483"
         id="rect26"
         width="35.463665"
         height="35.463947"
         x="288.02661"
         y="355.68759"
         inkscape:label="bbox" />
      <path
         id="rect2326"
         style="fill:#000000;fill-opacity:1;stroke:none;stroke-width:2.95457"
         d="m 288.02662,366.77014 h 2.21648 v 13.29898 h -2.21648 z" />
      <path
         id="rect2328"
         style="fill:#000000;fill-opacity:1;stroke:none;stroke-width:2.95458"
         d="m 303.54197,360.12064 -8.86591,6.64948 h -2.21648 v 13.29898 h 2.21648 l 8.86591,6.64949 z"
         sodipodi:nodetypes="ccccccc" />
      <path
         id="path2385"
         style="fill:#000000;fill-opacity:1;fill-rule:evenodd;stroke:none;stroke-width:2.21649px;stroke-linecap:butt;stroke-linejoin:miter;stroke-opacity:1"
         d="m 305.75846,363.42435 v 3.38218 a 9.9951864,9.9952668 0 0 1 2.4988,6.61309 9.9951864,9.9952668 0 0 1 -2.4988,6.61308 v 3.38218 a 12.493984,12.494083 0 0 0 4.9976,-9.99526 12.493984,12.494083 0 0 0 -4.9976,-9.99527 z" />
      <path
         id="ellipse2395"
         style="fill:#000000;fill-opacity:1;fill-rule:evenodd;stroke:none;stroke-width:2.21649px;stroke-linecap:butt;stroke-linejoin:miter;stroke-opacity:1"
         d="m 314.62437,359.06605 v 3.17721 a 14.992782,14.992899 0 0 1 4.99759,11.17636 14.992782,14.992899 0 0 1 -4.99759,11.17635 v 3.17721 a 17.491578,17.491717 0 0 0 7.4964,-14.35356 17.491578,17.491717 0 0 0 -7.4964,-14.35357 z" />
      <path
         id="ellipse2399"
         style="fill:#000000;fill-opacity:1;fill-rule:evenodd;stroke:none;stroke-width:2.21649px;stroke-linecap:butt;stroke-linejoin:miter;stroke-opacity:1"
         d="m 310.19141,361.24764 v 3.25529 a 12.493984,12.494083 0 0 1 3.7482,8.92156 12.493984,12.494083 0 0 1 -3.7482,8.91667 v 3.25042 a 14.992781,14.9929 0 0 0 6.24699,-12.16708 14.992781,14.9929 0 0 0 -6.24699,-12.17686 z" />
    </g>
    <g
       id="level-object-camera"
       inkscape:export-filename="/home/dani/git/crown/tools/level_editor/resources/icons/16x16/emblems/level-object-camera.png"
       inkscape:export-xdpi="96"
       inkscape:export-ydpi="96"
       inkscape:label="level-object-camera"
       style="display:inline"
       transform="matrix(0.45116602,0,0,0.45116243,-69.947825,955.88932)">
      <rect
         style="display:inline;fill:none;fill-opacity:0.868478;stroke:none;stroke-width:2.21997;stroke-opacity:0.577483"
         id="rect4"
         width="35.463665"
         height="35.463947"
         x="243.69704"
         y="355.68759"
         inkscape:label="bbox" />
      <path
         id="rect2580"
         style="opacity:0.997;fill:#000000;fill-opacity:1;stroke:none;stroke-width:2.95457;stroke-opacity:1"
         d="m 249.39682,377.85261 h 17.41467 c 0.70182,0 1.26682,0.56352 1.26682,1.2635 v 8.52645 c 0,0.69997 -0.565,1.26349 -1.26682,1.26349 h -17.41467 c -0.70182,0 -1.26682,-0.56352 -1.26682,-1.26349 v -8.52645 c 0,-0.69998 0.565,-1.2635 1.26682,-1.2635 z" />
      <path
         style="vector-effect:none;fill:#000000;fill-opacity:1;fill-rule:evenodd;stroke:none;stroke-width:0.221649;stroke-linecap:butt;stroke-linejoin:miter;stroke-miterlimit:4;stroke-dasharray:none;stroke-dashoffset:0;stroke-opacity:1"
         d="m 279.1607,377.8526 -8.86591,4.433 v 2.2165 l 8.86591,4.43298 z"
         id="path2616"
         sodipodi:nodetypes="ccccc" />
      <path
         style="vector-effect:none;fill:#000000;fill-opacity:1;fill-rule:evenodd;stroke:none;stroke-width:0.221649;stroke-linecap:butt;stroke-linejoin:miter;stroke-miterlimit:4;stroke-dasharray:none;stroke-dashoffset:0;stroke-opacity:1"
         d="m 243.69704,377.85261 4.43296,2.2165 v 0 l -4.43296,2.21649 z"
         id="path2651"
         sodipodi:nodetypes="ccccc" />
      <path
         id="path2618"
         style="fill:#000000;fill-opacity:1;fill-rule:evenodd;stroke:none;stroke-width:2.21651px;stroke-linecap:butt;stroke-linejoin:miter;stroke-opacity:1"
         d="m 266.03916,357.90414 a 8.6885979,8.8331199 0 0 0 -8.36375,6.45158 7.4473696,7.5712456 0 0 0 -6.531,-3.92834 7.4473696,7.5712456 0 0 0 -7.44736,7.56975 7.4473696,7.5712456 0 0 0 7.44736,7.5747 v 0.0643 h 14.89475 v -0.0643 a 8.6885979,8.8331199 0 0 0 8.68859,-8.83632 8.6885979,8.8331199 0 0 0 -8.68859,-8.83137 z" />
    </g>
    <g
       transform="translate(2.1286464e-6,80.00002)"
       id="level-object-unit"
       inkscape:label="level-object-unit"
       style="display:inline"
       inkscape:export-filename="/home/dani/git/crown/tools/level_editor/resources/icons/16x16/objects/unit.png"
       inkscape:export-xdpi="96"
       inkscape:export-ydpi="96">
      <rect
         style="display:inline;fill:none;fill-opacity:0.868478;stroke:none;stroke-width:1.00157;stroke-opacity:0.577483"
         id="rect27"
         width="16"
         height="16"
         x="-2.1286464e-06"
         y="1036.3622"
         inkscape:label="bbox" />
      <path
         id="path2666"
         style="fill:#000000;fill-opacity:1;fill-rule:evenodd;stroke:none;stroke-width:1px;stroke-linecap:butt;stroke-linejoin:miter;stroke-opacity:1"
         d="m 1,1037.3622 v 14 h 14 v -14 z m 2.4222006,2.7298 h 3.3291015 v 5.7445 c 0,0.4956 0.1024719,0.8825 0.3053386,1.1598 0.2086634,0.2772 0.5038436,0.4147 0.8863933,0.4147 0.4405118,0 0.8811028,-0.1001 1.3216146,-0.3008 v -6.223 l -0.7473959,-0.2119 v -0.5833 h 3.2607413 v 7.5241 l 0.799806,0.2119 v 0.5834 H 9.403646 l -0.1207683,-0.7247 -0.5924479,0.3099 c -0.8114691,0.4249 -1.5406036,0.6357 -2.1897786,0.6357 -1.5070139,0 -2.2604168,-0.8172 -2.2604167,-2.4518 v -5.2933 l -0.8180339,-0.2119 z" />
    </g>
    <g
       transform="translate(80.000002,80.00002)"
       id="level-object-unknown"
       inkscape:label="level-object-unknown"
       style="display:inline"
       inkscape:export-filename="/home/dani/git/crown/tools/level_editor/resources/icons/16x16/emblems/level-object-unknown.png"
       inkscape:export-xdpi="96"
       inkscape:export-ydpi="96">
      <rect
         style="display:inline;fill:none;fill-opacity:0.868478;stroke:none;stroke-width:1.00157;stroke-opacity:0.577483"
         id="rect2"
         width="16"
         height="16"
         x="-2e-06"
         y="1036.3622"
         inkscape:label="bbox" />
      <path
         id="path2898"
         style="fill:#000000;fill-opacity:1;fill-rule:evenodd;stroke:none;stroke-width:1px;stroke-linecap:butt;stroke-linejoin:miter;stroke-opacity:1"
         d="M 81,21 V 35 H 95 V 21 Z m 7.080078,2.021484 c 1.10026,0 1.963113,0.250569 2.589844,0.751954 0.631373,0.496741 0.947265,1.183124 0.947266,2.060546 0,0.450318 -0.102373,0.855423 -0.306641,1.212891 -0.199625,0.357468 -0.574502,0.732345 -1.126953,1.126953 l -0.529297,0.382813 c -0.315687,0.22748 -0.553094,0.45733 -0.710938,0.689453 -0.1532,0.232122 -0.236072,0.487078 -0.25,0.765625 h -1.859375 c 0.02786,-0.47353 0.15972,-0.896183 0.396485,-1.267578 0.241407,-0.371396 0.594349,-0.717998 1.058593,-1.042969 0.496742,-0.343541 0.846514,-0.646273 1.050782,-0.90625 0.204267,-0.26462 0.30664,-0.556624 0.30664,-0.876953 0,-0.408536 -0.135035,-0.731985 -0.404296,-0.96875 -0.26462,-0.236765 -0.642667,-0.353516 -1.134766,-0.353516 -0.468887,0 -0.863265,0.136252 -1.183594,0.410156 -0.315686,0.273905 -0.500931,0.63562 -0.55664,1.085938 l -1.984376,-0.08398 c 0.125347,-0.942416 0.512167,-1.674622 1.16211,-2.199218 0.649943,-0.524597 1.495248,-0.78711 2.535156,-0.78711 z m -1.302734,8.078125 h 2.013672 v 1.878907 h -2.013672 z"
         transform="translate(-80.000002,1016.3622)" />
    </g>
    <g
       id="g5"
       inkscape:label="hearth"
       transform="translate(0.87532774)">
      <rect
         style="display:inline;fill:none;fill-opacity:0.868478;stroke:none;stroke-width:1.00157;stroke-opacity:0.577483"
         id="rect5"
         width="16"
         height="16"
         x="59.124672"
         y="1136.3622"
         inkscape:label="bbox" />
      <path
         id="path1"
         style="vector-effect:none;fill:#000000;fill-opacity:1;fill-rule:evenodd;stroke:none;stroke-width:0.1;stroke-linecap:butt;stroke-linejoin:miter;stroke-miterlimit:4;stroke-dasharray:none;stroke-dashoffset:0;stroke-opacity:1"
         d="m 63.909981,1138.2955 c -1.382785,-0.014 -2.789835,0.9526 -3.653055,2.9937 -0.947072,4.7638 3.38392,4.9527 6.879263,9.1398 3.495342,-4.1871 7.8027,-4.376 6.855628,-9.1398 -1.624887,-3.842 -5.175076,-3.8765 -6.867204,-0.7303 -0.793185,-1.4748 -1.994527,-2.251 -3.214632,-2.2634 z"
         inkscape:label="hearth" />
    </g>
    <g
       id="g29"
       inkscape:label="list-sort">
      <rect
         style="display:inline;fill:#000000;fill-opacity:1;stroke:none;stroke-width:1.18322"
         id="rect34-6-6"
         width="14"
         height="2"
         x="21"
         y="1158.3622" />
      <rect
         style="display:inline;fill:none;fill-opacity:0.868478;stroke:none;stroke-width:1.00157;stroke-opacity:0.577483"
         id="rect10"
         width="16"
         height="16"
         x="20"
         y="1156.3622"
         inkscape:label="bbox" />
      <rect
         style="display:inline;fill:#000000;fill-opacity:1;stroke:none;stroke-width:1.28765"
         id="rect29"
         width="10"
         height="2"
         x="21"
         y="1163.3622" />
      <rect
         style="display:inline;fill:#000000;fill-opacity:1;stroke:none;stroke-width:0.774598"
         id="rect30"
         width="6"
         height="2"
         x="21"
         y="1168.3622" />
      <path
         id="rect31"
         style="display:inline;fill:#000000;fill-opacity:1;stroke:none;stroke-width:0.696343"
         d="M 33 1163.3622 L 33 1168.3622 L 32 1168.3622 L 33.5 1170.3622 L 35 1168.3622 L 34 1168.3622 L 34 1163.3622 L 33 1163.3622 z " />
    </g>
  </g>
</svg>
