<?xml version="1.0" encoding="UTF-8" standalone="no"?>
<svg
   width="512"
   height="512"
   viewBox="0 0 512 512"
   id="svg4213"
   version="1.1"
   inkscape:version="1.4.2 (ebf0e940d0, 2025-05-08)"
   inkscape:export-filename="/home/dani/git/crown/tools/level_editor/resources/icons/16x16/emblems/level-object-camera.png"
   inkscape:export-xdpi="96"
   inkscape:export-ydpi="96"
   sodipodi:docname="icons.svg"
   xml:space="preserve"
   xmlns:inkscape="http://www.inkscape.org/namespaces/inkscape"
   xmlns:sodipodi="http://sodipodi.sourceforge.net/DTD/sodipodi-0.dtd"
   xmlns="http://www.w3.org/2000/svg"
   xmlns:svg="http://www.w3.org/2000/svg"
   xmlns:rdf="http://www.w3.org/1999/02/22-rdf-syntax-ns#"
   xmlns:cc="http://creativecommons.org/ns#"
   xmlns:dc="http://purl.org/dc/elements/1.1/"><sodipodi:namedview
     id="base"
     pagecolor="#7f7f7f"
     bordercolor="#666666"
     borderopacity="1.0"
     inkscape:pageopacity="0"
     inkscape:pageshadow="2"
     inkscape:zoom="11.313708"
     inkscape:cx="43.487067"
     inkscape:cy="166.17009"
     inkscape:document-units="px"
     inkscape:current-layer="layer1"
     showgrid="false"
     units="px"
     inkscape:window-width="2560"
     inkscape:window-height="1368"
     inkscape:window-x="0"
     inkscape:window-y="35"
     inkscape:window-maximized="1"
     inkscape:snap-bbox="true"
     inkscape:bbox-nodes="true"
     inkscape:document-rotation="0"
     inkscape:pagecheckerboard="true"
     showguides="true"
     inkscape:snap-global="false"
     inkscape:showpageshadow="2"
     inkscape:deskcolor="#838383"><inkscape:grid
       type="xygrid"
       id="grid4761"
       dotted="true"
       visible="false"
       originx="0"
       originy="2.7755576e-17"
       spacingy="1"
       spacingx="1"
       units="px"
       snapvisiblegridlinesonly="true"
       enabled="true"
       empspacing="8" /></sodipodi:namedview><defs
     id="defs4215"><inkscape:path-effect
       effect="bspline"
       id="path-effect58"
       is_visible="true"
       lpeversion="1.3"
       weight="33.333333"
       steps="2"
       helper_size="0"
       apply_no_weight="true"
       apply_with_weight="true"
       only_selected="false"
       uniform="false" /><inkscape:path-effect
       effect="bspline"
       id="path-effect57"
       is_visible="true"
       lpeversion="1.3"
       weight="33.333333"
       steps="2"
       helper_size="0"
       apply_no_weight="true"
       apply_with_weight="true"
       only_selected="false"
       uniform="false" /><inkscape:path-effect
       effect="simplify"
       id="path-effect87"
       is_visible="true"
       lpeversion="1.3"
       threshold="3.2"
       steps="1"
       smooth_angles="76.390244"
       helper_size="10"
       simplify_individual_paths="false"
       simplify_just_coalesce="false" /><inkscape:path-effect
       effect="simplify"
       id="path-effect64"
       is_visible="true"
       lpeversion="1.3"
       threshold="4.8054388"
       steps="2.3830645"
       smooth_angles="40.645161"
       helper_size="13.427419"
       simplify_individual_paths="false"
       simplify_just_coalesce="false" /><inkscape:path-effect
       effect="skeletal"
       id="path-effect2612"
       is_visible="true"
       lpeversion="1"
       pattern="M 0,5 C 0,2.24 2.24,0 5,0 7.76,0 10,2.24 10,5 10,7.76 7.76,10 5,10 2.24,10 0,7.76 0,5 Z"
       copytype="single_stretched"
       prop_scale="1"
       scale_y_rel="false"
       spacing="0"
       normal_offset="0"
       tang_offset="0"
       prop_units="false"
       vertical_pattern="false"
       hide_knot="false"
       fuse_tolerance="0" /><inkscape:path-effect
       effect="skeletal"
       id="path-effect2608"
       is_visible="true"
       lpeversion="1"
       pattern="M 0,5 C 0,2.24 2.24,0 5,0 7.76,0 10,2.24 10,5 10,7.76 7.76,10 5,10 2.24,10 0,7.76 0,5 Z"
       copytype="single_stretched"
       prop_scale="1"
       scale_y_rel="false"
       spacing="0"
       normal_offset="0"
       tang_offset="0"
       prop_units="false"
       vertical_pattern="false"
       hide_knot="false"
       fuse_tolerance="0" /><inkscape:path-effect
       effect="skeletal"
       id="path-effect2584"
       is_visible="true"
       lpeversion="1"
       pattern="M 0,5 C 0,2.24 2.24,0 5,0 7.76,0 10,2.24 10,5 10,7.76 7.76,10 5,10 2.24,10 0,7.76 0,5 Z"
       copytype="single_stretched"
       prop_scale="1"
       scale_y_rel="false"
       spacing="0"
       normal_offset="0"
       tang_offset="0"
       prop_units="false"
       vertical_pattern="false"
       hide_knot="false"
       fuse_tolerance="0" /><marker
       inkscape:stockid="Arrow2Mend"
       orient="auto"
       refY="0"
       refX="0"
       id="Arrow2Mend"
       style="overflow:visible"
       inkscape:isstock="true"><path
         inkscape:connector-curvature="0"
         id="path13972"
         style="fill:#000000;fill-opacity:1;fill-rule:evenodd;stroke:#000000;stroke-width:0.625;stroke-linejoin:round;stroke-opacity:1"
         d="M 8.7185878,4.0337352 -2.2072895,0.01601326 8.7185884,-4.0017078 c -1.7454984,2.3720609 -1.7354408,5.6174519 -6e-7,8.035443 z"
         transform="scale(-0.6)" /></marker></defs><metadata
     id="metadata4218"><rdf:RDF><cc:Work
         rdf:about=""><dc:format>image/svg+xml</dc:format><dc:type
           rdf:resource="http://purl.org/dc/dcmitype/StillImage" /></cc:Work></rdf:RDF></metadata><g
     inkscape:label="actions"
     inkscape:groupmode="layer"
     id="layer1"
     transform="translate(0,-1036.3622)"
     style="display:inline"><g
       id="g154"
       inkscape:label="object-state-machine"><rect
         style="display:inline;fill:none;fill-opacity:0.868478;stroke:none;stroke-width:1.00157;stroke-opacity:0.577483"
         id="rect154"
         width="16"
         height="16"
         x="80"
         y="1196.3622"
         inkscape:label="bbox" /><path
         id="path95"
         style="display:inline;fill:#000000;fill-opacity:1;stroke:none;stroke-width:0.790498;stroke-opacity:1"
         d="m 91.574287,1197.3253 a 1.375,1.375 0 0 0 -1.87691,0.5084 1.375,1.375 0 0 0 0.50842,1.8769 1.375,1.375 0 0 0 1.8769,-0.5084 1.375,1.375 0 0 0 -0.50841,-1.8769 z m 2.70115,5.0489 a 0.74990559,0.74990559 0 0 0 -0.47832,-0.065 0.74990559,0.74990559 0 0 0 -0.0177,0 l -1.43754,0.2764 a 0.74990559,0.74990559 0 0 0 -0.005,0 h -0.0123 a 0.74990559,0.74990559 0 0 0 -0.005,0 0.74990559,0.74990559 0 0 0 -0.0177,0 l -0.75899,0.1455 -0.38857,-1.4343 -0.002,-9e-4 a 0.74990559,0.74990559 0 0 0 -0.0103,-0.033 0.74990559,0.74990559 0 0 0 -0.36548,-0.768 l -1.21977,-0.6998 -0.2609,-0.1497 -1.21976,-0.6998 -1.28414,-0.7367 a 0.74990559,0.74990559 0 0 0 -0.0484,-0.026 0.74990559,0.74990559 0 0 0 -0.0465,-0.029 0.74990559,0.74990559 0 0 0 -1.02376,0.2773 0.74990559,0.74990559 0 0 0 -0.009,0.015 l -0.73774,1.2859 a 0.74990559,0.74990559 0 0 0 -0.0416,0.084 0.74990559,0.74990559 0 0 0 -0.0518,0.078 0.74990559,0.74990559 0 0 0 -0.009,0.015 l -0.73774,1.2859 a 0.74990559,0.74990559 0 0 0 0.27732,1.0238 0.74990559,0.74990559 0 0 0 1.02376,-0.2773 l 0.74645,-1.3011 a 0.74990559,0.74990559 0 0 0 0.0426,-0.086 0.74990559,0.74990559 0 0 0 0.0507,-0.077 l 0.37322,-0.6505 0.74541,0.4276 0.49977,0.2868 -0.50869,0.969 a 0.74990559,0.74990559 0 0 0 -0.0139,0.028 0.74990559,0.74990559 0 0 0 -0.0399,0.085 0.74990559,0.74990559 0 0 0 -0.0484,0.08 l -0.68855,1.314 a 0.74990559,0.74990559 0 0 0 -0.008,0.014 0.74990559,0.74990559 0 0 0 -0.0411,0.091 l -0.0481,0.092 a 0.74990559,0.74990559 0 0 0 -0.0392,0.088 0.74990559,0.74990559 0 0 0 -0.0474,0.079 0.74990559,0.74990559 0 0 0 -0.0119,0.025 l -0.044,0.081 a 0.74990559,0.74990559 0 0 0 -0.0418,0.073 0.74990559,0.74990559 0 0 0 -0.0126,0.022 l -0.67085,1.2792 a 0.74990559,0.74990559 0 0 0 -0.0146,0.025 0.74990559,0.74990559 0 0 0 -0.0391,0.088 0.74990559,0.74990559 0 0 0 -0.0474,0.079 l -0.68857,1.314 a 0.74990559,0.74990559 0 0 0 -0.009,0.015 0.74990559,0.74990559 0 0 0 -0.025,0.055 l -0.11763,0.2207 a 0.74990559,0.74990559 0 0 0 -0.0165,0.029 0.74990559,0.74990559 0 0 0 -0.0392,0.088 0.74990559,0.74990559 0 0 0 -0.0474,0.079 l -0.67791,1.2955 -0.003,7e-4 a 0.74990559,0.74990559 0 0 1 -9.9e-4,0 0.74990559,0.74990559 0 0 1 -9.5e-4,0 l -1.06228,0.9803 a 0.74990559,0.74990559 0 0 0 -0.066,0.068 0.74990559,0.74990559 0 0 0 -0.0726,0.06 0.74990559,0.74990559 0 0 0 -0.0112,0.012 l -1.0698,0.9894 a 0.74990559,0.74990559 0 0 0 -0.008,0.01 l -0.0112,0.012 a 0.74990559,0.74990559 0 0 0 -0.0422,1.0587 0.74990559,0.74990559 0 0 0 1.05981,0.041 l 0.002,10e-4 1.09937,-1.0175 a 0.74990559,0.74990559 0 0 1 0.001,0 0.74990559,0.74990559 0 0 0 0.0633,-0.067 0.74990559,0.74990559 0 0 0 0.0742,-0.059 l 1.10041,-1.0193 a 0.74990559,0.74990559 0 0 0 0.13933,-0.1722 0.74990559,0.74990559 0 0 0 0.11707,-0.1648 l 0.69801,-1.3266 -0.002,-9e-4 a 0.74990559,0.74990559 0 0 0 0.0399,-0.085 0.74990559,0.74990559 0 0 1 9.4e-4,0 0.74990559,0.74990559 0 0 0 0.0484,-0.08 l 0.69633,-1.3276 a 0.74990559,0.74990559 0 0 0 0.0219,-0.046 l 0.13828,-0.2606 -0.002,-10e-4 a 0.74990559,0.74990559 0 0 0 0.0389,-0.084 0.74990559,0.74990559 0 0 1 10e-4,0 0.74990559,0.74990559 0 0 0 0.0483,-0.08 l 0.009,-0.015 0.91144,0.5229 0.94871,0.5443 0.38287,0.2196 -0.47554,0.2834 a 0.74990559,0.74990559 0 0 0 -0.006,0 l -0.0145,0.01 a 0.74990559,0.74990559 0 0 0 -0.0774,0.052 0.74990559,0.74990559 0 0 0 -0.0838,0.044 0.74990559,0.74990559 0 0 0 -0.0236,0.014 l -1.26539,0.7534 a 0.74990559,0.74990559 0 0 0 -0.2593,1.029 0.74990559,0.74990559 0 0 0 1.0289,0.2593 l 1.28724,-0.768 a 0.74990559,0.74990559 0 0 0 0.0774,-0.053 0.74990559,0.74990559 0 0 1 9.5e-4,0 0.74990559,0.74990559 0 0 0 0.0829,-0.043 l 1.28894,-0.767 a 0.74990559,0.74990559 0 0 0 0.18316,-0.1583 0.74990559,0.74990559 0 0 0 0.36101,-0.3153 0.74990559,0.74990559 0 0 0 -0.27731,-1.0237 l -0.97074,-0.557 -0.49298,-0.2828 -0.91991,-0.5278 0.6295,-1.1992 a 0.74990559,0.74990559 0 0 0 0.0382,-0.086 0.74990559,0.74990559 0 0 0 0.05,-0.079 l 0.57361,-1.094 a 0.74990559,0.74990559 0 0 0 0.002,0 0.74990559,0.74990559 0 0 0 0.008,0.029 l 0.19641,0.7252 a 0.74990559,0.74990559 0 0 0 0.006,0.028 l 0.002,0 a 0.74990559,0.74990559 0 0 0 0.009,0.032 l 0.16251,0.5998 a 0.74990559,0.74990559 0 0 0 0.003,0.015 l 0.006,0.017 a 0.74990559,0.74990559 0 0 0 0.9199,0.5277 0.74990559,0.74990559 0 0 0 0.0303,-0.01 l 1.37912,-0.2649 h 0.0124 a 0.74990559,0.74990559 0 0 0 0.005,0 l 1.45523,-0.2797 a 0.74990559,0.74990559 0 0 0 0.59456,-0.8794 0.74990559,0.74990559 0 0 0 -0.39933,-0.5285 z" /></g><g
       transform="translate(20,40.000017)"
       id="game-stop"
       inkscape:label="game-stop"
       style="display:inline"><rect
         style="display:inline;fill:none;fill-opacity:0.868478;stroke:none;stroke-width:1.00157;stroke-opacity:0.577483"
         id="rect22"
         width="16"
         height="16"
         x="0"
         y="1036.3622"
         inkscape:label="bbox" /><path
         inkscape:connector-curvature="0"
         id="path5439"
         d="m 1.0000022,1037.3622 v 14 H 15.000002 v -14 z"
         style="fill:#000000;fill-opacity:1;fill-rule:evenodd;stroke:none;stroke-width:1px;stroke-linecap:butt;stroke-linejoin:miter;stroke-opacity:1" /></g><g
       transform="translate(0,40.000017)"
       id="game-run"
       inkscape:label="game-run"
       style="display:inline"><rect
         style="display:inline;fill:none;fill-opacity:0.868478"
         id="rect21"
         width="16"
         height="16"
         x="1e-06"
         y="1036.3622"
         inkscape:label="bbox" /><path
         sodipodi:nodetypes="cccc"
         inkscape:connector-curvature="0"
         id="path5418"
         d="m 1,1037.3622 v 14 l 14,-7 z"
         style="fill:#000000;fill-opacity:1;fill-rule:evenodd;stroke:none;stroke-width:1px;stroke-linecap:butt;stroke-linejoin:miter;stroke-opacity:1" /></g><g
       id="level-tree"
       inkscape:export-xdpi="90"
       inkscape:export-ydpi="90"
       inkscape:label="level-tree"
       style="display:inline"
       transform="matrix(0.45116602,0,0,0.45116243,-289.94783,895.88932)"><rect
         style="display:inline;fill:none;fill-opacity:0.868478;stroke:none;stroke-width:2.21997;stroke-opacity:0.577483"
         id="rect20"
         width="35.463665"
         height="35.463947"
         x="686.99286"
         y="311.35767"
         inkscape:label="bbox" /><path
         style="fill:#000000;fill-opacity:1;stroke:none;stroke-width:0.0999999;stroke-linejoin:miter;stroke-miterlimit:4.1;stroke-dasharray:none;stroke-dashoffset:0.9;stroke-opacity:1"
         d="m 695.85877,313.57421 v 6.64949 h 2.21647 v 6.64949 2.21649 8.86599 2.2165 h 8.86592 v 2.21649 h 6.64944 v -6.64949 h -6.64944 v 2.2165 h -6.64944 v -8.86599 h 6.64944 v 2.2165 h 6.64944 v -6.64949 h -6.64944 v 2.2165 h -6.64944 v -6.64949 h 2.21648 v -6.64949 z"
         id="rect4348" /></g><g
       id="level-layers"
       inkscape:export-xdpi="90"
       inkscape:export-ydpi="90"
       inkscape:label="level-layers"
       style="display:inline;stroke-width:1"
       transform="matrix(0.45116602,0,0,0.45116243,-289.94783,895.88932)"><rect
         style="display:inline;fill:none;fill-opacity:0.868478;stroke:none;stroke-width:1.00157;stroke-opacity:0.577483"
         id="rect6-6-5"
         width="16"
         height="16"
         x="46"
         y="1033.3622"
         transform="matrix(2.216479,0,0,2.2164966,540.70524,-1979.0862)"
         inkscape:label="bbox" /><path
         inkscape:connector-curvature="0"
         id="rect4390"
         d="m 648.75859,326.87316 -3.87884,2.21649 15.51535,8.86599 15.51535,-8.86599 -3.87883,-2.21649 -11.63652,6.64949 z"
         style="fill:#000000;fill-opacity:1;stroke:none;stroke-width:0.258203;stroke-linejoin:miter;stroke-miterlimit:4.1;stroke-dasharray:none;stroke-dashoffset:0.9;stroke-opacity:1" /><path
         id="rect4353-7"
         style="display:inline;fill:#000000;fill-opacity:1;stroke:none;stroke-width:0.239662;stroke-linejoin:miter;stroke-miterlimit:4.1;stroke-dasharray:none;stroke-dashoffset:0.9;stroke-opacity:1"
         d="m 660.39504,313.57421 15.51542,8.86602 -15.51529,8.86595 -15.51542,-8.86602 z" /><path
         inkscape:connector-curvature="0"
         style="fill:#000000;fill-opacity:1;stroke:none;stroke-width:0.258203;stroke-linejoin:miter;stroke-miterlimit:4.1;stroke-dasharray:none;stroke-dashoffset:0.9;stroke-opacity:1"
         d="m 648.75859,333.52265 -3.87884,2.21649 15.51535,8.86599 15.51535,-8.86599 -3.87883,-2.21649 -11.63652,6.64949 z"
         id="path4419" /></g><g
       inkscape:export-filename="/home/dani/git/crown/tools/ui/icons/theme/layer-visible.png"
       inkscape:export-xdpi="90"
       inkscape:export-ydpi="90"
       id="layer-visible"
       transform="matrix(0.45116602,0,0,0.45116243,-289.94783,896.55524)"
       inkscape:label="layer-visible"
       style="display:inline"><rect
         style="display:inline;fill:none;fill-opacity:0.868478;stroke:none;stroke-width:2.21997;stroke-opacity:0.577483"
         id="rect19"
         width="35.463665"
         height="35.463947"
         x="731.32245"
         y="309.88165"
         inkscape:label="bbox" /><path
         style="fill:#000000;fill-opacity:1;stroke:none;stroke-width:0.1;stroke-linejoin:miter;stroke-miterlimit:4.1;stroke-dasharray:none;stroke-dashoffset:0.9;stroke-opacity:1"
         d="m 749.05424,317.27005 a 15.51533,10.34367 0 0 0 -15.51535,10.34365 15.51533,10.34367 0 0 0 15.51535,10.34365 15.51533,10.34367 0 0 0 15.51536,-10.34365 15.51533,10.34367 0 0 0 -15.51536,-10.34365 z m 0,1.72731 a 14.22239,8.6197258 0 0 1 14.22241,8.61634 14.22239,8.6197258 0 0 1 -14.22241,8.62139 14.22239,8.6197258 0 0 1 -14.2224,-8.62139 14.22239,8.6197258 0 0 1 14.2224,-8.61634 z"
         id="path4620"
         inkscape:connector-curvature="0" /><path
         style="fill:#000000;fill-opacity:1;stroke:none;stroke-width:0.1;stroke-linejoin:miter;stroke-miterlimit:4.1;stroke-dasharray:none;stroke-dashoffset:0.9;stroke-opacity:1"
         d="m 749.05427,320.50244 a 7.1112019,7.1112598 0 0 0 -7.11123,7.11123 7.1112019,7.1112598 0 0 0 7.11123,7.11129 7.1112019,7.1112598 0 0 0 7.11119,-7.11129 7.1112019,7.1112598 0 0 0 -7.11119,-7.11123 z m 0,3.55564 a 3.5556017,3.5556304 0 0 1 3.5556,3.55559 3.5556017,3.5556304 0 0 1 -3.5556,3.55564 3.5556017,3.5556304 0 0 1 -3.55562,-3.55564 3.5556017,3.5556304 0 0 1 3.55562,-3.55559 z"
         id="path4625"
         inkscape:connector-curvature="0" /></g><g
       inkscape:export-filename="/home/dani/git/crown/tools/ui/icons/theme/layer-locked.png"
       inkscape:export-xdpi="90"
       inkscape:export-ydpi="90"
       id="layer-locked"
       transform="matrix(0.45116602,0,0,0.45116243,-288.94783,895.88933)"
       inkscape:label="layer-locked"
       style="display:inline"><rect
         style="display:inline;fill:none;fill-opacity:0.868478;stroke:none;stroke-width:2.21997;stroke-opacity:0.577483"
         id="rect18"
         width="35.463665"
         height="35.463947"
         x="773.43555"
         y="311.35764"
         inkscape:label="bbox" /><path
         sodipodi:nodetypes="cccccsccccccs"
         inkscape:connector-curvature="0"
         id="rect4755"
         d="m 782.30146,329.08967 v 13.29898 h 17.73183 v -13.29898 z m 8.86592,2.21649 c 1.39901,-10e-6 2.53313,1.15775 2.53313,2.58591 -7.2e-4,0.92312 -0.48343,1.77585 -1.26656,2.23741 v 4.04268 h -2.53315 v -4.04772 c -0.7816,-0.46066 -1.26407,-1.31105 -1.26654,-2.23237 0,-1.42816 1.13412,-2.58591 2.53312,-2.58591 z"
         style="fill:#000000;fill-opacity:1;stroke:none;stroke-width:0.1;stroke-linejoin:miter;stroke-miterlimit:4.1;stroke-dasharray:none;stroke-dashoffset:0.9;stroke-opacity:1" /><path
         inkscape:connector-curvature="0"
         id="path7958"
         d="m 791.16737,316.50932 c -3.32472,0 -6.64943,0.95374 -6.64943,2.85721 v 9.72314 h 2.21648 v -7.66682 c 0,-3.00193 8.86591,-3.00193 8.86591,0 v 7.66682 h 2.21648 v -9.72314 c 0,-1.90347 -3.32472,-2.85721 -6.64944,-2.85721 z"
         style="fill:#000000;fill-opacity:1;fill-rule:evenodd;stroke:none;stroke-width:2.21649px;stroke-linecap:butt;stroke-linejoin:miter;stroke-opacity:1" /></g><g
       id="tool-place"
       inkscape:label="tool-place"
       style="display:inline"
       transform="matrix(0.45116602,0,0,0.45116243,-69.947825,915.88932)"><rect
         style="display:inline;fill:none;fill-opacity:0.868478;stroke:none;stroke-width:2.21997;stroke-opacity:0.577483"
         id="rect17"
         width="35.463665"
         height="35.463947"
         x="155.03789"
         y="311.35767"
         inkscape:label="bbox" /><path
         id="rect4400"
         style="opacity:1;fill:#000000;fill-opacity:1;stroke:none;stroke-width:0.107018;stroke-miterlimit:4;stroke-dasharray:none;stroke-opacity:1"
         d="m 166.12029,335.73917 h 11.08239 v 11.08248 h -11.08239 z" /><path
         style="fill:#000000;fill-opacity:1;fill-rule:evenodd;stroke:none;stroke-width:1px;stroke-linecap:butt;stroke-linejoin:miter;stroke-opacity:1"
         d="M 7,1 V 6 H 5 L 7.5,9 10,6 H 8 V 1 Z"
         transform="matrix(2.216479,0,0,2.2164966,155.03789,311.35771)"
         id="path18809" /></g><g
       transform="matrix(0.44747134,0,0,0.46666712,55.473882,891.1473)"
       style="display:inline"
       id="snap-to-grid"
       inkscape:label="snap-to-grid"><rect
         style="display:inline;fill:none;fill-opacity:0.868478;stroke:none;stroke-width:2.19177;stroke-opacity:0.577483"
         id="rect16"
         width="35.756481"
         height="34.285683"
         x="233.59288"
         y="354.03159"
         inkscape:label="bbox" /><path
         id="rect4312"
         style="display:inline;opacity:1;fill:#000000;fill-opacity:1;stroke:none;stroke-width:0.2;stroke-linejoin:miter;stroke-miterlimit:4;stroke-dasharray:none;stroke-dashoffset:2.268;stroke-opacity:1"
         transform="matrix(0.89390837,0,0,0.85714327,24.444204,52.213324)"
         d="m 251.54224,374.62115 h 19.85784 c 0.0394,0 0.0711,0.0317 0.0711,0.0711 V 377.05 c 0,0.0394 -0.0317,0.0711 -0.0711,0.0711 h -19.85784 c -0.0394,0 -0.0711,-0.0317 -0.0711,-0.0711 v -2.35775 c 0,-0.0394 0.0317,-0.0711 0.0711,-0.0711 z" /><path
         id="rect4316"
         style="display:inline;opacity:1;fill:#000000;fill-opacity:1;stroke:none;stroke-width:0.2;stroke-linejoin:miter;stroke-miterlimit:4;stroke-dasharray:none;stroke-dashoffset:2.268;stroke-opacity:1"
         transform="matrix(0.89390837,0,0,0.85714327,24.444204,52.213324)"
         d="m 251.54224,382.12115 h 19.85784 c 0.0394,0 0.0711,0.0317 0.0711,0.0711 V 384.55 c 0,0.0394 -0.0317,0.0711 -0.0711,0.0711 h -19.85784 c -0.0394,0 -0.0711,-0.0317 -0.0711,-0.0711 v -2.35775 c 0,-0.0394 0.0317,-0.0711 0.0711,-0.0711 z" /><path
         id="rect4318"
         style="display:inline;opacity:1;fill:#000000;fill-opacity:1;stroke:none;stroke-width:0.2;stroke-linejoin:miter;stroke-miterlimit:4;stroke-dasharray:none;stroke-dashoffset:2.268;stroke-opacity:1"
         transform="matrix(0,0.85714327,-0.89390837,0,24.444204,52.213324)"
         d="m 369.69228,-258.97116 h 19.85773 c 0.0394,0 0.0711,0.0317 0.0711,0.0711 v 2.35777 c 0,0.0394 -0.0317,0.0711 -0.0711,0.0711 h -19.85773 c -0.0394,0 -0.0711,-0.0317 -0.0711,-0.0711 v -2.35777 c 0,-0.0394 0.0317,-0.0711 0.0711,-0.0711 z" /><path
         id="rect4320"
         style="display:inline;opacity:1;fill:#000000;fill-opacity:1;stroke:none;stroke-width:0.2;stroke-linejoin:miter;stroke-miterlimit:4;stroke-dasharray:none;stroke-dashoffset:2.268;stroke-opacity:1"
         transform="matrix(0,0.85714327,-0.89390837,0,24.444204,52.213324)"
         d="m 369.69228,-266.47119 h 19.85773 c 0.0394,0 0.0711,0.0317 0.0711,0.0711 v 2.35777 c 0,0.0394 -0.0317,0.0711 -0.0711,0.0711 h -19.85773 c -0.0394,0 -0.0711,-0.0317 -0.0711,-0.0711 v -2.35777 c 0,-0.0394 0.0317,-0.0711 0.0711,-0.0711 z" /><path
         sodipodi:nodetypes="sssccsssccs"
         inkscape:connector-curvature="0"
         style="display:inline;fill:#0000ff;fill-opacity:1;stroke:none;stroke-width:0.986029;stroke-linejoin:miter;stroke-miterlimit:4;stroke-dasharray:none;stroke-dashoffset:0.9;stroke-opacity:1"
         d="m 246.68518,355.97679 c -2.84768,-2.73054 -7.6324,-2.56971 -10.68697,0.35921 -3.05458,2.92893 -3.2223,7.51684 -0.37463,10.24738 l 3.1433,3.014 3.31848,-3.18198 -3.14329,-3.014 c -1.13907,-1.09222 -1.07199,-2.92738 0.14984,-4.09895 1.22183,-1.17157 3.13572,-1.2359 4.27479,-0.14369 l 3.14329,3.014 3.31848,-3.18197 z"
         id="path17555"
         class="error" /><path
         inkscape:connector-curvature="0"
         id="path17559"
         d="m 250.52813,359.66167 -3.31848,3.18198 2.06247,1.97763 3.31847,-3.18197 z m -7.74311,7.42461 -3.31848,3.18198 2.06247,1.97763 3.31848,-3.18198 z"
         style="display:inline;fill:#000000;fill-opacity:1;stroke:none;stroke-width:1.18323;stroke-linejoin:miter;stroke-miterlimit:4;stroke-dasharray:none;stroke-dashoffset:0.9;stroke-opacity:1" /></g><g
       id="tool-move"
       inkscape:label="tool-move"
       style="display:inline"
       transform="translate(0,20.000017)"><rect
         style="display:inline;fill:none;fill-opacity:0.868478;stroke:none;stroke-width:1.00157;stroke-opacity:0.577483"
         id="rect6"
         width="16"
         height="16"
         x="20"
         y="1036.3622"
         inkscape:label="bbox" /><path
         id="rect5009"
         style="fill:#000000;fill-opacity:1;stroke:none;stroke-width:0.0482835;stroke-miterlimit:4;stroke-dasharray:none;stroke-opacity:1"
         d="m 24.999999,1042.3622 h 5 v 5 h -5 z" /><path
         inkscape:connector-curvature="0"
         id="path13177"
         d="m 24.999999,1040.3622 2.500003,-3 2.499997,3 h -5"
         style="fill:#000000;fill-opacity:1;fill-rule:evenodd;stroke:none;stroke-width:1px;stroke-linecap:butt;stroke-linejoin:miter;stroke-opacity:1" /><path
         style="fill:#000000;fill-opacity:1;fill-rule:evenodd;stroke:none;stroke-width:1px;stroke-linecap:butt;stroke-linejoin:miter;stroke-opacity:1"
         d="m 24.999999,1049.3622 2.500003,3 2.499997,-3 h -5"
         id="path13179"
         inkscape:connector-curvature="0" /><path
         style="fill:#000000;fill-opacity:1;fill-rule:evenodd;stroke:none;stroke-width:1px;stroke-linecap:butt;stroke-linejoin:miter;stroke-opacity:1"
         d="m 31.999999,1042.3622 3,2.5 -3,2.5 v -5"
         id="path13181"
         inkscape:connector-curvature="0" /><path
         inkscape:connector-curvature="0"
         id="path13183"
         d="m 23,1042.3622 -3,2.5 3,2.5 v -5"
         style="fill:#000000;fill-opacity:1;fill-rule:evenodd;stroke:none;stroke-width:1px;stroke-linecap:butt;stroke-linejoin:miter;stroke-opacity:1" /></g><g
       transform="translate(100,4.0001174)"
       id="reference-world"
       inkscape:label="reference-world"
       style="display:inline"><rect
         style="display:inline;fill:none;fill-opacity:0.868478;stroke:none;stroke-width:1.00157;stroke-opacity:0.577483"
         id="rect15"
         width="16"
         height="16"
         x="0"
         y="1052.3621"
         inkscape:label="bbox" /><path
         id="rect7827"
         style="display:inline;opacity:1;fill:#000000;fill-opacity:1;stroke:none;stroke-width:1;stroke-linejoin:miter;stroke-miterlimit:4;stroke-dasharray:none;stroke-dashoffset:0.9;stroke-opacity:1"
         d="m 12.999996,1053.3622 h 1 v 15 h -1 z" /><path
         id="rect7829"
         style="display:inline;opacity:1;fill:#000000;fill-opacity:1;stroke:none;stroke-width:1;stroke-linejoin:miter;stroke-miterlimit:4;stroke-dasharray:none;stroke-dashoffset:0.9;stroke-opacity:1"
         d="M -2.2081347e-6,1054.3622 H 14.999998 v 1 H -2.2081347e-6 Z" /><path
         id="rect7831"
         style="display:inline;opacity:1;fill:#000000;fill-opacity:1;stroke:none;stroke-width:1;stroke-linejoin:miter;stroke-miterlimit:4;stroke-dasharray:none;stroke-dashoffset:0.9;stroke-opacity:1"
         d="M -2.2081347e-6,1060.3622 H 14.999998 v 1 H -2.2081347e-6 Z" /><path
         id="rect7833"
         style="display:inline;opacity:1;fill:#000000;fill-opacity:1;stroke:none;stroke-width:1;stroke-linejoin:miter;stroke-miterlimit:4;stroke-dasharray:none;stroke-dashoffset:0.9;stroke-opacity:1"
         d="M -2.2081347e-6,1066.3622 H 14.999998 v 1 H -2.2081347e-6 Z" /><path
         id="rect7835"
         style="display:inline;opacity:1;fill:#000000;fill-opacity:1;stroke:none;stroke-width:1;stroke-linejoin:miter;stroke-miterlimit:4;stroke-dasharray:none;stroke-dashoffset:0.9;stroke-opacity:1"
         d="m 6.9999962,1053.3622 h 1 v 15 h -1 z" /><path
         id="rect7837"
         style="display:inline;opacity:1;fill:#000000;fill-opacity:1;stroke:none;stroke-width:1;stroke-linejoin:miter;stroke-miterlimit:4;stroke-dasharray:none;stroke-dashoffset:0.9;stroke-opacity:1"
         d="M 0.99999619,1053.3622 H 1.9999962 v 15 H 0.99999619 Z" /></g><g
       transform="translate(80.000002,4.0001174)"
       id="reference-local"
       inkscape:label="reference-local"
       style="display:inline"><rect
         style="display:inline;fill:none;fill-opacity:0.868478;stroke:none;stroke-width:1.00157;stroke-opacity:0.577483"
         id="rect14"
         width="16"
         height="16"
         x="-2e-06"
         y="1052.3621"
         inkscape:label="bbox" /><path
         id="rect7847"
         style="display:inline;fill:#000000;fill-opacity:1;stroke:none;stroke-width:1;stroke-linejoin:miter;stroke-miterlimit:4;stroke-dasharray:none;stroke-dashoffset:0.9;stroke-opacity:1"
         d="m 12.999996,1053.3622 h 1 v 15 h -1 z" /><path
         id="rect7849"
         style="display:inline;fill:#000000;fill-opacity:1;stroke:none;stroke-width:1;stroke-linejoin:miter;stroke-miterlimit:4;stroke-dasharray:none;stroke-dashoffset:0.9;stroke-opacity:1"
         d="M -2.2081347e-6,1054.3622 H 14.999998 v 1 H -2.2081347e-6 Z" /><path
         id="rect7851"
         style="display:inline;fill:#000000;fill-opacity:1;stroke:none;stroke-width:1;stroke-linejoin:miter;stroke-miterlimit:4;stroke-dasharray:none;stroke-dashoffset:0.9;stroke-opacity:1"
         d="M -2.2081347e-6,1060.3622 H 14.999998 v 1 H -2.2081347e-6 Z" /><path
         id="rect7853"
         style="display:inline;fill:#000000;fill-opacity:1;stroke:none;stroke-width:1;stroke-linejoin:miter;stroke-miterlimit:4;stroke-dasharray:none;stroke-dashoffset:0.9;stroke-opacity:1"
         d="M -2.2081347e-6,1066.3622 H 14.999998 v 1 H -2.2081347e-6 Z" /><path
         id="rect7855"
         style="display:inline;fill:#000000;fill-opacity:1;stroke:none;stroke-width:1;stroke-linejoin:miter;stroke-miterlimit:4;stroke-dasharray:none;stroke-dashoffset:0.9;stroke-opacity:1"
         d="m 6.9999962,1053.3622 h 1 v 15 h -1 z" /><path
         id="rect7857"
         style="display:inline;fill:#000000;fill-opacity:1;stroke:none;stroke-width:1;stroke-linejoin:miter;stroke-miterlimit:4;stroke-dasharray:none;stroke-dashoffset:0.9;stroke-opacity:1"
         d="M 0.99999619,1053.3622 H 1.9999962 v 15 H 0.99999619 Z" /><path
         inkscape:connector-curvature="0"
         id="path7861"
         d="m 5,1058.3622 v 5 h 5 v -5 z"
         style="fill:#000000;fill-opacity:1;fill-rule:evenodd;stroke:none;stroke-width:1px;stroke-linecap:butt;stroke-linejoin:miter;stroke-opacity:1" /></g><g
       transform="translate(120,20.000017)"
       id="axis-local"
       inkscape:label="axis-local"
       style="display:inline"><rect
         style="display:inline;fill:none;fill-opacity:0.868478;stroke:none;stroke-width:1.00157;stroke-opacity:0.577483"
         id="rect13"
         width="16"
         height="16"
         x="0"
         y="1036.3622"
         inkscape:label="bbox" /><path
         id="rect7788-4"
         d="m 1,1037.3622 v 13 1 h 1 13 v -1 H 2 v -13 z"
         style="display:inline;fill:#000000;fill-opacity:1;stroke:none;stroke-width:1;stroke-linejoin:miter;stroke-miterlimit:4;stroke-dasharray:none;stroke-dashoffset:0.9;stroke-opacity:1"
         inkscape:connector-curvature="0" /><path
         style="display:inline;fill:#000000;fill-opacity:1;fill-rule:evenodd;stroke:none;stroke-width:1px;stroke-linecap:butt;stroke-linejoin:miter;stroke-opacity:1"
         d="m 1,1046.3622 2.4e-5,5 H 6 l -2.4e-5,-5 z"
         id="path7877"
         inkscape:connector-curvature="0" /></g><g
       transform="matrix(0.45117188,0,0,0.45117186,-47.337083,915.88607)"
       style="display:inline"
       id="tool-rotate"
       inkscape:label="tool-rotate"><rect
         style="display:inline;fill:none;fill-opacity:0.868478;stroke:none;stroke-width:2.21993;stroke-opacity:0.577483"
         id="rect12"
         width="35.463203"
         height="35.463203"
         x="193.57829"
         y="311.35837"
         inkscape:label="bbox" /><path
         id="rect4400-1"
         style="display:inline;opacity:1;fill:#000000;fill-opacity:1;stroke:none;stroke-width:0.107018;stroke-miterlimit:4;stroke-dasharray:none;stroke-opacity:1"
         d="m 210.20168,322.36189 7.83633,7.83634 -7.83634,7.83634 -7.83633,-7.83634 z" /><g
         id="g13"
         transform="matrix(-1,0,0,1,420.39937,-1.1224195e-4)"><path
           inkscape:connector-curvature="0"
           id="path4581"
           d="m 225.18736,315.40849 -7.8904,7.7819 9.23256,1.46176 z m -3.15981,3.10907 a 16.623376,16.62338 49.241218 0 0 -23.50856,-0.14439 l 1.55761,1.57686 a 14.406917,14.406919 50.976441 0 1 20.37409,0.12514 z"
           style="fill:#000000;fill-opacity:1;stroke:none;stroke-width:0.44329;stroke-linejoin:miter;stroke-miterlimit:4;stroke-dasharray:none;stroke-dashoffset:0.9;stroke-opacity:1" /><path
           inkscape:transform-center-y="4.7500012"
           inkscape:transform-center-x="-2.050934"
           inkscape:connector-curvature="0"
           style="fill:#000000;fill-opacity:1;stroke:none;stroke-width:0.2;stroke-linejoin:miter;stroke-miterlimit:4;stroke-dasharray:none;stroke-dashoffset:0.9;stroke-opacity:1"
           d="m 195.21174,344.98772 7.89065,-7.78167 -9.23257,-1.46176 1.34216,9.24367 z m 3.16005,-3.10882 a 16.623376,16.62338 45.351905 0 0 23.50856,0.14438 l -1.55761,-1.57687 a 14.406917,14.406919 45.351905 0 1 -20.37408,-0.12513 z"
           id="path4643" /></g></g><g
       transform="matrix(0.46874999,0,0,0.46875,-69.15047,910.82855)"
       style="display:inline"
       id="tool-scale"
       inkscape:label="tool-scale"><rect
         style="display:inline;fill:none;fill-opacity:0.868478;stroke:none;stroke-width:2.13668;stroke-opacity:0.577483"
         id="rect11"
         width="34.133335"
         height="34.133331"
         x="275.521"
         y="310.4718"
         inkscape:label="bbox" /><path
         id="rect5036"
         style="opacity:1;fill:#000000;fill-opacity:1;stroke:none;stroke-width:0.110362;stroke-miterlimit:4;stroke-dasharray:none;stroke-opacity:1"
         inkscape:transform-center-x="-2.7723849"
         d="m 275.52102,333.9385 h 10.66666 v 10.66666 h -10.66666 z" /><path
         style="color:#000000;fill:#000000;stroke-dasharray:4.26667, 4.26667;stroke-dashoffset:1.92;-inkscape-stroke:none"
         d="m 277.02344,312.60547 v 0 l -0.0547,0.002 -0.0977,0.004 -0.14843,0.0234 -0.14454,0.0371 -0.13867,0.0508 -0.13281,0.0625 -0.125,0.0762 -0.11523,0.0859 -0.10743,0.0957 -0.0957,0.10742 -0.0859,0.11523 -0.0762,0.125 -0.0644,0.13282 -0.0488,0.13867 -0.0371,0.14453 -0.0234,0.14844 -0.006,0.125 v 0.65832 l 3.84766,-1.2e-4 v -2.13281 z m 6.61328,0 v 2.13281 h 4.26562 v -2.13281 z m 8.5332,0 v 2.13281 h 4.26563 v -2.13281 z m 8.5332,0 v 2.13281 h 4.26563 v -2.13281 z m 4.6836,4.03515 v 4.26563 h 2.13476 v -4.26563 z m -29.86524,2.22266 v 4.26563 h 2.13282 v -4.26563 z m 29.86524,6.31055 v 4.26758 h 2.13476 v -4.26758 z m -29.86524,2.22265 v 4.26758 h 2.13282 v -4.26758 z m 29.86524,6.31055 v 4.26758 h 2.13476 v -4.26758 z m 0,8.5332 v 0.23243 h -2.08789 v 2.13281 h 2.74609 l 0.125,-0.006 0.15039,-0.0234 0.14453,-0.0371 0.13868,-0.0508 0.13281,-0.0625 0.12304,-0.0762 0.11719,-0.0859 0.10547,-0.0976 0.0977,-0.10547 0.0859,-0.11719 0.0762,-0.12305 0.0625,-0.13281 0.0508,-0.13867 0.0371,-0.14453 0.0234,-0.15039 0.006,-0.12305 v -0.89063 z m -19.1543,0.23243 v 2.13281 h 4.26563 v -2.13281 z m 8.5332,0 v 2.13281 h 4.26758 v -2.13281 z"
         id="rect5038"
         sodipodi:nodetypes="cccccccccccccccccccccccccccccccccccccccccccccccccccccccccccccccccccccccccccccccccccccccccccccccc" /><path
         style="color:#000000;display:inline;fill:#000000;fill-rule:evenodd;-inkscape-stroke:none"
         d="m 299.3457,319.72461 -11.02539,11.02539 1.05664,1.05469 11.02344,-11.02344 z"
         id="path5" /><path
         style="color:#000000;display:inline;fill:#000000;fill-rule:evenodd;stroke-linejoin:round;-inkscape-stroke:none"
         d="m 291.79355,323.22116 9.46768,-4.37695 -4.3766,9.46785 c -0.39701,-2.60874 -2.45959,-4.6585 -5.09108,-5.0909 z"
         id="path3" /><path
         style="color:#000000;display:inline;fill:#000000;fill-rule:evenodd;stroke-linejoin:round;-inkscape-stroke:none"
         d="m 301.36523,318.58398 a 0.28002749,0.28002749 0 0 0 -0.2207,0.006 l -9.46875,4.37696 a 0.28002749,0.28002749 0 0 0 0.0723,0.53125 c 2.51488,0.41324 4.48078,2.36776 4.85937,4.85547 a 0.28002749,0.28002749 0 0 0 0.53125,0.0762 l 4.37695,-9.46875 a 0.28002749,0.28002749 0 0 0 -0.15039,-0.37696 z m -0.67578,0.83204 -3.75976,8.13281 c -0.5965,-2.12571 -2.23871,-3.75606 -4.38086,-4.36914 z"
         id="path4" /></g><g
       inkscape:label="axis-world"
       id="axis-world"
       transform="translate(140.00001,20.000017)"
       style="display:inline"><rect
         style="display:inline;fill:none;fill-opacity:0.868478;fill-rule:nonzero"
         id="rect6-6"
         width="16"
         height="16"
         x="-9.9999997e-06"
         y="1036.3622"
         inkscape:label="bbox" /><path
         style="fill:#000000;fill-opacity:1;fill-rule:evenodd;stroke:none;stroke-width:1px;stroke-linecap:butt;stroke-linejoin:miter;stroke-opacity:1"
         d="m 5.9999887,1041.3622 2.4e-5,5 h 4.9999763 l -2.4e-5,-5 z"
         id="path6081-7"
         inkscape:connector-curvature="0" /><path
         id="rect7892"
         d="m 0.99999,1037.3622 v 13 1 h 1 13 v -1 h -13 v -13 z"
         style="display:inline;fill:#000000;fill-opacity:1;stroke:none;stroke-width:1;stroke-linejoin:miter;stroke-miterlimit:4;stroke-dasharray:none;stroke-dashoffset:0.9;stroke-opacity:1"
         inkscape:connector-curvature="0" /></g><g
       id="g10"
       inkscape:label="browser-list-view"
       transform="translate(-20)"
       inkscape:export-filename="icons/browser-list-view-symbolic.svg"
       inkscape:export-xdpi="96"
       inkscape:export-ydpi="96"><rect
         style="display:inline;fill:#000000;fill-opacity:1;stroke:none;stroke-width:1.99999"
         id="rect33-3"
         width="4"
         height="4"
         x="21"
         y="1157.3622" /><rect
         style="display:inline;fill:#000000;fill-opacity:1;stroke:none;stroke-width:0.894427"
         id="rect34-6"
         width="8"
         height="2"
         x="27"
         y="1158.3622" /><rect
         style="display:inline;fill:#000000;fill-opacity:1;stroke:none;stroke-width:1.99999"
         id="rect40-7"
         width="4"
         height="4"
         x="21"
         y="1162.3622" /><rect
         style="display:inline;fill:#000000;fill-opacity:1;stroke:none;stroke-width:0.894428"
         id="rect41-5"
         width="8"
         height="2"
         x="27"
         y="1163.3622" /><rect
         style="display:inline;fill:#000000;fill-opacity:1;stroke:none;stroke-width:1.99999"
         id="rect42-3"
         width="4"
         height="4"
         x="21"
         y="1167.3622" /><rect
         style="display:inline;fill:none;fill-opacity:0.868478;stroke:none;stroke-width:1.00157;stroke-opacity:0.577483"
         id="rect28"
         width="16"
         height="16"
         x="20"
         y="1156.3622"
         inkscape:label="bbox" /><rect
         style="display:inline;fill:#000000;fill-opacity:1;stroke:none;stroke-width:0.894428"
         id="rect43-5"
         width="8"
         height="2"
         x="27"
         y="1168.3622"
         inkscape:label="rect43-5" /></g><g
       id="g66"
       transform="translate(-19.055257,21.116)"
       style="display:inline"
       inkscape:label="object-animation"><path
         id="rect33-3-7"
         style="display:inline;fill:#000000;fill-opacity:1;stroke:none;stroke-width:5.61246"
         d="m 20.922155,1161.1302 c -0.450125,0 -0.8125,0.3624 -0.8125,0.8125 v 7.375 c 0,0.4501 0.362375,0.8125 0.8125,0.8125 h 12.375 c 0.450124,0 0.8125,-0.3624 0.8125,-0.8125 v -7.375 c 0,-0.4501 -0.362376,-0.8125 -0.8125,-0.8125 z m 3.53125,1.9531 5.3125,2.5469 -5.3125,2.5449 z" /><rect
         style="display:inline;fill:#000000;fill-opacity:1;stroke:none;stroke-width:1.44913"
         id="rect34-6-5"
         width="14"
         height="3"
         x="-117.77194"
         y="1152.1196"
         inkscape:transform-center-x="-6.775966"
         inkscape:transform-center-y="-2.2898683"
         transform="rotate(-6.8224926)"
         ry="0.65769738" /><rect
         style="display:inline;fill:none;fill-opacity:0.868478;stroke:none;stroke-width:1.00157;stroke-opacity:0.577483"
         id="rect67"
         width="16"
         height="16"
         x="0"
         y="1176.3622"
         inkscape:label="bbox"
         transform="translate(19.055257,-21.116)" /></g><g
       id="g67"
       inkscape:label="object-font"><path
         id="rect33"
         style="fill:#000000;fill-opacity:1;stroke:none;stroke-width:0.773405"
         d="m 22.283201,1177.3622 c -0.71093,0 -1.283203,0.5722 -1.283203,1.2832 v 8.0097 l 2.234375,-6.707 h 2.28125 l 2.976562,8.7168 h -1.933594 l -0.65625,-2.0234 h -3.015625 l -0.634765,2.0234 h -1.251953 v 1.4141 c 0,0.7109 0.572273,1.2832 1.283203,1.2832 h 11.433594 c 0.710929,0 1.283203,-0.5723 1.283203,-1.2832 v -2.2696 c -0.173147,0.2342 -0.374427,0.4292 -0.603516,0.5821 -0.391651,0.2574 -0.833704,0.3847 -1.324219,0.3847 -0.346022,0 -0.6374,-0.061 -0.876953,-0.1816 -0.239553,-0.121 -0.435793,-0.2678 -0.587891,-0.4434 -0.148294,-0.1794 -0.263898,-0.3577 -0.34375,-0.5332 h -0.07812 v 1.0469 h -1.683594 v -8.7168 h 1.710938 v 3.2773 h 0.05078 c 0.07605,-0.1716 0.187539,-0.3499 0.332032,-0.5332 0.148295,-0.1832 0.342478,-0.336 0.582031,-0.4609 0.243356,-0.1246 0.545019,-0.1875 0.90625,-0.1875 0.471503,0 0.90327,0.1236 1.294922,0.373 0.235755,0.1503 0.443206,0.3473 0.621094,0.5879 v -4.3593 c 0,-0.711 -0.572274,-1.2832 -1.283203,-1.2832 z m 2.074218,3.9843 c -0.14069,0.6008 -0.275014,1.161 -0.404296,1.6797 -0.129283,0.5186 -0.259388,0.9967 -0.388672,1.4336 l -0.24414,0.7832 h 2.132812 l -0.257812,-0.7832 c -0.136888,-0.4446 -0.273269,-0.9266 -0.410157,-1.4453 -0.136887,-0.5187 -0.27944,-1.075 -0.427735,-1.668 z m 8.191407,2.1016 c -0.441082,0 -0.781931,0.1764 -1.021485,0.5312 -0.235751,0.3549 -0.353515,0.8291 -0.353515,1.4219 0,0.593 0.119821,1.0691 0.359375,1.4278 0.239553,0.3588 0.578345,0.5371 1.015625,0.5371 0.444886,0 0.781723,-0.1822 1.013672,-0.5489 0.23575,-0.3665 0.353515,-0.8387 0.353515,-1.416 0,-0.5732 -0.115707,-1.0416 -0.347656,-1.4043 -0.231947,-0.3666 -0.570843,-0.5488 -1.019531,-0.5488 z" /><rect
         style="display:inline;fill:none;fill-opacity:0.868478;stroke:none;stroke-width:1.00157;stroke-opacity:0.577483"
         id="rect68"
         width="16"
         height="16"
         x="20"
         y="1176.3622"
         inkscape:label="bbox" /></g><g
       id="g68"
       inkscape:label="object-script"><rect
         style="display:inline;fill:none;fill-opacity:0.868478;stroke:none;stroke-width:1.00157;stroke-opacity:0.577483"
         id="rect28-2"
         width="16"
         height="16"
         x="40"
         y="1176.3622"
         inkscape:label="bbox" /><path
         id="rect38"
         style="fill:#000000;fill-opacity:1;stroke:none;stroke-width:0.773405"
         d="m 42.283204,1177.3622 c -0.71093,0 -1.283204,0.5742 -1.283204,1.2852 v 11.4316 c 0,0.7109 0.572274,1.2832 1.283204,1.2832 h 11.433593 c 0.71093,0 1.283203,-0.5723 1.283203,-1.2832 v -11.4316 c 0,-0.711 -0.572273,-1.2852 -1.283203,-1.2852 z m 4.253906,1.5508 v 1.3301 c -0.507813,0 -0.847656,0.1 -1.019532,0.2988 -0.171874,0.1953 -0.257812,0.5039 -0.257812,0.9258 v 1.2773 c 0,0.2149 -0.03516,0.4239 -0.105469,0.627 -0.07031,0.1992 -0.205078,0.3808 -0.404297,0.5449 -0.199219,0.1602 -0.48828,0.2872 -0.867187,0.3809 v 0.1289 c 0.378907,0.098 0.667968,0.2284 0.867187,0.3925 0.199219,0.1601 0.333984,0.3419 0.404297,0.545 0.07031,0.1992 0.105469,0.4062 0.105469,0.6211 v 1.2714 c 0,0.4219 0.08594,0.7325 0.257812,0.9317 0.171876,0.1992 0.511719,0.2988 1.019532,0.2988 v 1.3242 c -0.433594,0 -0.828125,-0.029 -1.183594,-0.088 -0.351562,-0.055 -0.658203,-0.164 -0.919922,-0.3281 -0.257812,-0.1641 -0.457031,-0.4043 -0.597656,-0.7207 -0.136719,-0.3164 -0.205078,-0.7324 -0.205078,-1.248 v -1.0196 c 0,-0.418 -0.08789,-0.7265 -0.263672,-0.9257 -0.171875,-0.1993 -0.472656,-0.3067 -0.902344,-0.3223 h -0.140625 v -1.5938 h 0.140625 c 0.433594,-0.016 0.736328,-0.1233 0.908203,-0.3222 0.171875,-0.1992 0.257813,-0.5059 0.257813,-0.92 v -1.0253 c 0,-0.5157 0.06836,-0.9317 0.205078,-1.2481 0.140625,-0.3164 0.339844,-0.5566 0.597656,-0.7207 0.261719,-0.1641 0.56836,-0.2734 0.919922,-0.3281 0.355469,-0.059 0.75,-0.088 1.183594,-0.088 z m 2.93164,0 c 0.429688,0 0.822267,0.029 1.177735,0.088 0.35547,0.055 0.66211,0.1641 0.919922,0.3282 0.257813,0.1641 0.455078,0.4043 0.591797,0.7207 0.140625,0.3164 0.210937,0.7323 0.210937,1.248 v 1.0254 c 0,0.4336 0.0957,0.75 0.287109,0.9492 0.191406,0.1953 0.527344,0.2949 1.007813,0.2988 h 0.01172 v 1.5821 c -0.488281,0.01 -0.828126,0.1082 -1.019532,0.3047 -0.191406,0.1953 -0.287109,0.5117 -0.287109,0.9492 v 1.0195 c 0,0.5156 -0.07031,0.9317 -0.210937,1.2481 -0.136719,0.3164 -0.333984,0.5566 -0.591797,0.7207 -0.257812,0.1641 -0.564452,0.2734 -0.919922,0.3281 -0.355468,0.059 -0.748047,0.088 -1.177735,0.088 v 0 -1.3222 c 0.503906,0 0.841797,-0.1001 1.013672,-0.2989 0.175782,-0.1992 0.263672,-0.5097 0.263672,-0.9316 v -1.2715 c 0,-0.2149 0.03516,-0.4219 0.105469,-0.6211 0.07031,-0.2031 0.203125,-0.3848 0.398437,-0.5449 0.199219,-0.1641 0.488282,-0.2949 0.867188,-0.3887 V 1184.3 c -0.378906,-0.094 -0.667969,-0.2206 -0.867188,-0.3808 -0.195312,-0.1641 -0.328125,-0.3458 -0.398437,-0.545 -0.07031,-0.2031 -0.105469,-0.414 -0.105469,-0.6289 v -1.2754 c 0,-0.418 -0.08789,-0.7265 -0.263672,-0.9257 -0.171875,-0.1992 -0.509766,-0.2989 -1.013672,-0.2989 z" /></g><g
       id="g69"
       inkscape:label="object-texture"><rect
         style="display:inline;fill:none;fill-opacity:0.868478;stroke:none;stroke-width:1.00157;stroke-opacity:0.577483"
         id="rect69"
         width="16"
         height="16"
         x="0"
         y="1196.3622"
         inkscape:label="bbox" /><path
         id="rect38-0"
         style="display:inline;fill:#000000;fill-opacity:1;stroke:none;stroke-width:0.773405"
         d="M 2.283203,1197.3622 C 1.572273,1197.3622 1,1197.9344 1,1198.6454 v 11.4336 c 0,0.7109 0.572273,1.2832 1.283203,1.2832 h 11.433594 c 0.71093,0 1.283203,-0.5723 1.283203,-1.2832 v -11.4336 c 0,-0.711 -0.572273,-1.2832 -1.283203,-1.2832 z m 6.083984,0.7988 1.125,1.9746 2.265625,0.1934 -1.529296,1.6796 0.517578,2.2149 -2.072266,-0.9356 -1.947266,1.1758 0.25,-2.2597 -1.71875,-1.4864 2.226563,-0.4609 z m -2.582031,6.6172 c 0.06605,0 0.130604,0.034 0.160156,0.098 l 1.738282,3.7637 c 0.0394,0.085 0.0032,0.1852 -0.08203,0.2246 l -3.642578,1.6836 c -0.08527,0.039 -0.185205,0 -0.224609,-0.084 l -1.740235,-3.7617 c -0.0394,-0.085 -0.0013,-0.1872 0.08398,-0.2266 l 3.640625,-1.6816 c 0.02132,-0.01 0.04439,-0.015 0.06641,-0.016 z m 5.765625,0.248 a 2.3762372,2.3762372 0 0 1 2.251953,1.3789 2.3762372,2.3762372 0 0 1 -1.160156,3.1524 2.3762372,2.3762372 0 0 1 -3.154297,-1.1602 2.3762372,2.3762372 0 0 1 1.160156,-3.1543 2.3762372,2.3762372 0 0 1 0.902344,-0.2168 z" /></g><g
       id="g70"
       inkscape:label="object-sprite"><rect
         style="display:inline;fill:none;fill-opacity:0.868478;stroke:none;stroke-width:1.00157;stroke-opacity:0.577483"
         id="rect70"
         width="16"
         height="16"
         x="20"
         y="1196.3622"
         inkscape:label="bbox" /><path
         style="fill:#000000;fill-opacity:1;stroke:none;stroke-width:0.889601"
         id="path42"
         sodipodi:type="arc"
         sodipodi:cx="28.410994"
         sodipodi:cy="1204.3622"
         sodipodi:rx="7"
         sodipodi:ry="7"
         sodipodi:start="0.52493191"
         sodipodi:end="5.7936969"
         sodipodi:arc-type="slice"
         d="m 34.4685,1207.8703 a 7,7 0 0 1 -7.933576,3.2358 7,7 0 0 1 -5.122831,-6.868 7,7 0 0 1 5.362987,-6.6821 7,7 0 0 1 7.813928,3.515 l -6.178014,3.2912 z" /></g><g
       id="g71"
       inkscape:label="object-level"><rect
         style="display:inline;fill:none;fill-opacity:0.868478;stroke:none;stroke-width:1.00157;stroke-opacity:0.577483"
         id="rect71"
         width="16"
         height="16"
         x="40"
         y="1196.3622"
         inkscape:label="bbox" /><path
         id="rect43"
         style="fill:#000000;fill-opacity:1;stroke:none;stroke-width:0.805099"
         d="m 41.898438,1197.3622 c -0.498124,0 -0.898438,0.4003 -0.898438,0.8984 v 12.2031 c 0,0.4982 0.400314,0.8985 0.898438,0.8985 h 12.203124 c 0.498126,0 0.898438,-0.4003 0.898438,-0.8985 v -12.2031 c 0,-0.4981 -0.400312,-0.8984 -0.898438,-0.8984 z m 0.601562,2 h 2 v 6 h -2 z m 5.5,4 a 1,1 0 0 1 1,1 1,1 0 0 1 -1,1 1,1 0 0 1 -1,-1 1,1 0 0 1 1,-1 z m 3.5,0 h 2 v 6 h -2 z" /></g><g
       id="browser-favorites"
       style="display:inline"
       transform="translate(0,40)"
       inkscape:label="browser-favorites"><rect
         style="display:inline;fill:none;fill-opacity:0.868478;stroke:none;stroke-width:1.00157;stroke-opacity:0.577483"
         id="rect24"
         width="16"
         height="16"
         x="0"
         y="1096.3622"
         inkscape:label="bbox" /><path
         sodipodi:type="star"
         style="fill:#000000;stroke-width:0.94709;stroke-opacity:0.8"
         id="path35"
         inkscape:flatsided="false"
         sodipodi:sides="5"
         sodipodi:cx="20.863785"
         sodipodi:cy="64.310493"
         sodipodi:r1="7.1367178"
         sodipodi:r2="2.8546872"
         sodipodi:arg1="-1.5707963"
         sodipodi:arg2="-0.9424778"
         inkscape:rounded="-3.469447e-18"
         inkscape:randomized="0"
         d="m 20.863785,57.173776 1.677943,4.827227 5.109479,0.104124 -4.072453,3.087513 1.479888,4.89158 -4.194857,-2.919039 -4.194858,2.919038 1.479889,-4.891579 -4.072453,-3.087514 5.109479,-0.104123 z"
         transform="matrix(1.0313194,0,0,1.0843934,-13.517226,1035.3633)"
         inkscape:transform-center-y="-0.73902027" /></g><g
       id="browser-icon-view"
       inkscape:label="browser-icon-view"
       style="display:inline"
       transform="translate(-40.000004,120.00002)"
       inkscape:export-filename="icons/browser-icon-view-symbolic.svg"
       inkscape:export-xdpi="96"
       inkscape:export-ydpi="96"><rect
         style="fill:#000000;stroke-width:1.20188;stroke-opacity:0.8"
         id="rect3"
         width="6"
         height="6"
         x="89"
         y="1017.3622"
         ry="0" /><rect
         style="fill:#000000;stroke-width:1.20188;stroke-opacity:0.8"
         id="rect7"
         width="6"
         height="6"
         x="81.000008"
         y="1025.3622"
         ry="0" /><rect
         style="fill:#000000;stroke-width:1.20188;stroke-opacity:0.8"
         id="rect8"
         width="6"
         height="6"
         x="89"
         y="1025.3622"
         ry="0" /><rect
         style="fill:#000000;stroke-width:1.20188;stroke-opacity:0.8"
         id="rect9"
         width="6"
         height="6"
         x="81.000008"
         y="1017.3622"
         ry="0" /><rect
         style="display:inline;fill:none;fill-opacity:0.868478;stroke:none;stroke-width:1.00157;stroke-opacity:0.577483"
         id="rect44"
         width="16"
         height="16"
         x="80.000008"
         y="1016.3622"
         inkscape:label="bbox" /></g><g
       id="browser-folder"
       inkscape:label="browser-folder"
       style="display:inline"
       transform="translate(-60.000004,121.00002)"><rect
         style="display:inline;fill:none;fill-opacity:0.868478;stroke:none;stroke-width:1.00157;stroke-opacity:0.577483"
         id="rect23"
         width="16"
         height="16"
         x="80.000008"
         y="1015.3622"
         inkscape:label="bbox" /><path
         id="rect1"
         style="fill:#000000;stroke-width:1.00157;stroke-opacity:0.577483"
         d="m 82.998051,1017.3622 c -1.106504,0 -1.998047,0.892 -1.998047,2 v 4 c 0,0.089 0.0064,0.1759 0.01758,0.2617 v 3.7483 c 0,1.108 0.891544,2 1.998047,2 h 9.986375 c 1.106504,0 1.998,-0.892 1.998,-2 v -5.99 c 0,-1.108 -0.896042,-1.9198 -1.998,-2.02 h -4.002002 l -2,-2 z"
         sodipodi:nodetypes="csscssssssccc" /></g><g
       id="g5"
       inkscape:label="hearth"
       transform="translate(0.87532774)"><rect
         style="display:inline;fill:none;fill-opacity:0.868478;stroke:none;stroke-width:1.00157;stroke-opacity:0.577483"
         id="rect5"
         width="16"
         height="16"
         x="59.124672"
         y="1136.3622"
         inkscape:label="bbox" /><path
         id="path1"
         style="vector-effect:none;fill:#000000;fill-opacity:1;fill-rule:evenodd;stroke:none;stroke-width:0.1;stroke-linecap:butt;stroke-linejoin:miter;stroke-miterlimit:4;stroke-dasharray:none;stroke-dashoffset:0;stroke-opacity:1"
         d="m 63.909981,1138.2955 c -1.382785,-0.014 -2.789835,0.9526 -3.653055,2.9937 -0.947072,4.7638 3.38392,4.9527 6.879263,9.1398 3.495342,-4.1871 7.8027,-4.376 6.855628,-9.1398 -1.624887,-3.842 -5.175076,-3.8765 -6.867204,-0.7303 -0.793185,-1.4748 -1.994527,-2.251 -3.214632,-2.2634 z"
         inkscape:label="hearth" /></g><g
       id="g29"
       inkscape:label="list-sort"><rect
         style="display:inline;fill:#000000;fill-opacity:1;stroke:none;stroke-width:1.18322"
         id="rect34-6-6"
         width="14"
         height="2"
         x="21"
         y="1158.3622" /><rect
         style="display:inline;fill:none;fill-opacity:0.868478;stroke:none;stroke-width:1.00157;stroke-opacity:0.577483"
         id="rect10"
         width="16"
         height="16"
         x="20"
         y="1156.3622"
         inkscape:label="bbox" /><rect
         style="display:inline;fill:#000000;fill-opacity:1;stroke:none;stroke-width:1.28765"
         id="rect29"
         width="10"
         height="2"
         x="21"
         y="1163.3622" /><rect
         style="display:inline;fill:#000000;fill-opacity:1;stroke:none;stroke-width:0.774598"
         id="rect30"
         width="6"
         height="2"
         x="21"
         y="1168.3622" /><path
         id="rect31"
         style="display:inline;fill:#000000;fill-opacity:1;stroke:none;stroke-width:0.696343"
         d="M 33 1163.3622 L 33 1168.3622 L 32 1168.3622 L 33.5 1170.3622 L 35 1168.3622 L 34 1168.3622 L 34 1163.3622 L 33 1163.3622 z " /></g><g
       id="g83"
       inkscape:label="object-skeleton"
       transform="matrix(1.0279121,0,0,1,-1.8615358,0)"><path
         id="path74"
         style="fill:#000000;fill-opacity:1;stroke:none;stroke-width:0.813729;stroke-opacity:1"
         d="m 66.865037,1198.0185 c -0.420162,0.087 -0.984596,-0.067 -1.260388,0.2615 -0.301648,0.3595 -0.961283,0.6127 -0.904895,1.0786 0.06463,0.534 -0.184249,1.2194 0.193906,1.6019 0.269297,0.2724 0.776482,0.4354 0.807941,0.8171 0.02155,0.2615 0.04309,0.5231 0.06464,0.7846 0.50631,0.011 1.388383,0.5223 1.518931,0.033 0.07923,-0.297 0.04908,-0.6459 0.233269,-0.8921 0.299299,-0.4 0.930711,-0.7016 0.897849,-1.2001 -0.03232,-0.4903 0.306218,-1.1901 -0.09695,-1.471 -0.484783,-0.3378 -0.96952,-0.6757 -1.454303,-1.0135 z m -0.910954,1.3626 c 0.113912,-0.018 0.233208,0.025 0.31192,0.1098 0.105567,0.1132 0.145418,0.2922 0.07596,0.4343 -0.04251,0.087 -0.137559,0.123 -0.221705,0.1674 -0.118246,0.062 -0.264767,0.045 -0.378365,-0.02 -0.116565,-0.067 -0.212386,-0.1862 -0.221561,-0.3243 -0.0068,-0.1026 0.04299,-0.2121 0.130975,-0.2612 0.04614,-0.026 0.08627,-0.069 0.138222,-0.078 0.05485,-0.01 0.109705,-0.019 0.164557,-0.028 z m 1.312905,0.058 c 0.11726,-0.019 0.238921,0.029 0.31819,0.1172 0.09722,0.1076 0.139198,0.2726 0.07875,0.4084 -0.03132,0.07 -0.09983,0.1112 -0.16214,0.1554 -0.110715,0.079 -0.260148,0.081 -0.3836,0.032 -0.125254,-0.05 -0.237746,-0.1498 -0.276323,-0.2824 -0.02736,-0.094 0.0033,-0.197 0.06641,-0.2699 0.02238,-0.026 0.047,-0.05 0.07731,-0.067 0.03901,-0.022 0.07297,-0.058 0.116846,-0.066 0.05485,-0.01 0.109705,-0.019 0.164557,-0.028 z m -0.787743,0.7969 c 0.09964,0.3344 0.199302,0.6687 0.298939,1.0031 -0.13955,-0.067 -0.240724,-0.1963 -0.292234,-0.3402 -0.06643,-0.1856 -0.06163,-0.3888 -0.02452,-0.5808 0.0053,-0.027 0.01134,-0.055 0.01781,-0.082 z"
         inkscape:path-effect="#path-effect87"
         inkscape:original-d="m 66.865037,1198.0185 c -0.420129,0.087 -0.840259,0.1743 -1.260388,0.2615 -0.301632,0.3595 -0.603263,0.7191 -0.904895,1.0786 0.06463,0.534 0.129271,1.0679 0.193906,1.6019 0.269314,0.2724 0.538627,0.5447 0.807941,0.8171 0.02155,0.2615 0.04309,0.5231 0.06464,0.7846 0.50631,0.011 1.012621,0.022 1.518931,0.033 0.07915,-0.2967 0.147237,-0.5987 0.233269,-0.8921 0.299283,-0.4 0.598566,-0.8001 0.897849,-1.2001 -0.03232,-0.4903 -0.06463,-0.9807 -0.09695,-1.471 -0.484768,-0.3378 -0.969535,-0.6757 -1.454303,-1.0135 z m -0.910954,1.3626 c 0.427591,-0.059 0.610709,0.5979 0.166172,0.7115 -0.356306,0.1825 -0.830969,-0.3114 -0.473226,-0.6032 l 0.140882,-0.08 z m 1.312905,0.058 c 0.391453,-0.056 0.601874,0.5171 0.234801,0.681 -0.346873,0.2402 -0.929155,-0.2366 -0.541855,-0.5727 l 0.140882,-0.08 z m -0.787743,0.7969 c 0.09965,0.3344 0.199293,0.6687 0.298939,1.0031 -0.323162,-0.1586 -0.388617,-0.5718 -0.321845,-0.8934 0.0065,-0.037 0.01418,-0.073 0.02291,-0.1097 z"
         transform="matrix(1.1309826,0,0,1.1400493,-7.3002371,-168.40562)" /><path
         id="path77"
         style="fill:#000000;fill-opacity:1;stroke:none;stroke-width:0.836631;stroke-opacity:1"
         d="m 67.848595,1203.0255 -3.235852,0.5311 -1.035549,0.3985 -0.361017,1.3515 -0.0589,1.6544 0.0817,2.7675 0.874041,1.5996 -0.0266,-1.8925 -0.0608,-2.3965 0.590928,-1.2969 0.237511,-1.2559 2.409314,-0.2011 0.305914,0.3203 -0.235611,0.3476 -2.093899,0.297 0.304015,0.2987 1.919091,0.1191 0.0931,0.1915 -0.05701,0.5254 -2.048296,0.1894 0.42182,0.3711 1.590375,0.012 0.152007,0.4414 -0.163408,0.3224 -1.47447,0.2383 0.480723,0.285 1.016549,0.1309 0.421819,1.6348 0.01141,-5.7988 h -0.0266 z" /><path
         id="path90"
         style="fill:#000000;fill-opacity:1;stroke:none;stroke-width:0.836631;stroke-opacity:1"
         d="m 68.08041,1203.0255 -0.0323,1.1874 h -0.0266 l 0.0114,5.7988 0.42182,-1.6348 1.018447,-0.1308 0.478823,-0.2851 -1.474469,-0.2383 -0.163408,-0.3223 0.152007,-0.4415 1.590374,-0.012 0.421821,-0.3712 -2.046396,-0.1894 -0.0589,-0.5254 0.09311,-0.1914 1.91909,-0.1191 0.304014,-0.2988 -2.093899,-0.297 -0.233711,-0.3475 0.304014,-0.3224 2.409314,0.2031 0.237511,1.256 0.590928,1.2968 -0.0608,2.3965 -0.0266,1.8926 0.874041,-1.5997 0.0817,-2.7675 -0.057,-1.6543 -0.362916,-1.3516 -1.035549,-0.3985 z" /><rect
         style="display:inline;fill:none;fill-opacity:0.868478;stroke:none;stroke-width:0.987878;stroke-opacity:0.577483"
         id="rect87"
         width="15.565534"
         height="16"
         x="60.181736"
         y="1196.3622"
         inkscape:label="bbox" /></g><g
       id="g32"
       inkscape:label="object-config"
       transform="translate(-40,20.000017)"><rect
         style="display:inline;fill:none;fill-opacity:0.868478;stroke:none;stroke-width:1.00157;stroke-opacity:0.577483"
         id="rect32"
         width="16"
         height="16"
         x="40"
         y="1196.3622"
         inkscape:label="bbox" /><path
         id="path32"
         style="fill:#000000;fill-opacity:1;stroke:none;stroke-width:0.805099"
         d="M 41.898438 1197.3622 C 41.400314 1197.3622 41 1197.7625 41 1198.2606 L 41 1210.4637 C 41 1210.9619 41.400314 1211.3622 41.898438 1211.3622 L 54.101562 1211.3622 C 54.599688 1211.3622 55 1210.9619 55 1210.4637 L 55 1198.2606 C 55 1197.7625 54.599688 1197.3622 54.101562 1197.3622 L 41.898438 1197.3622 z M 47.089844 1198.8583 L 48.904297 1198.8583 L 49.375 1200.161 C 49.59045 1200.2316 49.799594 1200.3166 50.001953 1200.4188 L 51.248047 1199.8309 L 52.53125 1201.1122 L 51.941406 1202.3641 C 52.04391 1202.5668 52.130442 1202.7753 52.201172 1202.9911 L 53.5 1203.4559 L 53.5 1205.2684 L 52.201172 1205.7333 C 52.130375 1205.9497 52.046099 1206.1609 51.943359 1206.3641 L 52.53125 1207.6122 L 51.248047 1208.8973 L 50.001953 1208.3055 C 49.799348 1208.4081 49.590776 1208.4945 49.375 1208.5653 L 48.904297 1209.8661 L 47.089844 1209.8661 L 46.625 1208.5653 C 46.408914 1208.4946 46.200964 1208.4083 45.998047 1208.3055 L 44.751953 1208.8973 L 43.470703 1207.6122 L 44.056641 1206.3602 C 43.953829 1206.1574 43.867847 1205.9493 43.796875 1205.7333 L 42.5 1205.2684 L 42.5 1203.4559 L 43.796875 1202.9911 C 43.867851 1202.775 43.953826 1202.567 44.056641 1202.3641 L 43.470703 1201.1122 L 44.751953 1199.8309 L 45.998047 1200.4188 C 46.200964 1200.3162 46.408914 1200.2297 46.625 1200.1591 L 47.089844 1198.8583 z M 48 1201.6473 A 2.7148939 2.7148939 0 0 0 45.285156 1204.3622 A 2.7148939 2.7148939 0 0 0 48 1207.077 A 2.7148939 2.7148939 0 0 0 50.714844 1204.3622 A 2.7148939 2.7148939 0 0 0 48 1201.6473 z " /></g><g
       id="g138"
       inkscape:label="object-shader"
       transform="translate(-20,20.000017)"><rect
         style="display:inline;fill:none;fill-opacity:0.868478;stroke:none;stroke-width:1.00157;stroke-opacity:0.577483"
         id="rect138"
         width="16"
         height="16"
         x="40"
         y="1196.3622"
         inkscape:label="bbox" /><path
         id="path139"
         style="display:inline;fill:#000000;fill-opacity:1;stroke:none;stroke-width:0.912684"
         d="m 48,1197.3611 -7,13.9978 h 4.13086 l 0.113281,-0.2227 0.167969,0.2227 h 0.898437 a 0.5,0.49992144 0 0 1 0.05274,-0.2324 0.5,0.49992144 0 0 1 0.669922,-0.2226 0.5,0.49992144 0 0 1 0.277343,0.455 h 0.634766 l -0.464844,-0.2324 0.447266,-0.8944 0.894531,0.4472 0.447266,-0.8944 -0.894532,-0.4472 0.447266,-0.8943 0.894531,0.4471 0.447266,-0.8924 -0.892578,-0.4492 0.447265,-0.8924 0.892579,0.4472 0.449218,-0.8944 -0.894531,-0.4472 0.447266,-0.8944 0.894531,0.4473 0.234375,-0.4707 -0.353516,-0.707 -0.328125,-0.1639 0.123047,-0.2461 z m 1.71875,4.8332 0.669922,0.8944 -1.117187,-0.01 z m 0.640626,1.5037 a 0.5,0.49992144 0 0 1 0.253906,0.051 0.5,0.49992144 0 0 1 0.222656,0.6717 0.5,0.49992144 0 0 1 -0.669922,0.2227 0.5,0.49992144 0 0 1 -0.224609,-0.6698 0.5,0.49992144 0 0 1 0.417969,-0.2754 z m -1.535157,0.2851 0.669922,0.8944 -1.117187,-0.01 z m 0.640625,1.5036 a 0.5,0.49992144 0 0 1 0.253906,0.051 0.5,0.49992144 0 0 1 0.222657,0.6718 0.5,0.49992144 0 0 1 -0.669922,0.2227 0.5,0.49992144 0 0 1 -0.224609,-0.6699 0.5,0.49992144 0 0 1 0.417968,-0.2754 z m -1.535156,0.2852 0.669922,0.8943 -1.117188,-0.012 z m 4.023438,0.8846 -0.447266,0.8944 0.894531,0.4472 0.447266,-0.8944 z m -3.382813,0.6171 a 0.5,0.49992144 0 0 1 0.253906,0.053 0.5,0.49992144 0 0 1 0.222657,0.6698 0.5,0.49992144 0 0 1 -0.669922,0.2246 0.5,0.49992144 0 0 1 -0.22461,-0.6718 0.5,0.49992144 0 0 1 0.417969,-0.2753 z m -1.535156,0.2851 0.669922,0.8944 -1.117188,-0.01 z m 6.382812,0.6386 -0.123047,0.248 0.330078,0.1659 z m -2.359375,0.248 -0.447265,0.8924 0.894531,0.4472 0.447266,-0.8924 z m -3.382812,0.6171 a 0.5,0.49992144 0 0 1 0.251953,0.053 0.5,0.49992144 0 0 1 0.224609,0.6697 0.5,0.49992144 0 0 1 -0.671875,0.2246 0.5,0.49992144 0 0 1 -0.222656,-0.6718 0.5,0.49992144 0 0 1 0.417969,-0.2753 z m 5.171875,0.2773 -0.447266,0.8944 0.894531,0.4472 0.447266,-0.8945 z m -6.707031,0.01 0.669921,0.8944 -1.117187,-0.01 z m 4.023437,0.8846 -0.447266,0.8944 0.464844,0.2324 h 0.537109 l 0.339844,-0.6796 z m 4.373047,0.2011 -0.347656,0.6952 0.460937,0.2305 H 55 Z m -2.583984,0.6933 -0.117188,0.2324 h 0.582031 z" /></g><g
       id="g34"
       inkscape:label="object-package"
       transform="translate(-20)"><rect
         style="display:inline;fill:none;fill-opacity:0.868478;stroke:none;stroke-width:1.00157;stroke-opacity:0.577483"
         id="rect34"
         width="16"
         height="16"
         x="60"
         y="1216.3622"
         inkscape:label="bbox" /><rect
         style="fill:#000000;stroke-width:1.28218"
         id="rect35"
         width="14"
         height="4"
         x="61"
         y="-1231.3622"
         transform="scale(1,-1)"
         rx="1"
         ry="1" /><rect
         style="fill:#000000;stroke-width:0.993214;stroke-dasharray:none;paint-order:stroke fill markers"
         id="rect36"
         width="7"
         height="9"
         x="61"
         y="-1226.3622"
         transform="scale(1,-1)"
         rx="1"
         ry="1" /><rect
         style="fill:#000000;stroke-width:0.80802"
         id="rect37"
         width="6"
         height="4"
         x="69"
         y="-1226.3622"
         transform="scale(1,-1)"
         rx="1"
         ry="1" /><rect
         style="fill:#000000;stroke-width:0.80802"
         id="rect42"
         width="6"
         height="4"
         x="69"
         y="-1221.3622"
         transform="scale(1,-1)"
         rx="1"
         ry="1" /></g><g
       id="g57"
       inkscape:label="object-mesh"><rect
         style="display:inline;fill:none;fill-opacity:0.868478;stroke:none;stroke-width:1.00157;stroke-opacity:0.577483"
         id="rect57"
         width="16"
         height="16"
         x="60"
         y="1216.3622"
         inkscape:label="bbox" /><path
         id="path105"
         style="fill:#000000;fill-opacity:1;stroke:none;stroke-width:1.57038;stroke-dasharray:none;stroke-opacity:1;paint-order:stroke fill markers"
         d="M 62.5 1217.3622 A 1.5 1.5 0 0 0 61 1218.8622 A 1.5 1.5 0 0 0 62 1220.2763 L 62 1222.9481 A 1.5 1.5 0 0 0 61 1224.3622 A 1.5 1.5 0 0 0 62 1225.7763 L 62 1228.4481 A 1.5 1.5 0 0 0 61 1229.8622 A 1.5 1.5 0 0 0 62.5 1231.3622 A 1.5 1.5 0 0 0 63.914062 1230.3622 L 66.585938 1230.3622 A 1.5 1.5 0 0 0 68 1231.3622 A 1.5 1.5 0 0 0 69.414062 1230.3622 L 72.085938 1230.3622 A 1.5 1.5 0 0 0 73.5 1231.3622 A 1.5 1.5 0 0 0 75 1229.8622 A 1.5 1.5 0 0 0 74 1228.4481 L 74 1225.7763 A 1.5 1.5 0 0 0 75 1224.3622 A 1.5 1.5 0 0 0 74 1222.9481 L 74 1220.2763 A 1.5 1.5 0 0 0 75 1218.8622 A 1.5 1.5 0 0 0 73.5 1217.3622 A 1.5 1.5 0 0 0 73.294922 1217.3759 A 1.5 1.5 0 0 0 72.085938 1218.3622 L 69.414062 1218.3622 A 1.5 1.5 0 0 0 68 1217.3622 A 1.5 1.5 0 0 0 66.585938 1218.3622 L 63.914062 1218.3622 A 1.5 1.5 0 0 0 62.5 1217.3622 z M 62.5 1218.3622 A 0.5 0.5 0 0 1 63 1218.8622 A 0.5 0.5 0 0 1 62.5 1219.3622 A 0.5 0.5 0 0 1 62 1218.8622 A 0.5 0.5 0 0 1 62.003906 1218.7977 A 0.5 0.5 0 0 1 62.5 1218.3622 z M 68 1218.3622 A 0.5 0.5 0 0 1 68.5 1218.8622 A 0.5 0.5 0 0 1 68 1219.3622 A 0.5 0.5 0 0 1 67.5 1218.8622 A 0.5 0.5 0 0 1 68 1218.3622 z M 73.5 1218.3622 A 0.5 0.5 0 0 1 74 1218.8622 A 0.5 0.5 0 0 1 73.5 1219.3622 A 0.5 0.5 0 0 1 73.435547 1219.3583 A 0.5 0.5 0 0 1 73 1218.8622 A 0.5 0.5 0 0 1 73.003906 1218.7977 A 0.5 0.5 0 0 1 73.5 1218.3622 z M 63.914062 1219.3622 L 66.585938 1219.3622 A 1.5 1.5 0 0 0 66.646484 1219.5087 L 63.148438 1223.0087 A 1.5 1.5 0 0 0 63.146484 1223.0087 A 1.5 1.5 0 0 0 63 1222.9481 L 63 1220.2763 A 1.5 1.5 0 0 0 63.914062 1219.3622 z M 69.414062 1219.3622 L 72.085938 1219.3622 A 1.5 1.5 0 0 0 72.146484 1219.5087 L 68.648438 1223.0087 A 1.5 1.5 0 0 0 68.646484 1223.0087 A 1.5 1.5 0 0 0 68.5 1222.9481 L 68.5 1220.2763 A 1.5 1.5 0 0 0 69.414062 1219.3622 z M 67.353516 1220.2157 A 1.5 1.5 0 0 0 67.5 1220.2763 L 67.5 1222.9481 A 1.5 1.5 0 0 0 66.585938 1223.8622 L 63.914062 1223.8622 A 1.5 1.5 0 0 0 63.853516 1223.7138 L 67.353516 1220.2157 z M 72.853516 1220.2157 A 1.5 1.5 0 0 0 73 1220.2763 L 73 1222.9481 A 1.5 1.5 0 0 0 72.085938 1223.8622 L 69.414062 1223.8622 A 1.5 1.5 0 0 0 69.353516 1223.7138 L 72.853516 1220.2157 z M 62.5 1223.8622 A 0.5 0.5 0 0 1 63 1224.3622 A 0.5 0.5 0 0 1 62.5 1224.8622 A 0.5 0.5 0 0 1 62 1224.3622 A 0.5 0.5 0 0 1 62.5 1223.8622 z M 68 1223.8622 A 0.5 0.5 0 0 1 68.5 1224.3622 A 0.5 0.5 0 0 1 68 1224.8622 A 0.5 0.5 0 0 1 67.5 1224.3622 A 0.5 0.5 0 0 1 68 1223.8622 z M 73.5 1223.8622 A 0.5 0.5 0 0 1 74 1224.3622 A 0.5 0.5 0 0 1 73.5 1224.8622 A 0.5 0.5 0 0 1 73 1224.3622 A 0.5 0.5 0 0 1 73.5 1223.8622 z M 63.914062 1224.8622 L 66.585938 1224.8622 A 1.5 1.5 0 0 0 66.646484 1225.0087 L 63.148438 1228.5087 A 1.5 1.5 0 0 0 63.146484 1228.5087 A 1.5 1.5 0 0 0 63 1228.4481 L 63 1225.7763 A 1.5 1.5 0 0 0 63.914062 1224.8622 z M 69.414062 1224.8622 L 72.085938 1224.8622 A 1.5 1.5 0 0 0 72.146484 1225.0087 L 68.648438 1228.5087 A 1.5 1.5 0 0 0 68.646484 1228.5087 A 1.5 1.5 0 0 0 68.5 1228.4481 L 68.5 1225.7763 A 1.5 1.5 0 0 0 69.414062 1224.8622 z M 67.353516 1225.7157 A 1.5 1.5 0 0 0 67.5 1225.7763 L 67.5 1228.4481 A 1.5 1.5 0 0 0 66.660156 1229.1864 A 1.5 1.5 0 0 0 66.585938 1229.3622 L 63.914062 1229.3622 A 1.5 1.5 0 0 0 63.853516 1229.2138 L 67.353516 1225.7157 z M 72.853516 1225.7157 A 1.5 1.5 0 0 0 73 1225.7763 L 73 1228.4481 A 1.5 1.5 0 0 0 72.085938 1229.3622 L 69.414062 1229.3622 A 1.5 1.5 0 0 0 69.353516 1229.2138 L 72.853516 1225.7157 z M 62.5 1229.3622 A 0.5 0.5 0 0 1 63 1229.8622 A 0.5 0.5 0 0 1 62.5 1230.3622 A 0.5 0.5 0 0 1 62 1229.8622 A 0.5 0.5 0 0 1 62.5 1229.3622 z M 68 1229.3622 A 0.5 0.5 0 0 1 68.5 1229.8622 A 0.5 0.5 0 0 1 68 1230.3622 A 0.5 0.5 0 0 1 67.935547 1230.3583 A 0.5 0.5 0 0 1 67.5 1229.8622 A 0.5 0.5 0 0 1 67.503906 1229.7977 A 0.5 0.5 0 0 1 68 1229.3622 z M 73.5 1229.3622 A 0.5 0.5 0 0 1 74 1229.8622 A 0.5 0.5 0 0 1 73.5 1230.3622 A 0.5 0.5 0 0 1 73 1229.8622 A 0.5 0.5 0 0 1 73.5 1229.3622 z " /></g></g><g
     inkscape:groupmode="layer"
     id="layer2"
     inkscape:label="emblems"><g
       id="level-object-light"
       transform="matrix(0.45116602,0,0,0.45116243,-67.981027,-80.29608)"
       inkscape:label="level-object-light"
       inkscape:export-filename="/home/dani/git/crown/tools/level_editor/resources/icons/16x16/emblems/level-object-light.png"
       inkscape:export-xdpi="96"
       inkscape:export-ydpi="96"
       style="display:inline;opacity:1"><rect
         style="display:inline;fill:none;fill-opacity:0.868478;stroke:none;stroke-width:2.21997;stroke-opacity:0.577483"
         id="rect25"
         width="35.463665"
         height="35.463947"
         x="195.0081"
         y="355.29572"
         inkscape:label="bbox" /><path
         id="rect2066"
         style="fill:#000000;fill-opacity:1;stroke:none;stroke-width:2.21995;stroke-miterlimit:4;stroke-dasharray:none"
         d="m 206.0905,381.8937 h 13.29888 v 2.2165 H 206.0905 Z" /><path
         id="rect2165"
         style="fill:#000000;fill-opacity:1;stroke:none;stroke-width:2.21995;stroke-miterlimit:4;stroke-dasharray:none"
         d="m 206.09051,386.32668 h 13.29886 v 2.2165 h -13.29886 z" /><path
         id="rect2165-9"
         style="display:inline;fill:#000000;fill-opacity:1;stroke:none;stroke-width:2.21995;stroke-miterlimit:4;stroke-dasharray:none"
         d="m 210.52346,388.54321 h 4.43296 v 2.21649 h -4.43296 z" /><path
         id="path2301"
         style="fill:#000000;fill-opacity:1;fill-rule:evenodd;stroke:none;stroke-width:2.21648px;stroke-linecap:butt;stroke-linejoin:miter;stroke-opacity:1"
         d="m 212.72574,357.52389 c -3.56108,-0.1752 -6.9897,1.64008 -9.29314,4.33262 -2.16475,2.44463 -3.09061,5.83177 -2.84465,9.08093 0.14501,2.78113 1.42294,5.49426 3.59341,7.22203 0.66183,0.52959 1.34946,1.2197 2.11698,1.51566 4.341,-0.009 8.71631,0.0174 13.03589,-0.0132 2.78154,-1.71786 5.19556,-4.52191 5.48236,-7.93743 0.48582,-3.78244 -0.56776,-7.9175 -3.42135,-10.52672 -2.22639,-2.38652 -5.41968,-3.80407 -8.6695,-3.67402 z" /></g><g
       id="level-object-sound"
       inkscape:export-filename="/home/dani/git/crown/tools/level_editor/resources/icons/16x16/emblems/level-object-sound.png"
       inkscape:export-xdpi="96"
       inkscape:export-ydpi="96"
       inkscape:label="level-object-sound"
       style="display:inline;opacity:1"
       transform="matrix(0.45116602,0,0,0.45116243,-69.947825,-80.47288)"><rect
         style="display:inline;fill:none;fill-opacity:0.868478;stroke:none;stroke-width:2.21997;stroke-opacity:0.577483"
         id="rect26"
         width="35.463665"
         height="35.463947"
         x="288.02661"
         y="355.68759"
         inkscape:label="bbox" /><path
         id="rect2326"
         style="fill:#000000;fill-opacity:1;stroke:none;stroke-width:2.95457"
         d="m 288.02662,366.77014 h 2.21648 v 13.29898 h -2.21648 z" /><path
         id="rect2328"
         style="fill:#000000;fill-opacity:1;stroke:none;stroke-width:2.95458"
         d="m 303.54197,360.12064 -8.86591,6.64948 h -2.21648 v 13.29898 h 2.21648 l 8.86591,6.64949 z"
         sodipodi:nodetypes="ccccccc" /><path
         id="path2385"
         style="fill:#000000;fill-opacity:1;fill-rule:evenodd;stroke:none;stroke-width:2.21649px;stroke-linecap:butt;stroke-linejoin:miter;stroke-opacity:1"
         d="m 305.75846,363.42435 v 3.38218 a 9.9951864,9.9952668 0 0 1 2.4988,6.61309 9.9951864,9.9952668 0 0 1 -2.4988,6.61308 v 3.38218 a 12.493984,12.494083 0 0 0 4.9976,-9.99526 12.493984,12.494083 0 0 0 -4.9976,-9.99527 z" /><path
         id="ellipse2395"
         style="fill:#000000;fill-opacity:1;fill-rule:evenodd;stroke:none;stroke-width:2.21649px;stroke-linecap:butt;stroke-linejoin:miter;stroke-opacity:1"
         d="m 314.62437,359.06605 v 3.17721 a 14.992782,14.992899 0 0 1 4.99759,11.17636 14.992782,14.992899 0 0 1 -4.99759,11.17635 v 3.17721 a 17.491578,17.491717 0 0 0 7.4964,-14.35356 17.491578,17.491717 0 0 0 -7.4964,-14.35357 z" /><path
         id="ellipse2399"
         style="fill:#000000;fill-opacity:1;fill-rule:evenodd;stroke:none;stroke-width:2.21649px;stroke-linecap:butt;stroke-linejoin:miter;stroke-opacity:1"
         d="m 310.19141,361.24764 v 3.25529 a 12.493984,12.494083 0 0 1 3.7482,8.92156 12.493984,12.494083 0 0 1 -3.7482,8.91667 v 3.25042 a 14.992781,14.9929 0 0 0 6.24699,-12.16708 14.992781,14.9929 0 0 0 -6.24699,-12.17686 z" /></g><g
       id="level-object-camera"
       inkscape:export-filename="/home/dani/git/crown/tools/level_editor/resources/icons/16x16/emblems/level-object-camera.png"
       inkscape:export-xdpi="96"
       inkscape:export-ydpi="96"
       inkscape:label="level-object-camera"
       style="display:inline;opacity:1"
       transform="matrix(0.45116602,0,0,0.45116243,-69.947825,-80.47288)"><rect
         style="display:inline;fill:none;fill-opacity:0.868478;stroke:none;stroke-width:2.21997;stroke-opacity:0.577483"
         id="rect4"
         width="35.463665"
         height="35.463947"
         x="243.69704"
         y="355.68759"
         inkscape:label="bbox" /><path
         id="rect2580"
         style="opacity:0.997;fill:#000000;fill-opacity:1;stroke:none;stroke-width:2.95457;stroke-opacity:1"
         d="m 249.39682,377.85261 h 17.41467 c 0.70182,0 1.26682,0.56352 1.26682,1.2635 v 8.52645 c 0,0.69997 -0.565,1.26349 -1.26682,1.26349 h -17.41467 c -0.70182,0 -1.26682,-0.56352 -1.26682,-1.26349 v -8.52645 c 0,-0.69998 0.565,-1.2635 1.26682,-1.2635 z" /><path
         style="vector-effect:none;fill:#000000;fill-opacity:1;fill-rule:evenodd;stroke:none;stroke-width:0.221649;stroke-linecap:butt;stroke-linejoin:miter;stroke-miterlimit:4;stroke-dasharray:none;stroke-dashoffset:0;stroke-opacity:1"
         d="m 279.1607,377.8526 -8.86591,4.433 v 2.2165 l 8.86591,4.43298 z"
         id="path2616"
         sodipodi:nodetypes="ccccc" /><path
         style="vector-effect:none;fill:#000000;fill-opacity:1;fill-rule:evenodd;stroke:none;stroke-width:0.221649;stroke-linecap:butt;stroke-linejoin:miter;stroke-miterlimit:4;stroke-dasharray:none;stroke-dashoffset:0;stroke-opacity:1"
         d="m 243.69704,377.85261 4.43296,2.2165 v 0 l -4.43296,2.21649 z"
         id="path2651"
         sodipodi:nodetypes="ccccc" /><path
         id="path2618"
         style="fill:#000000;fill-opacity:1;fill-rule:evenodd;stroke:none;stroke-width:2.21651px;stroke-linecap:butt;stroke-linejoin:miter;stroke-opacity:1"
         d="m 266.03916,357.90414 a 8.6885979,8.8331199 0 0 0 -8.36375,6.45158 7.4473696,7.5712456 0 0 0 -6.531,-3.92834 7.4473696,7.5712456 0 0 0 -7.44736,7.56975 7.4473696,7.5712456 0 0 0 7.44736,7.5747 v 0.0643 h 14.89475 v -0.0643 a 8.6885979,8.8331199 0 0 0 8.68859,-8.83632 8.6885979,8.8331199 0 0 0 -8.68859,-8.83137 z" /></g><g
       transform="translate(2.1286464e-6,-956.36218)"
       id="level-object-unit"
       inkscape:label="level-object-unit"
       style="display:inline;opacity:1"
       inkscape:export-filename="/home/dani/git/crown/tools/level_editor/resources/icons/16x16/objects/unit.png"
       inkscape:export-xdpi="96"
       inkscape:export-ydpi="96"><rect
         style="display:inline;fill:none;fill-opacity:0.868478;stroke:none;stroke-width:1.00157;stroke-opacity:0.577483"
         id="rect27"
         width="16"
         height="16"
         x="-2.1286464e-06"
         y="1036.3622"
         inkscape:label="bbox" /><path
         id="path2666"
         style="fill:#000000;fill-opacity:1;fill-rule:evenodd;stroke:none;stroke-width:1px;stroke-linecap:butt;stroke-linejoin:miter;stroke-opacity:1"
         d="m 1,1037.3622 v 14 h 14 v -14 z m 2.4222006,2.7298 h 3.3291015 v 5.7445 c 0,0.4956 0.1024719,0.8825 0.3053386,1.1598 0.2086634,0.2772 0.5038436,0.4147 0.8863933,0.4147 0.4405118,0 0.8811028,-0.1001 1.3216146,-0.3008 v -6.223 l -0.7473959,-0.2119 v -0.5833 h 3.2607413 v 7.5241 l 0.799806,0.2119 v 0.5834 H 9.403646 l -0.1207683,-0.7247 -0.5924479,0.3099 c -0.8114691,0.4249 -1.5406036,0.6357 -2.1897786,0.6357 -1.5070139,0 -2.2604168,-0.8172 -2.2604167,-2.4518 v -5.2933 l -0.8180339,-0.2119 z" /></g><g
       transform="translate(80.000002,-956.36218)"
       id="level-object-unknown"
       inkscape:label="level-object-unknown"
       style="display:inline;opacity:1"
       inkscape:export-filename="/home/dani/git/crown/tools/level_editor/resources/icons/16x16/emblems/level-object-unknown.png"
       inkscape:export-xdpi="96"
       inkscape:export-ydpi="96"><rect
         style="display:inline;fill:none;fill-opacity:0.868478;stroke:none;stroke-width:1.00157;stroke-opacity:0.577483"
         id="rect2"
         width="16"
         height="16"
         x="-2e-06"
         y="1036.3622"
         inkscape:label="bbox" /><path
         id="path2898"
         style="fill:#000000;fill-opacity:1;fill-rule:evenodd;stroke:none;stroke-width:1px;stroke-linecap:butt;stroke-linejoin:miter;stroke-opacity:1"
         d="M 81,21 V 35 H 95 V 21 Z m 7.080078,2.021484 c 1.10026,0 1.963113,0.250569 2.589844,0.751954 0.631373,0.496741 0.947265,1.183124 0.947266,2.060546 0,0.450318 -0.102373,0.855423 -0.306641,1.212891 -0.199625,0.357468 -0.574502,0.732345 -1.126953,1.126953 l -0.529297,0.382813 c -0.315687,0.22748 -0.553094,0.45733 -0.710938,0.689453 -0.1532,0.232122 -0.236072,0.487078 -0.25,0.765625 h -1.859375 c 0.02786,-0.47353 0.15972,-0.896183 0.396485,-1.267578 0.241407,-0.371396 0.594349,-0.717998 1.058593,-1.042969 0.496742,-0.343541 0.846514,-0.646273 1.050782,-0.90625 0.204267,-0.26462 0.30664,-0.556624 0.30664,-0.876953 0,-0.408536 -0.135035,-0.731985 -0.404296,-0.96875 -0.26462,-0.236765 -0.642667,-0.353516 -1.134766,-0.353516 -0.468887,0 -0.863265,0.136252 -1.183594,0.410156 -0.315686,0.273905 -0.500931,0.63562 -0.55664,1.085938 l -1.984376,-0.08398 c 0.125347,-0.942416 0.512167,-1.674622 1.16211,-2.199218 0.649943,-0.524597 1.495248,-0.78711 2.535156,-0.78711 z m -1.302734,8.078125 h 2.013672 v 1.878907 h -2.013672 z"
         transform="translate(-80.000002,1016.3622)" /></g></g></svg>
