<?xml version="1.0" encoding="UTF-8" standalone="no"?>
<svg
   xmlns:dc="http://purl.org/dc/elements/1.1/"
   xmlns:cc="http://creativecommons.org/ns#"
   xmlns:rdf="http://www.w3.org/1999/02/22-rdf-syntax-ns#"
   xmlns:svg="http://www.w3.org/2000/svg"
   xmlns="http://www.w3.org/2000/svg"
   xmlns:sodipodi="http://sodipodi.sourceforge.net/DTD/sodipodi-0.dtd"
   xmlns:inkscape="http://www.inkscape.org/namespaces/inkscape"
   width="82"
   height="82.000275"
   version="1.1"
   viewBox="0 0 82 82.000275"
   xml:space="preserve"
   id="svg895"
   sodipodi:docname="crown-black-socket.svg"
   inkscape:export-filename="/home/michela/git/crown/tools/level_editor/resources/icons/512x512/apps/crown-black-socket.png"
   inkscape:export-xdpi="599.40997"
   inkscape:export-ydpi="599.40997"
   inkscape:version="1.0.2 (e86c870879, 2021-01-15)"><defs
   id="defs899" /><sodipodi:namedview
   pagecolor="#272727"
   bordercolor="#666666"
   borderopacity="1"
   objecttolerance="10"
   gridtolerance="10"
   guidetolerance="10"
   inkscape:pageopacity="0"
   inkscape:pageshadow="2"
   inkscape:window-width="1366"
   inkscape:window-height="704"
   id="namedview897"
   showgrid="false"
   inkscape:pagecheckerboard="false"
   showguides="false"
   fit-margin-top="0"
   fit-margin-left="0"
   fit-margin-right="0"
   fit-margin-bottom="0"
   inkscape:zoom="2.99"
   inkscape:cx="61.911721"
   inkscape:cy="46.572438"
   inkscape:window-x="0"
   inkscape:window-y="27"
   inkscape:window-maximized="1"
   inkscape:current-layer="svg895"
   inkscape:document-rotation="0" /><metadata
   id="metadata885"><rdf:RDF><cc:Work
       rdf:about=""><dc:format>image/svg+xml</dc:format><dc:type
         rdf:resource="http://purl.org/dc/dcmitype/StillImage" /><dc:title></dc:title></cc:Work></rdf:RDF></metadata>
<style
   type="text/css"
   id="style887">
	.st0{fill:#FFFFFF;}
	.st1{fill:none;}
	.st2{fill:#1D2D51;}
	.st3{fill:#1D3E84;}
	.st4{fill:#47509E;}
</style>

<g
   id="g1614"
   transform="translate(3)"><rect
     x="-3"
     y="0.0001373291"
     width="82"
     height="82"
     ry="0"
     fill="none"
     stroke-width="1.43824"
     id="rect889" /><path
     id="path901"
     style="fill:#f0f0f0;fill-opacity:1;stroke-width:1.10621"
     d="m 38.016443,3.2081713e-4 c -0.20187,-0.005399997 -0.4041,0.0573800029 -0.63086,0.20117200287 -0.95128,0.58612 -1.93676,1.13912498 -2.91015,1.70312498 -10.441895,6.02857 -20.871266,12.0581232 -31.3242163,18.0644532 -0.5752,0.34283 -0.76367,0.696999 -0.76367,1.34961 0.022,6.55937 0.0098,13.118374 0.0098,19.677734 l 0.03516,-0.002 v 3.783203 c -0.011,5.39786 -0.0222,10.807168 0,16.205078 0,0.32074 0.27491,0.764346 0.5625,0.941406 1.7477,1.07298 3.53943,2.078702 5.320311,3.107422 9.0592303,5.22093 18.1308803,10.44109 27.2011653,15.66211 0.80748,0.46454 1.61375,1.30664 2.41016,1.30664 0.8296,0 1.66063,-0.81929 2.49023,-1.29492 5.22094,-2.99763 10.44117,-5.99523 15.66211,-9.003908 5.44218,-3.13033 10.85023,-6.304635 16.31446,-9.390625 0.91811,-0.51995 1.22935,-1.052037 1.21875,-2.091797 -0.0566,-8.09693 -0.0684,-16.182447 -0.0684,-24.279297 0,-4.91129 0.0237,-9.821222 0.0449,-14.732422 0.0111,-0.45356 -0.0114,-0.830343 -0.49805,-1.095703 -1.61493,-0.88491 -3.18451,-1.82609 -4.77734,-2.74414 -5.95097,-3.42896 -11.91425,-6.868464 -17.86524,-10.3085942 -3.93784,-2.27872 -7.87595,-4.558016 -11.80273,-6.84765598 -0.22676,-0.132295 -0.42704,-0.205513 -0.62891,-0.21093800287 z" /><path
     d="m 5.8148693,40.996537 c 0,-5.93 0.01,-11.86 -0.01,-17.79 0,-0.59 0.17,-0.91 0.69,-1.22 9.4500007,-5.43 18.8800007,-10.88 28.3200007,-16.33 0.88,-0.51 1.77,-1.01 2.63,-1.54 0.41,-0.26 0.73,-0.23 1.14,0.01 3.55,2.07 7.110003,4.13 10.670003,6.19 5.38,3.11 10.77,6.22 16.15,9.32 1.44,0.83 2.86,1.68 4.32,2.48 0.44,0.24 0.46,0.58 0.45,0.99 -0.02,4.44 -0.04,8.88 -0.04,13.32 0,7.32 0.01,14.63 0.06,21.95 0.01,0.94 -0.27,1.42 -1.1,1.89 -4.94,2.79 -9.83,5.66 -14.75,8.49 -4.72,2.72 -9.44,5.43 -14.160003,8.14 -0.75,0.43 -1.5,1.17 -2.25,1.17 -0.72,0 -1.45,-0.76 -2.18,-1.18 -8.2,-4.72 -16.4,-9.44 -24.59,-14.16 -1.6100007,-0.93 -3.2300007,-1.84 -4.8100007,-2.81 -0.26,-0.16 -0.51,-0.56 -0.51,-0.85 -0.02,-4.88 -0.01,-9.77 0,-14.65 v -3.42 z m 60.1800037,3.21 v -1.06 c -0.01,-5.73 -0.02,-11.45 -0.03,-17.18 0,-0.2 0.05,-0.42 -0.01,-0.59 -0.1,-0.27 -0.22,-0.61 -0.44,-0.74 -4.66,-2.72 -9.34,-5.41 -14.02,-8.11 -4.22,-2.44 -8.45,-4.87 -12.650003,-7.34 -0.65,-0.38 -1.13,-0.34 -1.75,0.02 -2.43,1.44 -4.87,2.85 -7.31,4.26 -6.43,3.71 -12.87,7.42 -19.29,11.15 -0.24,0.14 -0.46,0.52 -0.46,0.79 -0.03,6.74 -0.04,13.49 -0.05,20.23 0,0.21 0.04,0.41 0.07,0.7 0.18,-0.13 0.29,-0.18 0.38,-0.26 1.58,-1.42 3.13,-2.86 4.72,-4.27 0.13,-0.12 0.26,-0.23 0.42,-0.37 0.57,-0.5 1.01,-0.88 1.22,-1.06 2.31,-1.97 3.81,-3.16 5.67,-4.99 0.28,-0.27 0.73,-0.72 1.28,-1.31 0.51,0.55 5.6,4.77 5.6,4.77 0,0 15.400003,-11.57 15.950003,-12.11 0.58,0.55 1.52,1.44 2.69,2.51 5.43,4.97 10.11,8.71 14.23,11.99 0.88,0.7 2.19,1.73 3.78,2.97 z"
     id="path891" /></g>









</svg>
